<?xml version="1.0" encoding="UTF-8" standalone="no"?>
<svg
   width="80mm"
   height="80mm"
   version="1.1"
   viewBox="0 0 80 80"
   id="svg220"
   sodipodi:docname="thw_patch_ov_fn_simplified_lasercut.svg"
   inkscape:version="1.2.2 (b0a8486541, 2022-12-01)"
   xmlns:inkscape="http://www.inkscape.org/namespaces/inkscape"
   xmlns:sodipodi="http://sodipodi.sourceforge.net/DTD/sodipodi-0.dtd"
   xmlns="http://www.w3.org/2000/svg"
   xmlns:svg="http://www.w3.org/2000/svg"
   xmlns:rdf="http://www.w3.org/1999/02/22-rdf-syntax-ns#"
   xmlns:cc="http://creativecommons.org/ns#"
   xmlns:dc="http://purl.org/dc/elements/1.1/">
  <sodipodi:namedview
     id="namedview222"
     pagecolor="#ffffff"
     bordercolor="#000000"
     borderopacity="0.25"
     inkscape:showpageshadow="2"
     inkscape:pageopacity="0.0"
     inkscape:pagecheckerboard="0"
     inkscape:deskcolor="#d1d1d1"
     inkscape:document-units="mm"
     showgrid="false"
     inkscape:zoom="2.6461541"
     inkscape:cx="134.15696"
     inkscape:cy="148.89534"
     inkscape:window-width="1920"
     inkscape:window-height="1027"
     inkscape:window-x="0"
     inkscape:window-y="53"
     inkscape:window-maximized="1"
     inkscape:current-layer="svg220" />
  <title
     id="title2">THW Patch OV FN</title>
  <defs
     id="defs74">
    <style
       type="text/css"
       id="style4"><![CDATA[
    .fil0 {fill:#0061A5}
    .fil3 {fill:#1F1A17}
    .fil2 {fill:#F6BB00}
    .fil1 {fill:white}
   ]]></style>
    <style
       type="text/css"
       id="style6" />
    <style
       type="text/css"
       id="style8" />
    <style
       type="text/css"
       id="style10" />
    <style
       type="text/css"
       id="style12" />
    <style
       type="text/css"
       id="style14" />
    <style
       type="text/css"
       id="style16" />
    <style
       type="text/css"
       id="style18" />
    <style
       type="text/css"
       id="style20" />
    <style
       type="text/css"
       id="style22" />
    <style
       type="text/css"
       id="style24" />
    <style
       type="text/css"
       id="style26" />
    <style
       type="text/css"
       id="style28" />
    <style
       type="text/css"
       id="style30" />
    <style
       type="text/css"
       id="style32" />
    <style
       type="text/css"
       id="style34" />
    <style
       type="text/css"
       id="style36" />
    <style
       type="text/css"
       id="style38" />
    <style
       type="text/css"
       id="style40" />
    <style
       type="text/css"
       id="style42" />
    <style
       type="text/css"
       id="style44" />
    <style
       type="text/css"
       id="style46" />
    <style
       type="text/css"
       id="style48" />
    <style
       type="text/css"
       id="style50" />
    <style
       type="text/css"
       id="style52" />
    <style
       type="text/css"
       id="style54" />
    <style
       type="text/css"
       id="style56" />
    <style
       type="text/css"
       id="style58" />
    <style
       type="text/css"
       id="style60" />
    <style
       type="text/css"
       id="style62" />
    <style
       type="text/css"
       id="style64" />
    <style
       type="text/css"
       id="style66" />
    <style
       type="text/css"
       id="style68" />
    <style
       type="text/css"
       id="style70" />
    <style
       type="text/css"
       id="style72" />
  </defs>
  <g
     transform="matrix(1.0871,0,0,1.0871,-3.4826,-3.4826)"
     fill="#ffffff"
     fill-rule="evenodd"
     id="g118"
     inkscape:label="THW"
     style="display:inline">
    <path
       id="path116"
       style="display:inline;fill:#120a8f;fill-opacity:1"
       inkscape:label="blau"
       d="M 39.99409,10.216562 A 29.777388,29.777388 0 0 0 10.216562,39.99409 29.777388,29.777388 0 0 0 39.99409,69.771618 29.777388,29.777388 0 0 0 69.765438,40.46232 l -2.540326,0.665504 c -0.0083,0.535977 -0.02201,1.04385 -0.04468,1.459832 -0.29426,0.04948 -0.588501,0.09883 -0.882744,0.148313 -0.551864,1.043319 -1.487763,2.002004 -2.725242,2.866423 l 0.270956,-0.13833 c 0,0 0.631667,4.876981 0.421644,5.215655 -0.01513,0.0244 -0.0507,0.05259 -0.0965,0.08224 l 0.663603,0.548091 c -0.703336,1.579243 -1.588998,3.074226 -2.583108,4.485501 -1.779592,-0.662957 -3.55909,-1.325955 -5.338773,-1.988908 -0.9196,1.111943 -1.941264,2.140996 -3.057994,3.053715 0.664427,1.776648 1.328723,3.553093 1.993186,5.329741 -1.412561,0.997145 -2.913096,1.876007 -4.492156,2.580732 l -3.632229,-4.386151 c -1.343569,0.50712 -2.737305,0.886557 -4.15465,1.114245 -0.315305,1.872407 -0.630661,3.744927 -0.945967,5.617334 -1.725134,0.157907 -3.461521,0.158017 -5.186658,0 -0.315433,-1.872407 -0.63098,-3.744927 -0.946442,-5.617334 -1.417253,-0.230301 -2.810896,-0.606822 -4.15465,-1.114245 -1.210557,1.462144 -2.421198,2.924007 -3.631754,4.386151 -1.582372,-0.699657 -3.074261,-1.59067 -4.492156,-2.580732 0.664425,-1.776648 1.328723,-3.553093 1.993186,-5.329741 -1.106887,-0.916564 -2.144984,-1.92687 -3.040881,-3.053715 -1.784834,0.662953 -3.569625,1.325951 -5.354459,1.988908 -0.997882,-1.409251 -1.87828,-2.907546 -2.58501,-4.485501 1.463797,-1.209268 2.927964,-2.418206 4.391855,-3.627476 -0.287543,-0.76254 -0.529963,-1.541771 -0.730629,-2.331643 -1.025821,-0.669996 -1.955204,-1.410669 -2.777056,-2.219933 -1.077286,-0.181182 -2.154607,-0.362175 -3.231976,-0.543337 -0.118276,-1.379669 -0.14013,-2.767073 -0.06893,-4.149896 a 1.9763722,0.97936677 89.999972 0 1 -0.40263,-1.56869 1.9763722,0.97936677 89.999972 0 1 0.873237,-1.942323 c 1.019105,-1.599858 2.653105,-2.90954 4.727935,-3.941213 -0.927289,-0.765457 -1.854575,-1.530918 -2.781809,-2.296466 0.701128,-1.582372 1.594671,-3.072574 2.58501,-4.488353 1.784834,0.663689 3.569625,1.32752 5.354459,1.991284 0.892465,-1.129974 1.93519,-2.135651 3.040881,-3.053715 -0.664426,-1.777199 -1.328724,-3.554059 -1.993186,-5.331167 1.417711,-0.990338 2.910428,-1.880335 4.492156,-2.581207 1.210556,1.461958 2.421197,2.924191 3.631754,4.38615 1.345594,-0.502767 2.738133,-0.875477 4.15465,-1.111868 0.315434,-1.873051 0.630981,-3.746184 0.946442,-5.619235 0.862521,-0.0783 1.728171,-0.117377 2.593567,-0.117414 0.865395,-3.6e-5 1.73057,0.03897 2.593091,0.117414 0.315306,1.873051 0.630662,3.746184 0.945967,5.619235 1.416977,0.233889 2.809241,0.609423 4.15465,1.111868 1.210742,-1.461959 2.42149,-2.924192 3.632229,-4.38615 1.578324,0.706005 3.079871,1.583602 4.492156,2.581207 -0.664426,1.7772 -1.328722,3.55406 -1.993186,5.331167 1.115534,0.914081 2.141614,1.938643 3.057994,3.053715 1.779591,-0.663691 3.559089,-1.327521 5.338773,-1.991284 0.986475,1.417803 1.88542,2.904601 2.583108,4.488353 -0.85462,0.70563 -1.709402,1.411166 -2.564094,2.11678 0.488052,1.140021 0.819643,5.432366 0.855649,5.913484 1.640191,0.238629 3.172689,0.391556 4.048169,0.535255 0.03045,0.445863 0.04948,1.247395 0.05704,2.114879 L 69.029105,39.118 69.76116,39.228284 A 29.777388,29.777388 0 0 0 39.99409,10.216562 Z m -8.151956,10.593882 v 3.861353 c -1.839703,0.95093 -3.478885,2.252441 -4.845825,3.796228 1.598278,-0.212978 3.269269,-0.343496 4.982728,-0.395024 v -0.51434 h 5.203771 v 0.595626 c 0.342666,0.02048 0.685701,0.04451 1.029155,0.07083 v -3.535255 h -1.943748 v 0.792425 h -3.630328 v -3.896054 h 14.797495 v 3.89653 h -3.631754 v -0.775788 h -1.959436 v 3.904135 c 0.349945,0.04767 0.699433,0.09754 1.04817,0.151164 v -1.203612 h 5.185232 v 2.238947 c 2.684876,0.665181 5.250848,1.514572 7.580097,2.542703 -1.602873,-3.249557 -4.206565,-6.002567 -7.446046,-7.668514 v -3.861353 z m 30.594672,15.649341 c 0.07208,0.06187 0.142284,0.124778 0.212962,0.187292 0.03592,0.0055 0.07156,0.01117 0.107431,0.01664 z M 24.628064,48.116573 c 1.465604,2.786104 3.672319,5.179353 6.40976,6.770559 1.191055,1.672333 2.163333,3.558317 3.270955,5.312153 0.648053,-1.074139 1.2962,-2.148329 1.944224,-3.222469 2.479986,0.546113 5.070073,0.545285 7.55015,0 0.647133,1.07414 1.294164,2.14833 1.941372,3.222469 1.047279,-1.74289 2.094853,-3.485692 3.142132,-5.22849 2.437666,-1.484049 4.574213,-3.393646 6.102202,-5.844081 -1.2696,0.312818 -2.606676,0.579928 -3.990175,0.801458 l -5.252258,8.737125 -2.722864,-4.529235 h -4.76e-4 c -2.623072,0.343534 -5.649919,0.648851 -6.078434,0.283791 -0.01383,-0.01178 -0.0277,-0.02545 -0.04136,-0.03946 l -2.575978,4.284899 -5.630644,-9.366978 c -1.407949,-0.330959 -2.770696,-0.723631 -4.06861,-1.181746 z m 8.153382,1.953732 1.528759,2.556013 1.329108,-2.21518 c -0.960929,-0.08995 -1.915086,-0.202959 -2.857867,-0.340833 z M 39.99409,3.1988155 A 36.795144,36.795144 0 0 0 3.1988155,39.99409 36.795144,36.795144 0 0 0 39.99409,76.789365 36.795144,36.795144 0 0 0 76.789365,39.99409 36.795144,36.795144 0 0 0 39.99409,3.1988155 Z m 0,1.1479955 A 35.647134,35.647134 0 0 1 75.641369,39.99409 35.647134,35.647134 0 0 1 39.99409,75.641369 35.647134,35.647134 0 0 1 4.346811,39.99409 35.647134,35.647134 0 0 1 39.99409,4.346811 Z" />
  </g>
  <g
     fill="#0000ff"
     stroke-width="0.14625"
     aria-label="53"
     id="g214"
     style="fill:#120a8f;fill-opacity:1"
     inkscape:label="font">
    <path
       id="path212"
       style="display:inline;fill:#000000;fill-opacity:1"
       d="m 75.753,45.778 v 0.02285 q 0,0.4256 0.25136,0.69696 0.25136,0.2685 0.64269,0.2685 0.40561,0 0.67125,-0.2685 0.26564,-0.27136 0.26564,-0.69124 0,-0.47702 -0.27993,-0.72267 -0.27993,-0.24851 -0.81978,-0.24851 -0.07712,0 -0.11997,0.0029 -0.03999,0 -0.07141,0.0029 v -0.34562 q 0.03142,0.0029 0.06855,0.0057 0.03999,0 0.1114,0 0.41132,0 0.61698,-0.16853 0.20852,-0.17138 0.20852,-0.50844 0,-0.29135 -0.1771,-0.47987 -0.1771,-0.18852 -0.44274,-0.18852 -0.31135,0 -0.48844,0.18566 -0.17424,0.18566 -0.17995,0.51701 l -0.3799,-0.0029 q 0.02571,-0.48273 0.31135,-0.76837 0.2885,-0.2885 0.75409,-0.2885 0.4256,0 0.71981,0.30278 0.29706,0.30278 0.29706,0.72267 0,0.25136 -0.09426,0.43703 -0.09426,0.18281 -0.30278,0.3342 0.33705,0.17995 0.50558,0.47416 0.17138,0.29135 0.17138,0.68839 0,0.59413 -0.37133,0.97974 -0.37133,0.38561 -0.94832,0.38561 -0.61127,0 -0.96546,-0.3599 -0.35419,-0.3599 -0.36276,-0.98545 z m -3.802,0 h 0.40846 q 0.02285,0.40561 0.31706,0.68839 0.29706,0.28278 0.69125,0.28278 0.41989,0 0.70553,-0.3142 0.2885,-0.31706 0.2885,-0.77979 0,-0.46559 -0.2885,-0.75123 -0.28564,-0.28564 -0.75409,-0.28564 -0.27421,0 -0.48844,0.11711 -0.21423,0.11711 -0.37704,0.35134 l -0.3142,-0.14568 0.37419,-2.0595 h 1.8766 v 0.40846 h -1.5339 l -0.20852,1.1597 q 0.17995,-0.12854 0.35419,-0.18566 0.1771,-0.05998 0.38276,-0.05998 0.61127,0 0.99974,0.41418 0.39132,0.41132 0.39132,1.0483 0,0.60555 -0.41703,1.0312 -0.41418,0.4256 -1.0054,0.4256 -0.56271,0 -0.95975,-0.37704 -0.39704,-0.3799 -0.44274,-0.96832 z M 5.8396,46.791 H 5.32831 l 0.97117,-1.5082 q -0.13425,0.03142 -0.24565,0.04856 -0.1114,0.01428 -0.2028,0.01428 -0.56556,0 -0.93689,-0.39418 -0.36847,-0.39418 -0.36847,-0.99117 0,-0.61412 0.39989,-1.014 0.39989,-0.40275 1.0169,-0.40275 0.60555,0 1.0054,0.39704 0.40275,0.39418 0.40275,0.97117 0,0.49987 -0.51415,1.2911 -0.048559,0.07712 -0.074266,0.11711 z m 0.097117,-1.8081 q 0.42846,0 0.71695,-0.29706 0.29135,-0.29706 0.29135,-0.73124 0,-0.43988 -0.29706,-0.7398 -0.29421,-0.30278 -0.71695,-0.30278 -0.40846,0 -0.68553,0.29135 -0.27421,0.29135 -0.27421,0.74552 0,0.45131 0.27136,0.74266 0.27421,0.29135 0.6941,0.29135 z M 2.8775,46.428 h 0.45131 v 0.36276 H 2.03491 V 46.428 H 2.44623 V 42.9889 H 1.72071 v -0.35705 h 1.1568 z m 70.1045,-12.504 0.13777,0.57331 -0.46779,0.11241 -0.3964,-1.6496 0.46779,-0.11241 0.10903,0.45372 1.664,-2.4572 -2.1314,0.51219 0.13861,0.57682 -0.46779,0.11241 -0.39809,-1.6566 0.46779,-0.11241 0.1403,0.58386 4.1996,-1.0092 -0.1403,-0.58386 0.45372,-0.10903 0.39809,1.6566 -0.45372,0.10903 -0.13861,-0.57682 -1.9872,0.47754 2.4673,1.5202 -0.1141,-0.47482 0.45372,-0.10903 0.3964,1.6496 -0.45372,0.10903 -0.13861,-0.57682 -2.4969,-1.5503 z m 1.78,-8.693 -3.9676,1.5742 0.21879,0.55143 -0.44719,0.17743 -0.62835,-1.5837 0.44719,-0.17743 0.21879,0.55143 4.0147,-1.5929 -0.21879,-0.55143 0.43374,-0.1721 0.74308,1.8728 q 0.17343,0.43711 0.21024,0.72605 0.04151,0.29097 -0.02442,0.5662 -0.08904,0.3739 -0.3653,0.6781 -0.27492,0.30756 -0.65823,0.45964 -0.56824,0.22546 -1.1132,0.04862 Q 73.0805,28.1825 72.8434,27.69282 l -1.1031,1.4962 0.21879,0.55143 -0.44719,0.17743 -0.33886,-0.85404 1.7841,-2.3891 0.18277,0.46064 q 0.1841,0.464 0.57118,0.64511 0.38842,0.18446 0.81544,0.01504 0.52453,-0.20812 0.6782,-0.63491 0.15367,-0.42679 -0.08379,-1.0253 z m -4.222,-0.963 0.23717,0.41859 -1.1488,0.65088 -1.7868,-3.1536 0.41859,-0.23717 0.29245,0.51615 3.7578,-2.1292 -0.29245,-0.51615 0.406,-0.23004 1.7868,3.1536 -1.1519,0.65266 -0.23717,-0.41859 0.70184,-0.39766 -1.0057,-1.7751 -1.6051,0.90945 1.0164,1.7939 -0.45321,0.25679 -1.0164,-1.7939 -1.6303,0.92372 1.0057,1.7751 z m -5.661,-5.973 -0.34393,-0.41968 2.7934,-4.1645 -0.34163,-0.41688 0.36093,-0.29578 0.99968,1.2199 -0.36092,0.29578 -0.29119,-0.35533 -2.318,3.3635 4.0399,-1.9871 0.37144,0.45326 -2.7399,3.5735 3.7556,-1.6092 -0.2866,-0.34974 0.36093,-0.29578 0.99968,1.2199 -0.36093,0.29578 -0.34393,-0.41968 -4.6368,1.9151 -0.33934,-0.41408 2.7401,-3.6018 z m 1.331,-6.208 -0.88981,1.0143 -0.31271,-0.27434 q 0.22859,-0.46352 0.20352,-0.80793 -0.02269,-0.34713 -0.29734,-0.58807 -0.29912,-0.26241 -0.67621,-0.22751 -0.3747,0.03218 -0.6562,0.35306 -0.11928,0.13596 -0.18107,0.28867 -0.05907,0.1551 -0.05145,0.31096 0.01153,0.29403 0.38926,0.81788 0.11855,0.16656 0.17255,0.24762 0.34438,0.52347 0.34035,1.0108 -0.0016,0.48457 -0.34994,0.88158 -0.45564,0.51938 -1.0699,0.57235 -0.6143,0.05297 -1.0983,-0.37166 -0.28008,-0.24571 -0.424,-0.52596 -0.14154,-0.28296 -0.12349,-0.55586 l -0.22424,0.25561 -0.33447,-0.29342 0.96138,-1.0959 0.33447,0.29342 q -0.33164,0.41643 -0.31038,0.82004 0.02126,0.40361 0.39108,0.72805 0.35894,0.31489 0.77448,0.28004 0.41826,-0.03247 0.74508,-0.40501 0.22901,-0.26105 0.23046,-0.59181 0.0042,-0.32838 -0.21961,-0.69312 -0.06316,-0.10353 -0.20718,-0.30687 -0.38178,-0.54666 -0.44836,-0.89861 -0.05814,-0.30123 0.01467,-0.55976 0.0752,-0.26125 0.28274,-0.49782 0.43178,-0.49218 1.0029,-0.53977 0.57618,-0.04792 1.0493,0.36717 0.2121,0.18607 0.31695,0.41761 0.10757,0.23392 0.12859,0.55552 l 0.22424,-0.25561 z m -7.918,-0.141 0.49031,0.33397 -0.27084,0.39763 -1.4082,-0.95914 0.27084,-0.39763 0.49031,0.33397 2.4314,-3.5697 -0.49031,-0.33397 0.2627,-0.38567 2.9957,2.0405 -0.74532,1.0942 -0.39763,-0.27084 0.45412,-0.6667 -1.6862,-1.1485 -1.0386,1.5247 1.7041,1.1607 -0.29324,0.43052 -1.6982,-1.1567 z m -5.009,-2.2177 0.21741,-0.42918 0.52922,0.26809 1.9518,-3.8529 -0.52922,-0.26809 0.21088,-0.41627 1.5199,0.76994 -0.21088,0.41627 -0.52921,-0.26809 -1.9518,3.8529 1.82,0.92197 0.37925,-0.74865 0.42918,0.21741 -0.59666,1.1778 z m -1.524,-1.087 1.5487,-4.0319 -0.55379,-0.21273 0.16733,-0.43561 1.5905,0.61094 -0.16733,0.43561 -0.55379,-0.21273 -1.5487,4.0319 0.55379,0.21273 -0.17252,0.44911 -1.5905,-0.61094 0.17252,-0.44911 z m -5.262,-1.5407 1.0568,-4.1878 -0.57521,-0.14516 0.11418,-0.45245 1.652,0.4169 -0.11418,0.45245 -0.57521,-0.14516 -0.45496,1.8028 2.4446,0.61694 0.45496,-1.8028 -0.58223,-0.14693 0.11418,-0.45245 1.652,0.4169 -0.11418,0.45245 -0.57521,-0.14516 -1.0568,4.1878 0.57521,0.14516 -0.11772,0.46648 -1.652,-0.4169 0.11772,-0.46648 0.58223,0.14693 0.48594,-1.9256 -2.4446,-0.61694 -0.48594,1.9256 0.57521,0.14516 -0.11772,0.46648 -1.652,-0.4169 0.11772,-0.46648 z M 42.963,1.8243 42.90534,3.1723 42.48972,3.154522 q -0.11239,-0.50446 -0.34778,-0.75711 -0.23524,-0.25627 -0.60026,-0.27188 -0.39754,-0.017005 -0.6695,0.24653 -0.27181,0.25992 -0.29005,0.68638 -0.0077,0.1807 0.03983,0.33842 0.05118,0.15788 0.15481,0.27455 0.19327,0.22189 0.81592,0.39335 0.19676,0.055485 0.28965,0.084803 0.59643,0.19206 0.8987,0.5743 0.30242,0.37862 0.27985,0.90627 -0.02953,0.69028 -0.475,1.1166 -0.44547,0.42629 -1.0888,0.39877 -0.37225,-0.015923 -0.66004,-0.14409 -0.28764,-0.13179 -0.44461,-0.35574 l -0.01453,0.33972 -0.44453,-0.019015 0.0623,-1.4565 0.44453,0.019015 q 0.0026,0.53235 0.2721,0.83353 0.26953,0.30118 0.76104,0.32221 0.47705,0.020406 0.77901,-0.26719 0.30557,-0.28744 0.32675,-0.78257 0.01484,-0.34695 -0.19133,-0.60559 -0.20256,-0.25849 -0.60554,-0.40245 -0.1141,-0.041088 -0.35377,-0.10927 -0.64011,-0.18669 -0.91258,-0.41921 -0.2341,-0.19829 -0.33939,-0.44538 -0.10514,-0.2507 -0.09169,-0.56512 0.02798,-0.65414 0.44315,-1.0491 0.41894,-0.39846 1.0478,-0.37156 0.2819,0.012058 0.50871,0.12676 0.23043,0.11486 0.44837,0.35228 l 0.01453,-0.33972 z m -4.396,3.8587 0.47958,-0.038335 0.1052,1.3161 -3.6131,0.28881 -0.03833,-0.47958 0.59136,-0.04727 -0.34415,-4.3054 -0.59136,0.04727 -0.03718,-0.46515 3.6131,-0.28881 0.10549,1.3197 -0.47958,0.038335 -0.06428,-0.8041 -2.0337,0.16256 0.147,1.839 2.0553,-0.16429 0.04151,0.51924 -2.0553,0.16429 0.1493,1.8678 2.0337,-0.16256 z m -7.872,2.0968 -0.97368,-4.2079 -0.57797,0.13374 -0.1052,-0.45463 1.6599,-0.38409 0.1052,0.45463 -0.57797,0.13374 0.41915,1.8115 2.4564,-0.56839 -0.41915,-1.8115 -0.58502,0.13537 -0.1052,-0.45463 1.6599,-0.38409 0.1052,0.45463 -0.57797,0.13374 0.97368,4.2079 L 34.73024,6.84608 34.8387,7.3148 33.1788,7.69889 33.07034,7.23017 33.65536,7.0948 33.20766,5.16 l -2.4564,0.56839 0.4477,1.9348 0.57797,-0.13374 0.10846,0.46872 -1.6599,0.38409 -0.10846,-0.46872 z M 27.203,4.3579 27.02932,3.94042 27.46016,3.76118 27.9687,4.98358 27.64139,5.11975 q -0.54411,-0.2908 -1.0249,-0.32585 -0.4822,-0.038388 -0.98318,0.17003 -0.81493,0.33902 -1.1426,1.1806 -0.32767,0.84158 0.01689,1.6698 0.36542,0.87838 1.1961,1.2459 0.82928,0.36414 1.6442,0.025117 0.50432,-0.20981 0.82091,-0.58834 0.31659,-0.37853 0.4435,-0.92107 l 0.58782,-0.24454 q -0.14016,0.84972 -0.54058,1.3846 -0.39848,0.53014 -1.1199,0.83026 -1.0454,0.4349 -2.0624,-0.00392 -1.0185,-0.44216 -1.47,-1.5276 -0.21258,-0.511 -0.20923,-1.0491 0.0034,-0.53815 0.22124,-1.0598 0.20618,-0.49324 0.56338,-0.84949 0.35915,-0.36098 0.86013,-0.5694 0.43084,-0.17924 0.85298,-0.20989 0.42213,-0.030653 0.90735,0.080918 z m -5.635,2.0744 0.69035,1.1593 -0.35742,0.21284 q -0.37041,-0.36043 -0.70576,-0.44281 -0.3372,-0.08549 -0.65111,0.10144 -0.34188,0.20359 -0.425,0.57306 -0.08497,0.36636 0.13343,0.7331 0.09254,0.1554 0.21874,0.26128 0.12931,0.10403 0.27993,0.14486 0.28325,0.079728 0.89807,-0.11799 0.195,-0.06139 0.28876,-0.087755 0.60418,-0.16612 1.0665,-0.011969 0.46044,0.15104 0.73065,0.60481 0.3535,0.59363 0.21441,1.1943 -0.1391,0.60068 -0.69232,0.93012 -0.32012,0.19063 -0.6311,0.24109 -0.31283,0.04735 -0.56684,-0.05399 l 0.17398,0.29215 -0.38229,0.22765 -0.74587,-1.2525 0.38228,-0.22765 q 0.29382,0.44392 0.68431,0.5482 0.39049,0.10428 0.81318,-0.14743 0.41026,-0.24431 0.50528,-0.65034 0.09813,-0.40788 -0.15543,-0.83368 -0.17768,-0.29837 -0.49186,-0.40178 -0.31108,-0.10526 -0.72706,-0.00489 -0.11796,0.028146 -0.35581,0.10242 -0.63777,0.19454 -0.99309,0.14932 -0.30448,-0.037613 -0.52794,-0.18662 -0.22531,-0.15212 -0.38633,-0.42252 -0.335,-0.56255 -0.20411,-1.1205 0.13215,-0.56286 0.67294,-0.8849 0.24242,-0.14436 0.49501,-0.17268 0.25569,-0.03017 0.5681,0.049034 L 21.2106,6.645115 Z m -1.545,6.6957 -2.5525,-3.4841 -0.47856,0.3506 -0.27578,-0.37643 1.3744,-1.0069 0.27578,0.37643 -0.47856,0.3506 2.5525,3.4841 0.47856,-0.3506 0.28433,0.3881 -1.3744,1.0069 -0.28433,-0.3881 z m -2.119,1.26 -2.7501,-2.9157 -0.43156,0.40705 -0.32018,-0.33946 1.2342,-1.1641 0.32018,0.33946 -0.43156,0.40705 3.2937,3.492 -0.45262,0.42691 -5.1307,-1.3117 2.7402,2.9052 0.43156,-0.40705 0.33011,0.34999 -1.2394,1.169 -0.33011,-0.34999 0.43156,-0.40705 -2.9635,-3.142 -0.43156,0.40705 -0.32018,-0.33946 0.88944,-0.83893 z m -5.739,6.916 -3.4511,-2.5971 -0.35671,0.47402 -0.37286,-0.28059 1.0245,-1.3614 0.37286,0.28059 -0.35671,0.47402 1.4856,1.118 1.516,-2.0146 -1.4856,-1.118 -0.36106,0.4798 -0.37286,-0.28059 1.0245,-1.3614 0.37286,0.28059 -0.35672,0.47402 3.4511,2.5971 0.35672,-0.47402 0.38442,0.28929 -1.0245,1.3614 -0.38442,-0.28929 0.36106,-0.4798 -1.5868,-1.1941 -1.516,2.0146 1.5868,1.1941 0.35672,-0.47402 0.38442,0.28929 -1.0245,1.3614 -0.38442,-0.28929 z m -4.8736,-0.383 -0.40117,-0.2086 0.21528,-0.41401 1.1746,0.6108 -0.16355,0.31452 q -0.60387,0.12633 -0.99503,0.40811 -0.39436,0.28012 -0.64469,0.76152 -0.4072,0.78309 -0.11822,1.6387 0.28898,0.85562 1.0849,1.2695 0.84407,0.43891 1.7169,0.18741 0.86961,-0.25316 1.2768,-1.0363 0.252,-0.48462 0.25173,-0.97809 -2.7e-4,-0.49347 -0.25124,-0.99092 l 0.29372,-0.56485 q 0.43802,0.74149 0.47436,1.4087 0.0348,0.66229 -0.32568,1.3555 -0.52235,1.0045 -1.5839,1.321 Q 8.23151,26.31878 7.18841,25.7764 6.69737,25.52107 6.35448,25.10629 6.01159,24.69151 5.8438,24.1517 5.68525,23.64116 5.73044,23.1387 5.774083,22.63136 6.02441,22.14995 6.23969,21.73594 6.54368,21.44144 6.84767,21.14694 7.29133,20.921 Z m 0.6666,6.685 0.15592,-0.45514 1.2491,0.42789 -1.1747,3.429 -0.45514,-0.15592 0.19226,-0.56123 -4.086,-1.3997 -0.19226,0.56123 -0.44145,-0.15123 1.1747,-3.429 1.2525,0.42906 -0.15592,0.45514 -0.76313,-0.26142 -0.66118,1.9301 1.7453,0.59788 0.66821,-1.9506 0.49279,0.16881 -0.66821,1.9506 1.7727,0.60725 0.66118,-1.9301 z m -0.4864,6.736 -0.47178,-0.09426 0.11623,-0.58175 -4.1857,-0.83631 -0.21687,1.0855 0.79103,0.15805 -0.094262,0.47178 -1.2983,-0.2594 0.72433,-3.6253 1.2983,0.2594 -0.094262,0.47178 -0.79103,-0.15805 -0.219,1.0961 4.1857,0.83631 0.11623,-0.58175 0.47178,0.09426 z m 64.1924,25.724 -3.2797,-2.2663 -0.33545,0.48544 -0.38184,-0.26386 0.9593,-1.3882 0.38184,0.26386 -0.33545,0.48544 3.9279,2.7143 -0.35181,0.50912 -5.2631,-0.21247 3.2679,2.2581 0.33545,-0.48544 0.39368,0.27204 -0.96339,1.3942 -0.39368,-0.27204 0.33545,-0.48544 -3.5343,-2.4422 -0.33545,0.48544 -0.38184,-0.26386 0.69135,-1.0005 z m -3.401,3.742 0.32156,-0.35438 0.97255,0.88249 -2.4226,2.6699 -0.35438,-0.32156 0.39652,-0.43698 -3.1814,-2.8868 -0.39652,0.43698 -0.34372,-0.31189 2.4226,-2.6699 0.97522,0.88491 -0.32156,0.35438 -0.59419,-0.53916 -1.3636,1.5028 1.3589,1.2331 1.3781,-1.5188 0.38369,0.34816 -1.3781,1.5188 1.3802,1.2524 1.3636,-1.5028 z m -3.733,4.905 0.44244,-0.39041 0.31662,0.35881 -1.2707,1.1212 -0.31661,-0.35881 0.44244,-0.39041 -2.8424,-3.2212 -0.44244,0.39041 -0.30709,-0.34802 2.7032,-2.3853 0.87129,0.98741 -0.35881,0.31662 -0.53087,-0.60162 -1.5216,1.3426 1.2141,1.3759 1.5378,-1.3569 0.3428,0.38849 -1.5324,1.3522 z m -3.292,0.464 -2.1861,-1.5098 0.63543,2.5758 z m -1.1266,2.8134 0.44475,-0.30572 0.27108,0.39434 -1.3965,0.95998 -0.27108,-0.39435 0.4833,-0.33222 -1.0548,-4.488 -0.48626,0.33426 -0.26292,-0.38249 1.1415,-0.78469 4.2086,2.8832 0.48626,-0.33426 0.27108,0.39435 -1.3906,0.9559 -0.27108,-0.39435 0.43882,-0.30165 -1.0251,-0.70997 -1.8828,1.2942 z m -4.7054,2.5156 -1.9287,-3.8387 -0.52726,0.26492 -0.20838,-0.41473 1.5143,-0.76082 0.20838,0.41473 -0.52726,0.26492 0.83028,1.6525 2.2408,-1.1259 -0.83028,-1.6525 -0.53368,0.26815 -0.20838,-0.41473 1.5143,-0.76082 0.20838,0.41473 -0.52726,0.26492 1.9287,3.8387 0.52726,-0.26492 0.21484,0.42759 -1.5143,0.76082 -0.21484,-0.42759 0.53369,-0.26815 -0.88682,-1.765 -2.2408,1.1259 0.88682,1.765 0.52726,-0.26492 0.21484,0.42759 -1.5143,0.76082 -0.21484,-0.42759 z m -3.01,-3.91 0.45326,1.2632 -0.38945,0.13975 q -0.293,-0.42238 -0.6047,-0.56665 -0.31292,-0.14765 -0.65496,-0.02492 -0.37252,0.13367 -0.524,0.47854 -0.15269,0.34148 -0.0093,0.7411 0.06076,0.16933 0.16381,0.29672 0.10644,0.12618 0.2457,0.19471 0.26134,0.13176 0.89921,0.05578 0.20206,-0.02281 0.29861,-0.0307 0.62145,-0.04716 1.0434,0.19134 0.42075,0.2351 0.59817,0.72954 0.2321,0.64683 -0.01805,1.2068 -0.25015,0.55994 -0.85295,0.77624 -0.34882,0.12516 -0.66201,0.11522 -0.31441,-0.01333 -0.5431,-0.16062 l 0.11423,0.31834 -0.41655,0.14947 -0.48972,-1.3648 0.41655,-0.14947 q 0.20234,0.48932 0.5637,0.66546 0.36136,0.17614 0.82194,0.01087 0.44702,-0.1604 0.61709,-0.5387 0.17345,-0.37951 0.007,-0.84347 -0.11666,-0.32511 -0.4037,-0.48587 -0.28365,-0.16198 -0.70886,-0.14319 -0.12052,0.005 -0.36686,0.03225 -0.65966,0.06851 -0.99794,-0.04328 -0.29009,-0.09468 -0.47988,-0.2827 -0.191,-0.1914 -0.29672,-0.48603 -0.21995,-0.61296 0.01404,-1.1327 0.23616,-0.52434 0.82542,-0.73578 0.26415,-0.09478 0.51613,-0.07435 0.25537,0.01922 0.54528,0.15602 l -0.11423,-0.31834 z m -5.728,6.594 -0.95403,-4.1887 -0.57533,0.13104 -0.10307,-0.45255 1.6523,-0.37634 0.10307,0.45255 -0.57533,0.13104 0.4107,1.8032 2.4452,-0.55692 -0.4107,-1.8032 -0.58235,0.13264 -0.10307,-0.45255 1.6523,-0.37634 0.10307,0.45255 -0.57533,0.13104 0.95403,4.1887 0.57533,-0.13104 0.10627,0.46658 -1.6523,0.37634 -0.10627,-0.46658 0.58235,-0.13264 -0.43866,-1.926 -2.4452,0.55692 0.43866,1.926 0.57533,-0.13104 0.10627,0.46658 -1.6523,0.37634 -0.10627,-0.46658 z m -2.098,-4.021 -0.03775,-0.44816 0.4625,-0.03896 0.11053,1.3122 -0.35136,0.0296 q -0.42707,-0.44064 -0.87184,-0.61982 -0.44507,-0.18276 -0.98286,-0.13746 -0.87481,0.07369 -1.4407,0.77128 -0.56589,0.69759 -0.491,1.5867 0.07942,0.94293 0.75464,1.5432 0.67491,0.59669 1.5497,0.523 0.54138,-0.0456 0.95617,-0.30802 0.41479,-0.26241 0.69972,-0.73775 l 0.63101,-0.05315 q -0.39074,0.76228 -0.93241,1.1473 -0.53839,0.38115 -1.3128,0.44638 -1.1222,0.09452 -1.9523,-0.62991 -0.8304,-0.72802 -0.92855,-1.8932 -0.04621,-0.54855 0.12037,-1.0572 0.16657,-0.5087 0.53132,-0.9366 0.34505,-0.40458 0.79154,-0.63355 0.44978,-0.23286 0.98757,-0.27816 0.4625,-0.03896 0.87164,0.06018 0.40914,0.09913 0.83485,0.35213 z m -5.625,4.578 0.07169,-4.2954 -0.58998,-0.0098 0.0077,-0.46407 1.6944,0.02828 -0.0077,0.46407 -0.58998,-0.0098 -0.07169,4.2954 0.58998,0.0098 -0.008,0.47846 -1.6944,-0.02828 0.008,-0.47846 z m -3.677,-4.541 -0.47253,4.2192 0.5864,0.06567 -0.05326,0.47556 -1.6841,-0.18861 0.05326,-0.47556 0.5864,0.06567 0.47813,-4.2693 -0.5864,-0.06567 0.05166,-0.46125 1.9916,0.22305 q 0.46483,0.05206 0.73572,0.1548 0.27486,0.09957 0.48568,0.2861 0.28665,0.25295 0.42459,0.63769 0.14151,0.38514 0.09586,0.79276 -0.06767,0.60428 -0.47767,1.0001 -0.40999,0.39578 -0.95074,0.37504 l 0.79797,1.6679 0.5864,0.06567 -0.05326,0.47556 -0.90821,-0.10171 -1.2636,-2.6831 0.48986,0.05486 q 0.49343,0.05526 0.83337,-0.19992 0.34352,-0.25479 0.39437,-0.70889 0.06247,-0.5578 -0.2404,-0.89221 -0.30287,-0.33442 -0.93933,-0.4057 z m -5.71,3.106 1.1722,0.29588 q 0.8512,0.21486 1.5032,-0.22172 0.65286,-0.44007 0.89326,-1.3924 0.23336,-0.92446 -0.1656,-1.6226 -0.39458,-0.70076 -1.2876,-0.92618 l -1.071,-0.27034 z m -0.50587,-0.11285 1.0514,-4.1653 -0.57212,-0.14442 0.1136,-0.45002 1.9815,0.50017 q 0.62096,0.15674 0.99742,0.38536 0.37734,0.22513 0.64179,0.58875 0.34185,0.48335 0.44176,1.0578 0.10341,0.5753 -0.04717,1.1718 -0.16907,0.6698 -0.56632,1.141 -0.39637,0.4677 -0.99643,0.71329 -0.38083,0.15621 -0.76568,0.16667 -0.38049,0.0079 -1.0747,-0.16738 L 28.36288,76.51871 28.48,76.05473 Z M 27.728,74.868 l 0.44507,0.17578 -0.48242,1.2214 -3.3531,-1.3243 0.17579,-0.44507 0.54881,0.21676 1.5781,-3.9956 -0.54881,-0.21676 0.1705,-0.43169 3.3531,1.3243 -0.48374,1.2248 -0.44507,-0.17579 0.29474,-0.74625 -1.8874,-0.74544 -0.67406,1.7067 1.9075,0.75337 -0.19032,0.48188 -1.9075,-0.75337 -0.68464,1.7334 1.8874,0.74544 z m -4.783,-1.171 1.9213,-3.8424 -0.52776,-0.2639 0.20758,-0.41513 1.5157,0.75792 -0.20758,0.41513 -0.52776,-0.2639 -1.9213,3.8424 0.52776,0.2639 -0.21402,0.428 -1.5157,-0.75792 0.21402,-0.428 z m -1.364,-5.686 -2.2421,3.6053 0.50107,0.31162 -0.25271,0.40636 -1.4391,-0.89495 0.25271,-0.40636 0.50107,0.31162 2.2687,-3.6481 -0.50107,-0.31162 0.24511,-0.39414 1.7018,1.0584 q 0.39719,0.24701 0.5975,0.45633 0.20527,0.20816 0.3153,0.46726 0.14991,0.35168 0.10886,0.75833 -0.03799,0.40855 -0.2546,0.75686 -0.32112,0.51635 -0.86152,0.69719 -0.5404,0.18084 -1.0196,-0.07057 l 0.0026,1.8489 0.50107,0.31162 -0.25271,0.40636 -0.77605,-0.48262 0.01397,-2.9657 0.41858,0.26031 q 0.42163,0.26221 0.8383,0.17814 0.41972,-0.08217 0.66103,-0.4702 0.29642,-0.47663 0.16692,-0.90883 -0.12949,-0.4322 -0.67334,-0.77042 z m -5.564,1.154 0.4618,0.36731 -0.29788,0.37451 -1.3263,-1.0549 0.29788,-0.37451 0.4618,0.36731 2.6742,-3.3622 -0.4618,-0.36731 0.28892,-0.36325 2.8215,2.2442 -0.81973,1.0306 -0.37451,-0.29788 0.49945,-0.62794 -1.5882,-1.2632 -1.1422,1.4361 1.605,1.2766 -0.32252,0.40549 -1.5994,-1.2721 z m -2.334,-8.403 -0.35459,-0.39727 0.34627,-0.30907 1.0398,1.165 -0.34627,0.30907 -0.30428,-0.3409 -1.9884,3.6942 3.8931,-1.5602 -0.30428,-0.3409 0.34627,-0.30907 1.0494,1.1757 -0.34627,0.30907 -0.36178,-0.40532 -4.7408,1.8587 -0.30428,-0.3409 z M 9.1919,57.964 q -0.79554,0.53205 -0.98286,1.4105 -0.18731,0.87842 0.32073,1.6381 0.49805,0.7447 1.3794,0.8911 0.88336,0.14939 1.6789,-0.38266 0.74171,-0.49605 0.92502,-1.3805 0.1863,-0.88641 -0.30974,-1.6281 -0.20202,-0.30207 -0.49471,-0.51319 -0.2877,-0.21014 -0.6441,-0.3094 Q 10.59133,57.55184 10.0865,57.62542 9.58666,57.7 9.19188,57.96402 Z M 8.90385,57.52036 q 0.4546,-0.30403 0.98333,-0.40659 0.52874,-0.10256 1.0767,0.01139 0.52805,0.10999 0.94458,0.38979 0.41653,0.2798 0.71456,0.72542 0.30603,0.45759 0.40455,0.9544 0.10351,0.4978 0.0025,1.0328 -0.10397,0.55 -0.39572,0.9875 -0.28974,0.4405 -0.7563,0.75253 -0.46357,0.31003 -0.94838,0.4265 -0.48182,0.11447 -0.99286,0.03638 -0.58688,-0.08795 -1.0523,-0.38264 -0.46545,-0.2947 -0.79348,-0.78518 -0.62606,-0.93611 -0.39413,-2.0132 0.23492,-1.0791 1.2069,-1.7291 z"
       inkscape:label="außen" />
  </g>
  <metadata
     id="metadata218">
    <rdf:RDF>
      <cc:Work
         rdf:about="">
        <cc:license
           rdf:resource="http://creativecommons.org/licenses/by/4.0/" />
        <dc:creator>
          <cc:Agent>
            <dc:title>L3D &lt;l3d@c3woc.de&gt;</dc:title>
          </cc:Agent>
        </dc:creator>
        <dc:title>THW Patch OV FN</dc:title>
        <dc:contributor>
          <cc:Agent>
            <dc:title>THW OV Friedrichshafen and Lilian Roller</dc:title>
          </cc:Agent>
        </dc:contributor>
      </cc:Work>
      <cc:License
         rdf:about="http://creativecommons.org/licenses/by/4.0/">
        <cc:permits
           rdf:resource="http://creativecommons.org/ns#Reproduction" />
        <cc:permits
           rdf:resource="http://creativecommons.org/ns#Distribution" />
        <cc:requires
           rdf:resource="http://creativecommons.org/ns#Notice" />
        <cc:requires
           rdf:resource="http://creativecommons.org/ns#Attribution" />
        <cc:permits
           rdf:resource="http://creativecommons.org/ns#DerivativeWorks" />
      </cc:License>
    </rdf:RDF>
  </metadata>
  <g
     transform="matrix(0.69289001,-0.078078,0.078078,0.69289001,-35.252001,-266.34001)"
     fill-rule="evenodd"
     id="g1229"
     style="display:inline"
     inkscape:label="zeppelin">
    <path
       id="path1225"
       style="display:inline;fill:#999999;fill-opacity:1"
       d="M 47.706092 428.7858 C 33.852854 427.64276 21.415505 430.04603 16.800382 437.13921 C 16.770412 437.18531 16.853673 438.46184 16.824363 438.50824 C 16.837753 438.58414 16.207363 440.33963 16.221653 440.41523 C 18.054999 450.10942 27.254768 456.93922 38.917818 461.10114 L 36.582911 455.99623 L 33.677582 455.66885 L 34.219739 450.85756 L 43.878394 451.94594 L 43.336237 456.75723 L 42.210192 456.63034 L 45.109153 463.00404 C 46.545469 463.38189 48.002214 463.72668 49.474699 464.03369 L 57.538229 453.4852 L 63.211901 465.87253 C 64.546505 465.95633 65.873384 466.01283 67.187411 466.04158 L 71.834976 459.96859 L 70.709668 459.84179 L 71.251825 455.03051 L 80.883231 456.11582 L 80.341073 460.9271 L 77.462257 460.6027 L 73.353744 465.96899 C 85.69177 465.39838 95.925019 462.22827 98.81682 456.65995 C 96.67501 447.05887 85.693909 439.21332 72.34617 434.26592 L 72.192228 435.63205 L 70.992164 435.4737 L 68.819053 454.75861 L 70.02169 454.89413 L 69.476794 459.72971 L 61.443503 458.82449 L 61.988399 453.9889 L 63.191036 454.12442 L 63.732862 449.31608 L 52.479038 448.04795 L 51.937212 452.85628 L 53.142795 452.99214 L 52.597899 457.82772 L 44.535886 456.91926 L 45.080782 452.08367 L 46.306861 452.24943 L 48.480553 432.95937 L 47.251404 432.82086 L 47.706092 428.7858 z M 55.753748 429.82167 L 55.313333 433.73006 L 54.10775 433.59421 L 53.023768 443.21383 L 64.277592 444.48196 L 65.361575 434.86234 L 64.158938 434.72682 L 64.493211 431.76037 C 63.962166 431.61644 63.429745 431.47736 62.895793 431.34245 L 62.311229 436.53006 L 63.514602 436.66567 L 62.969707 441.50125 L 54.934206 440.59578 L 55.479102 435.76019 L 56.683949 435.89596 L 57.335982 430.1096 C 56.808387 430.00888 56.281132 429.91321 55.753748 429.82167 z M 56.507066 462.87435 L 54.882294 464.99581 C 55.802343 465.13231 56.723821 465.25374 57.645808 465.3639 L 56.507066 462.87435 z "
       inkscape:label="grey" />
    <path
       id="path1227"
       style="display:inline"
       d="M 87.519226 436.42094 C 87.132801 436.37973 86.870098 436.37304 86.799675 436.41294 C 86.424021 436.62577 84.759319 440.1045 84.759319 440.1045 L 94.438964 447.90977 C 94.438964 447.90977 94.818312 438.43327 93.919876 437.87607 C 93.246057 437.45803 89.789285 436.72422 87.944402 436.47332 C 87.790662 436.45242 87.648035 436.43467 87.519226 436.42094 z M 46.627867 434.64794 C 42.618726 434.19478 38.714951 433.98294 35.040898 434.0396 L 35.040815 434.04033 C 28.638672 434.13903 22.934261 435.05523 18.580468 436.92886 A 1.5269001 3.0813 6.4292 0 0 17.703248 436.10284 A 1.5269001 3.0813 6.4292 0 0 15.841082 438.99409 A 1.5269001 3.0813 6.4292 0 0 17.013207 442.2265 A 1.5269001 3.0813 6.4292 0 0 17.923257 441.78162 C 20.50876 444.33661 24.655724 446.70162 29.794932 448.83154 C 31.638732 449.59569 33.614108 450.32738 35.688238 451.02304 L 38.941912 451.38968 C 35.746914 450.41823 32.749319 449.36327 30.039089 448.24003 C 24.885988 446.10435 20.774616 443.71166 18.297144 441.2368 A 1.5269001 3.0813 6.4292 0 0 18.870084 439.36897 C 25.617351 440.29455 35.929796 441.94945 47.227442 444.07989 L 47.300056 443.43549 C 35.977362 441.30291 25.650111 439.64951 18.896374 438.72531 A 1.5269001 3.0813 6.4292 0 0 18.793051 437.53753 C 25.458676 434.66679 35.597897 434.0749 46.553116 435.29806 C 47.098287 435.35893 47.645944 435.42518 48.194827 435.49499 L 48.267773 434.84765 C 47.719589 434.77725 47.172389 434.71023 46.627784 434.64867 L 46.627867 434.64794 z M 53.86941 435.70932 L 53.796962 436.35225 C 54.324076 436.44612 54.851464 436.54398 55.379351 436.64541 L 55.4518 436.00248 C 54.923954 435.90096 54.39647 435.80343 53.86941 435.70932 z M 63.386636 437.80129 L 63.313524 438.45011 C 63.846733 438.59065 64.378025 438.73568 64.908463 438.88341 L 64.982073 438.23017 C 64.451432 438.08353 63.91982 437.94087 63.386636 437.80129 z M 70.493492 439.89908 L 70.418554 440.5641 C 81.677203 444.31344 91.733499 449.65023 97.62511 455.91783 C 90.108794 453.15047 80.107471 450.46758 69.574654 448.05315 L 69.501625 448.70124 C 80.015835 451.11226 89.984108 453.78648 97.441478 456.5348 C 92.702262 457.54795 86.938347 457.97171 80.682733 457.8951 L 80.603978 458.594 C 87.504855 458.70391 93.833978 458.20853 98.892776 456.97205 A 0.321235 0.321235 0 0 0 98.927836 456.95214 A 0.321235 0.321235 0 0 0 98.969036 456.93068 A 0.321235 0.321235 0 0 0 99.005735 456.90946 A 0.321235 0.321235 0 0 0 99.025796 456.90351 A 0.321235 0.321235 0 0 0 99.029406 456.89795 A 0.321235 0.321235 0 0 0 99.080263 456.82388 A 0.321235 0.321235 0 0 0 99.097493 456.79674 A 0.321235 0.321235 0 0 0 99.105366 456.78644 A 0.321235 0.321235 0 0 0 99.117087 456.77508 A 0.321235 0.321235 0 0 0 99.117014 456.76911 A 0.321235 0.321235 0 0 0 99.118912 456.75888 A 0.321235 0.321235 0 0 0 99.119161 456.75667 A 0.321235 0.321235 0 0 0 99.127045 456.6867 A 0.321235 0.321235 0 0 0 99.1269 456.67476 A 0.321235 0.321235 0 0 0 99.132824 456.60233 A 0.321235 0.321235 0 0 0 99.129235 456.59447 A 0.321235 0.321235 0 0 0 99.128747 456.59218 A 0.321235 0.321235 0 0 0 99.12909 456.58252 A 0.321235 0.321235 0 0 0 99.115367 456.56531 A 0.321235 0.321235 0 0 0 99.115616 456.5631 A 0.321235 0.321235 0 0 0 99.109496 456.55123 A 0.321235 0.321235 0 0 0 99.062509 456.45196 A 0.321235 0.321235 0 0 0 99.060465 456.45024 C 93.169847 449.57817 82.475791 443.84889 70.493492 439.89908 z M 103.17837 452.36408 L 97.692935 452.50966 L 98.473938 454.52708 C 98.473938 454.52708 98.689266 454.40747 98.943033 454.38827 C 99.196781 454.36907 99.658117 455.21689 99.658117 455.21689 L 108.85648 453.88397 L 103.17837 452.36408 z M 43.786859 452.75826 L 43.714162 453.40339 C 44.10699 453.50633 44.500803 453.60865 44.897629 453.70904 L 44.97016 453.06537 C 44.57325 452.96475 44.179674 452.86141 43.786859 452.75826 z M 52.932504 454.85832 L 52.860305 455.49904 C 53.769548 455.67946 54.682708 455.85393 55.600583 456.02038 L 56.040648 455.44424 C 54.999635 455.25831 53.963273 455.06309 52.932504 454.85832 z M 58.639049 455.88769 L 58.962868 456.59466 C 59.85675 456.73845 60.752156 456.87655 61.6484 457.00617 L 61.721346 456.35882 C 60.692671 456.21163 59.664967 456.05415 58.639049 455.88769 z M 70.983277 457.41369 C 70.57298 457.37917 70.162073 457.34183 69.750155 457.30382 L 69.675051 457.97031 C 70.08699 458.00941 70.497653 458.04526 70.908091 458.08092 L 70.983277 457.41369 z M 94.036455 461.29049 L 84.926248 464.72012 C 84.926248 464.72012 86.693293 470.23212 87.34189 470.48522 C 87.990482 470.73836 93.394654 469.93261 93.779154 469.44452 C 94.16366 468.95649 94.036455 461.29049 94.036455 461.29049 z M 51.151552 461.84053 C 50.006262 462.05836 49.661168 462.85544 49.661168 462.85544 C 49.661168 462.85544 49.666804 463.22171 49.685381 463.75911 L 51.151552 461.84053 z M 62.020217 463.27036 L 64.749102 469.22737 L 68.486114 464.34502 C 68.436435 464.33655 65.47998 463.83257 62.020217 463.27036 z M 56.507066 462.87435 L 50.744177 470.39978 C 50.762578 470.4234 50.780693 470.44914 50.799722 470.46944 C 51.399873 471.10982 56.142559 471.16523 60.266362 471.09093 L 56.507066 462.87435 z "
       inkscape:label="black" />
  </g>
</svg>
