<?xml version="1.0" encoding="UTF-8" standalone="no"?>
<svg
   xmlns:dc="http://purl.org/dc/elements/1.1/"
   xmlns:cc="http://creativecommons.org/ns#"
   xmlns:rdf="http://www.w3.org/1999/02/22-rdf-syntax-ns#"
   xmlns:svg="http://www.w3.org/2000/svg"
   xmlns="http://www.w3.org/2000/svg"
   xmlns:sodipodi="http://sodipodi.sourceforge.net/DTD/sodipodi-0.dtd"
   xmlns:inkscape="http://www.inkscape.org/namespaces/inkscape"
   width="1024"
   height="1024"
   version="1.1"
   viewBox="0 0 270.93 270.93"
   id="svg137"
   sodipodi:docname="thw_ov_fn_patch_entwurf4.6.svg"
   inkscape:version="0.92.5 (2060ec1f9f, 2020-04-08)"
   inkscape:export-filename="/home/lilian/git/do1jlr/thw__ov_fn__patch/thw_ov_fn_patch_entwurf4.6.png"
   inkscape:export-xdpi="96"
   inkscape:export-ydpi="96">
  <sodipodi:namedview
     pagecolor="#ffffff"
     bordercolor="#666666"
     borderopacity="1"
     objecttolerance="10"
     gridtolerance="10"
     guidetolerance="10"
     inkscape:pageopacity="0"
     inkscape:pageshadow="2"
     inkscape:window-width="1916"
     inkscape:window-height="1032"
     id="namedview139"
     showgrid="false"
     inkscape:zoom="0.35355339"
     inkscape:cx="105.62653"
     inkscape:cy="440.17348"
     inkscape:window-x="0"
     inkscape:window-y="46"
     inkscape:window-maximized="0"
     inkscape:current-layer="g39" />
  <title
     id="title2">THW OV FN Patch</title>
  <defs
     id="defs11">
    <linearGradient
       id="l3d_a"
       x1="18.599"
       x2="24.324"
       y1="426.45"
       y2="426.49"
       gradientTransform="matrix(1.1385,0,0,1.1385,-5.4402,-45.814)"
       gradientUnits="userSpaceOnUse">
      <stop
         stop-color="#505050"
         offset="0"
         id="stop4" />
      <stop
         stop-color="#505050"
         stop-opacity="0"
         offset="1"
         id="stop6" />
    </linearGradient>
    <style
       type="text/css"
       id="style9"><![CDATA[
    .fil0 {fill:#0061A5}
    .fil3 {fill:#1F1A17}
    .fil2 {fill:#F6BB00}
    .fil1 {fill:white}
   ]]></style>
    <style
       id="style1194"
       type="text/css" />
    <style
       id="style1196"
       type="text/css" />
    <style
       id="style1198"
       type="text/css" />
    <style
       id="style1200"
       type="text/css" />
    <style
       id="style1202"
       type="text/css" />
    <style
       id="style1204"
       type="text/css" />
    <style
       id="style1206"
       type="text/css" />
    <style
       id="style1208"
       type="text/css" />
    <style
       id="style1210"
       type="text/css" />
    <style
       id="style1212"
       type="text/css" />
    <style
       id="style1214"
       type="text/css" />
    <style
       id="style1216"
       type="text/css" />
    <style
       id="style1218"
       type="text/css" />
    <style
       id="style1220"
       type="text/css" />
    <style
       id="style1222"
       type="text/css" />
    <style
       id="style1224"
       type="text/css" />
    <style
       id="style1226"
       type="text/css" />
    <style
       id="style1228"
       type="text/css" />
    <style
       id="style1230"
       type="text/css" />
    <style
       id="style1232"
       type="text/css" />
    <style
       id="style1234"
       type="text/css" />
    <style
       id="style1236"
       type="text/css" />
    <style
       id="style1238"
       type="text/css" />
    <style
       id="style1240"
       type="text/css" />
    <style
       id="style1242"
       type="text/css" />
    <style
       id="style1244"
       type="text/css" />
    <style
       id="style1246"
       type="text/css" />
    <style
       id="style1248"
       type="text/css" />
    <style
       id="style1250"
       type="text/css" />
    <style
       id="style1252"
       type="text/css" />
    <style
       id="style1254"
       type="text/css" />
    <style
       id="style1256"
       type="text/css" />
    <style
       id="style1258"
       type="text/css" />
    <style
       id="style1260"
       type="text/css" />
  </defs>
  <circle
     cx="135.53999"
     cy="135.2"
     r="107.79448"
     stop-color="#000000"
     style="fill:none;fill-rule:evenodd;stroke:#000080;stroke-width:49.03338623;stroke-linecap:round;stroke-linejoin:round;stroke-miterlimit:4;stroke-dasharray:none;paint-order:markers fill stroke"
     id="circle13" />
  <circle
     cx="135.53999"
     cy="135.2"
     r="107.79448"
     stop-color="#000000"
     style="fill:#000080;fill-opacity:1;stroke:#f2f2f2;stroke-width:34.65676117;stroke-linecap:round;stroke-linejoin:round;paint-order:markers fill stroke"
     id="circle31" />
  <path
     style="fill:#ffffff;stroke-width:0;stroke-miterlimit:10"
     inkscape:connector-curvature="0"
     id="path83"
     d="m 159.06669,185.16881 c -2.65913,5.12759 -5.3181,10.25519 -7.97723,15.38299 -1.70952,-3.15276 -3.41911,-6.30532 -5.12859,-9.45808 -6.40714,1.61699 -13.11607,1.63467 -19.55722,0.0444 -1.64541,3.16038 -3.2909,6.32058 -4.93625,9.48096 -2.92302,-5.14711 -5.4993,-10.68318 -8.6362,-15.59051 -14.034808,-9.16007 -22.870183,-27.42855 -22.204979,-45.72644 0.181561,-17.8744 9.507429,-34.86758 23.356389,-43.068827 l -0.11904,-11.347526 42.40014,-0.09645 0.11904,11.347526 c 14.15091,8.173767 23.77236,25.331547 24.31554,43.316547 0.79469,22.49049 -8.75652,36.72672 -21.63195,45.71611 z m 46.81693,-52.16834 c -2.98976,-0.54883 -8.92567,-1.13652 -14.57399,-2.2867 -0.62471,-4.16409 -1.69099,-8.24033 -3.01314,-12.19073 3.75408,-3.56017 7.50816,-7.12054 11.26224,-10.6807 -1.85604,-4.64971 -4.22954,-9.012311 -6.82843,-13.172906 -4.58922,1.961029 -9.1786,3.922069 -13.76783,5.883196 -2.40808,-3.271421 -5.09732,-6.276282 -8.01491,-8.956075 1.66633,-5.226182 3.33275,-10.452363 4.99894,-15.678545 -3.68894,-2.923151 -7.60538,-5.492423 -11.71548,-7.557823 -3.09107,4.303399 -6.18215,8.606598 -9.27321,12.909996 -3.50049,-1.468573 -7.11875,-2.564388 -10.79613,-3.243338 -0.87446,-5.502131 -1.7489,-11.004462 -2.6233,-16.506593 -4.47307,-0.450857 -8.9711,-0.439764 -13.4345,0.03056 -0.75938,5.505847 -1.51878,11.011895 -2.27809,16.517743 -3.66183,0.703007 -7.25755,1.806969 -10.72757,3.292299 -3.18085,-4.289132 -6.36153,-8.578064 -9.54222,-12.867195 -4.07537,2.069013 -7.914773,4.691944 -11.556351,7.610759 1.775904,5.218352 3.551706,10.436704 5.327643,15.655055 -2.835709,2.704286 -5.50539,5.66611 -7.78236,8.992017 -4.643719,-1.940036 -9.287439,-3.880067 -13.930983,-5.820194 -2.521598,4.166242 -4.789416,8.549404 -6.556854,13.203354 3.828949,3.54291 7.658077,7.08603 11.487027,10.62895 -1.263214,3.95108 -2.185332,8.04305 -2.758625,12.20386 -4.847067,0.93567 -9.694132,1.87135 -14.541374,2.80694 -0.328936,5.06167 -0.275847,10.15768 0.159638,15.21741 4.866486,0.9155 9.732971,1.83101 14.599633,2.74646 0.658816,4.15621 1.662356,8.24439 3.014476,12.18493 -3.754412,3.56217 -7.509001,7.12433 -11.263414,10.6865 1.879323,4.63284 4.205214,9.03017 6.833479,13.16569 4.60282,-1.95868 9.20564,-3.91733 13.808283,-5.87608 2.35536,3.30596 5.075192,6.26773 7.970622,8.95477 -1.666342,5.22478 -3.332582,10.44957 -4.998971,15.67435 3.703169,2.9011 7.595171,5.51105 11.715481,7.55781 3.09054,-4.30378 6.18125,-8.60759 9.27179,-12.91139 3.49622,1.4832 7.11823,2.5822 10.7962,3.25054 0.87485,5.50034 1.74971,11.00067 2.62448,16.50099 4.47345,0.45418 8.97096,0.44363 13.4345,-0.0306 0.75899,-5.50404 1.51797,-11.00809 2.2769,-16.51213 3.66422,-0.67742 7.2629,-1.80148 10.7275,-3.2995 3.18122,4.28953 6.36243,8.57906 9.54364,12.86859 4.06838,-2.08021 7.92804,-4.67217 11.55636,-7.61076 -1.77589,-5.21695 -3.55168,-10.43391 -5.32759,-15.65085 2.86443,-2.68875 5.47892,-5.71768 7.82664,-8.99072 4.63011,1.93768 9.2604,3.87532 13.89051,5.81308 2.53144,-4.15305 4.77864,-8.55098 6.55181,-13.19613 -3.82861,-3.54492 -7.65723,-7.08984 -11.48585,-10.63476 1.24579,-3.95184 2.22176,-8.03413 2.75728,-12.19805 4.84758,-0.93759 9.69497,-1.87521 14.54255,-2.81276 0.17044,-4.53606 0.0253,-12.67866 -0.18641,-15.67155 z" />
  <g
     transform="matrix(1.8960148,-0.21365135,0.21365135,1.8960148,-70.871016,-698.31926)"
     id="g39"
     style="fill-rule:evenodd">
    <path
       d="m 27.637,430.02 c 2.2771,-0.78274 9.0727,-1.9924 11.136,-1.8857 2.0636,0.10668 8.7169,0.53369 10.638,0.81833 1.9213,0.28463 13.307,2.6329 16.011,3.5223 2.704,0.88948 12.204,4.1628 14.837,5.7638 2.6329,1.6011 4.5541,2.7396 4.5541,2.7396 0,0 1.5299,-3.7714 2.0636,-3.9849 0.53369,-0.21348 4.056,0.71158 4.056,0.71158 0,0 2.0992,0.1779 2.4194,0.92506 0.32021,0.74717 0.60485,7.9698 0.49811,8.29 -0.10674,0.32021 -0.1779,0.64043 -0.1779,0.64043 0,0 2.4194,2.455 2.8819,3.0954 0.46253,0.64043 1.1385,1.8501 1.1385,1.8501 0,0 4.8388,0.0355 5.3725,0.0712 0.53369,0.0355 5.5504,1.0674 5.4792,1.2809 -0.0712,0.21347 -8.8948,1.2097 -9.0727,1.1385 -0.1779,-0.0712 -0.39137,-0.49811 -0.71158,-0.46253 -0.32021,0.0355 0.32021,1.1385 0.03558,2.3126 -0.28463,1.1741 -1.2097,2.2771 -2.2415,3.0242 -1.0318,0.74716 -3.3444,1.779 -3.8426,1.9924 -0.49811,0.21347 -0.8539,0.28463 -0.81832,0.53369 0.03558,0.24905 0.96064,-0.42695 1.2809,-0.46253 0.32021,-0.0355 0.67601,0.39137 0.71158,0.88948 0.03558,0.49811 -0.10674,6.6177 -0.10674,6.6177 0,0 -5.5859,0.88948 -5.835,0.81832 -0.24906,-0.0712 -0.56927,-0.17789 -0.8539,-0.53369 -0.28463,-0.35579 -2.455,-5.5504 -2.455,-5.5504 0,0 -6.938,1.2453 -8.4679,1.352 -1.5299,0.10668 -11.457,0.64043 -12.951,0.49811 -1.494,-0.14232 -15.797,-2.3126 -18.679,-3.2377 -2.8819,-0.92506 -12.915,-4.6253 -16.651,-7.1158 -5.641,-4.3819 -12.257,-8.3102 -11.913,-17.024 2.0124,-4.9024 7.289,-7.0885 11.664,-8.6282 z"
       id="path33"
       inkscape:connector-curvature="0"
       style="fill:#adadad;fill-opacity:1;stroke:#000000;stroke-width:0.542" />
    <path
       d="m 68.518,464.35 c 0,0 -1.4943,6.5466 -1.9924,6.5466 -0.49811,0 -14.659,0.71158 -15.726,-0.42695 -1.0674,-1.1385 -1.1385,-7.614 -1.1385,-7.614 0,0 0.42695,-0.99622 1.9213,-1.0674 1.4943,-0.0712 16.936,2.5617 16.936,2.5617 z"
       id="path35"
       inkscape:connector-curvature="0"
       style="fill:#686868;stroke:#000000;stroke-width:0.22770999" />
    <path
       d="m 17.303,436.26 c 0.9057,-0.95602 1.7108,-1.2076 2.3146,-0.9057 0.6038,0.3019 1.6604,1.107 1.8114,2.5158 0.15095,1.4089 0.10064,3.1448 -0.57864,4.4027 -0.67928,1.2579 -1.4089,1.8617 -2.2391,1.912 -0.83022,0.0503 -1.912,-1.0315 -2.1888,-1.7108 -0.90421,-4.1682 -1.1906,-2.9691 0.88054,-6.2141 z"
       id="path37"
       style="fill:url(#l3d_a)"
       inkscape:connector-curvature="0" />
  </g>
  <g
     transform="matrix(0.54473031,0.03383238,-0.03383238,0.54473031,-156.56588,74.244574)"
     id="g81"
     inkscape:transform-center-x="2.0672314"
     inkscape:transform-center-y="-75.45651"
     style="fill:#000000;fill-opacity:1;stroke-width:1.16949999">
    <path
       d="m 337.56,8.9167 -2.5728,9.8683 27.726,7.2286 -1.5874,6.0884 -27.726,-7.2286 -2.5728,9.8683 -5.002,-1.3041 6.733,-25.825 z"
       style="color:#000000;fill:#000000;fill-opacity:1"
       id="path41"
       inkscape:connector-curvature="0" />
    <path
       d="m 359.56,-4.9745 q -1.0325,-0.44095 -2.0646,-0.52563 -1.0444,-0.11538 -1.9808,0.17144 -0.93638,0.28681 -1.7094,1.0249 -0.78536,0.70739 -1.2906,1.8905 -0.98295,2.3016 -0.24036,4.1957 0.75178,1.8725 3.0048,3.2671 z m -1.1217,11.5 q 1.7545,0.59667 3.2042,0.65625 1.4282,0.050403 2.5763,-0.3749 1.1266,-0.43449 1.9854,-1.314 0.84652,-0.91018 1.3977,-2.2008 0.55118,-1.2906 0.64505,-2.3442 0.10306,-1.0751 0.0313,-1.9196 -0.0625,-0.86603 -0.1432,-1.5109 -0.0715,-0.66638 0.13979,-1.1611 0.28479,-0.66683 0.91733,-0.7782 l 2.5882,-0.70048 q 0.65588,1.3229 0.89722,2.7231 0.21982,1.391 0.1356,2.7793 -0.0966,1.3576 -0.45729,2.6788 -0.35154,1.2996 -0.84762,2.4612 -0.98295,2.3016 -2.581,3.9591 -1.6196,1.6483 -3.7285,2.4771 -2.1304,0.81967 -4.6828,0.72156 -2.5739,-0.10729 -5.4778,-1.3475 -2.2586,-0.96459 -3.9253,-2.5411 -1.6882,-1.5857 -2.5721,-3.5656 -0.89631,-2.0106 -0.92076,-4.3355 -0.0153,-2.3464 1.0412,-4.8202 0.8911,-2.0865 2.3112,-3.5656 1.4201,-1.4791 3.2528,-2.197 1.8111,-0.72712 3.9857,-0.63775 2.1623,0.05867 4.55,1.0784 1.2046,0.51445 1.5246,0.9563 0.29847,0.43267 -0.0139,1.164 z"
       style="color:#000000;fill:#000000;fill-opacity:1"
       id="path43"
       inkscape:connector-curvature="0" />
    <path
       d="m 369.78,-32.045 q 0.14887,0.38894 0.17731,0.70581 0.0404,0.29679 -0.19978,0.6982 -0.22822,0.38135 -0.6652,0.61049 -0.45706,0.21714 -1.0383,0.55074 -0.60135,0.32159 -1.2425,0.89194 -0.64924,0.53827 -1.2618,1.5619 -0.78074,1.3046 -0.88761,2.5763 -0.12693,1.2597 0.35979,2.4506 0.49875,1.1708 1.571,2.2486 1.0522,1.0658 2.6378,2.0147 1.6458,0.98494 3.1345,1.4125 1.5007,0.40747 2.7802,0.27364 1.2594,-0.14584 2.2856,-0.8129 1.0061,-0.67906 1.7148,-1.8632 0.70867,-1.1842 0.86009,-2.0749 0.14336,-0.92278 0.10246,-1.6287 -0.061,-0.71797 -0.12577,-1.2474 -0.0728,-0.56151 0.20341,-1.0231 0.36034,-0.60212 1.0021,-0.62691 l 2.6592,-0.34399 q 0.47092,1.3994 0.55671,2.7592 0.0657,1.3478 -0.15748,2.6317 -0.23124,1.2518 -0.7313,2.4518 -0.48805,1.1799 -1.1367,2.2637 -1.1411,1.9067 -2.8525,3.1722 -1.7315,1.2535 -3.853,1.7012 -2.1215,0.44767 -4.5329,0.01317 -2.4194,-0.46659 -4.9483,-1.98 -2.268,-1.3573 -3.8104,-3.1527 -1.5505,-1.8274 -2.1987,-3.9327 -0.6683,-2.1173 -0.35406,-4.4643 0.31424,-2.347 1.7676,-4.7756 1.3813,-2.3081 3.1569,-3.5898 1.7876,-1.3017 4.0013,-1.8578 z"
       style="color:#000000;fill:#000000;fill-opacity:1"
       id="path45"
       inkscape:connector-curvature="0" />
    <path
       d="m 378.45,-47.077 q -0.12594,-1.9156 0.30607,-3.7376 0.43201,-1.822 1.8679,-3.5787 1.2435,-1.5212 2.7309,-2.269 1.4693,-0.76263 3.0476,-0.77157 1.5749,-0.04185 3.2045,0.62558 1.6263,0.63452 3.1837,1.9076 l 11.826,9.6667 -3.6565,4.4731 -11.826,-9.6667 q -1.7023,-1.3915 -3.2625,-1.3678 -1.5782,0.0089 -2.881,1.6026 -0.94742,1.159 -1.2512,2.6025 -0.30381,1.4434 -0.1385,3.0891 l 13.437,10.984 -3.6564,4.4731 -26.911,-21.998 3.6564,-4.4731 z"
       style="color:#000000;fill:#000000;fill-opacity:1"
       id="path47"
       inkscape:connector-curvature="0" />
    <path
       d="m 399.82,-70.184 q 0.0581,-1.0238 0.24643,-2.0071 0.19021,-1.0163 0.57294,-1.9223 0.38462,-0.939 0.99665,-1.7988 0.59647,-0.87728 1.5039,-1.6872 1.4658,-1.3084 3.0517,-1.8147 1.5704,-0.52382 3.1306,-0.28618 1.5622,0.20462 3.0675,1.1184 1.5072,0.8807 2.8467,2.3814 l 10.171,11.395 -4.3101,3.8472 -10.171,-11.395 q -1.4641,-1.6403 -3.0088,-1.8605 -1.5603,-0.23764 -3.0959,1.133 -1.1168,0.99684 -1.6423,2.3751 -0.52549,1.3783 -0.61921,3.0296 l 11.557,12.948 -4.3101,3.8472 -15.981,-17.904 2.6349,-2.3519 q 0.8376,-0.74764 1.8003,-0.19602 z"
       style="color:#000000;fill:#000000;fill-opacity:1"
       id="path49"
       inkscape:connector-curvature="0" />
    <path
       d="m 421.76,-91.09 13.263,20.001 -4.8345,3.2058 -13.263,-20.001 z m -3.2022,-6.2682 q 0.41364,0.6238 0.52217,1.3377 0.10852,0.71388 -0.0489,1.4076 -0.13791,0.68083 -0.53518,1.3091 -0.4102,0.6088 -1.0535,1.0354 -0.62381,0.41365 -1.3442,0.55458 -0.71387,0.10853 -1.3947,-0.02939 -0.68082,-0.13791 -1.2962,-0.51569 -0.59586,-0.39071 -1.0095,-1.0145 -0.42657,-0.64329 -0.56752,-1.3637 -0.12145,-0.73337 0.0165,-1.4142 0.13791,-0.68083 0.52862,-1.2767 0.39727,-0.62829 1.0211,-1.0419 0.6433,-0.42658 1.3767,-0.54802 0.72044,-0.14094 1.4013,-0.003 0.70031,0.12499 1.3286,0.52226 0.62828,0.39728 1.0549,1.0406 z"
       style="color:#000000;fill:#000000;fill-opacity:1"
       id="path51"
       inkscape:connector-curvature="0" />
    <path
       d="m 446.56,-100.24 q -0.0232,0.44072 -0.16893,0.70863 -0.15704,0.24745 -0.50486,0.44017 -0.36827,0.20404 -0.91128,0.2375 -0.52255,0.02213 -1.211,0.08268 -0.69978,0.0401 -1.5292,0.23226 -0.80898,0.18083 -1.7706,0.71362 -1.4936,0.82753 -2.0014,1.9379 -0.48743,1.099 0.0794,2.122 0.37409,0.67517 1.0645,0.90769 0.69951,0.20072 1.6083,0.15177 0.92927,-0.06028 2.0086,-0.28396 1.0681,-0.24414 2.1906,-0.43825 1.143,-0.20543 2.3017,-0.28589 1.1474,-0.10093 2.2262,0.15702 1.088,0.22616 2.0164,0.88832 0.9489,0.65084 1.6517,1.9193 0.83886,1.514 1.0006,3.109 0.17088,1.5632 -0.37157,3.0939 -0.55379,1.5102 -1.8344,2.915 -1.2715,1.373 -3.3175,2.5066 -1.0844,0.6008 -2.2412,0.97434 -1.125,0.38267 -2.2793,0.56765 -1.1339,0.17363 -2.213,0.15651 -1.0587,-0.02847 -1.9785,-0.2408 l 0.10062,-2.5694 q 0.0324,-0.4725 0.23721,-0.82669 0.20488,-0.35418 0.67545,-0.6149 0.47058,-0.26073 1.0271,-0.22147 0.57703,0.02792 1.2995,0.02874 0.72245,8.24e-4 1.6064,-0.14129 0.90437,-0.15346 2.0501,-0.78827 0.90024,-0.49879 1.4211,-1.0548 0.53002,-0.58781 0.7465,-1.1623 0.23694,-0.58586 0.17169,-1.138 -0.0561,-0.58393 -0.32819,-1.075 -0.4081,-0.73655 -1.1189,-0.95772 -0.69038,-0.23252 -1.6196,-0.17225 -0.9088,0.04895 -1.9973,0.30443 -1.0794,0.22368 -2.2428,0.44046 -1.143,0.20543 -2.3222,0.29724 -1.1701,0.06 -2.2807,-0.20707 -1.0902,-0.2784 -2.0844,-1.0111 -0.97378,-0.74401 -1.7446,-2.1353 -0.71416,-1.289 -0.84882,-2.7386 -0.13467,-1.4496 0.37128,-2.853 0.51509,-1.4352 1.7048,-2.7629 1.1988,-1.3595 3.1425,-2.4364 2.1687,-1.2016 4.3455,-1.4718 2.1768,-0.27014 4.0096,0.23857 z"
       style="color:#000000;fill:#000000;fill-opacity:1"
       id="path53"
       inkscape:connector-curvature="0" />
    <path
       d="m 472.54,-111.02 q -0.11864,0.39921 -0.28895,0.66792 -0.14856,0.2601 -0.5835,0.43236 -0.41319,0.16364 -0.89938,0.0795 -0.49479,-0.10594 -1.159,-0.19508 -0.67286,-0.11089 -1.5287,-0.0487 -0.84275,0.0319 -1.9518,0.47112 -1.4136,0.55983 -2.2724,1.5038 -0.86749,0.92221 -1.2062,2.1633 -0.31693,1.2325 -0.12228,2.7403 0.18604,1.4861 0.86645,3.2041 0.70624,1.7832 1.6272,3.0286 0.94266,1.2368 2.0393,1.9094 1.088,0.65089 2.3082,0.74626 1.2116,0.07363 2.4946,-0.43452 1.2831,-0.50815 1.9454,-1.1227 0.67545,-0.64487 1.0727,-1.2299 0.38863,-0.60676 0.6595,-1.0662 0.28399,-0.48985 0.78417,-0.68794 0.6524,-0.25838 1.1767,0.11261 l 2.3192,1.3457 q -0.47821,1.397 -1.2378,2.528 -0.76824,1.1093 -1.7268,1.9921 -0.94544,0.85244 -2.0726,1.5001 -1.1054,0.63906 -2.2798,1.1042 -2.066,0.81821 -4.1941,0.78054 -2.1368,-0.05942 -4.0925,-0.9956 -1.9557,-0.93618 -3.6044,-2.7487 -1.6356,-1.8429 -2.7208,-4.583 -0.97325,-2.4574 -1.1042,-4.8207 -0.11779,-2.3937 0.64936,-4.4585 0.75854,-2.0866 2.4365,-3.7575 1.6779,-1.6709 4.3093,-2.713 2.5009,-0.99047 4.6898,-0.92653 2.2107,0.0553 4.3055,0.96157 z"
       style="color:#000000;fill:#000000;fill-opacity:1"
       id="path55"
       inkscape:connector-curvature="0" />
    <path
       d="m 487.26,-117.75 q 1.058,-1.6018 2.5039,-2.7918 1.4458,-1.1899 3.6517,-1.7207 1.9102,-0.45966 3.5471,-0.15585 1.6314,0.28106 2.8938,1.2283 1.2797,0.91902 2.174,2.436 0.91157,1.4888 1.3822,3.4445 l 3.5733,14.85 -5.6171,1.3516 -3.5733,-14.85 q -0.51439,-2.1377 -1.7713,-3.0622 -1.2624,-0.94723 -3.2636,-0.46568 -1.4554,0.35022 -2.5702,1.3162 -1.1148,0.96594 -1.9783,2.3766 l 4.0604,16.874 -5.6171,1.3516 -8.1316,-33.793 5.6171,-1.3516 z"
       style="color:#000000;fill:#000000;fill-opacity:1"
       id="path57"
       inkscape:connector-curvature="0" />
    <path
       d="m 524.7,-117.03 q -0.1204,-1.1163 -0.55132,-2.0579 -0.41018,-0.96737 -1.1183,-1.6438 -0.70816,-0.67646 -1.73,-0.9897 -1.0011,-0.33902 -2.2802,-0.20107 -2.4883,0.26838 -3.7772,1.8425 -1.2656,1.5716 -1.38,4.2188 z m -10.58,4.6464 q 0.33768,1.8221 0.99478,3.1158 0.65458,1.2704 1.5871,2.0638 0.92999,0.77015 2.1172,1.0891 1.2079,0.29319 2.6032,0.14269 1.3953,-0.15049 2.3602,-0.58392 0.98812,-0.43594 1.6896,-0.91154 0.72479,-0.47812 1.2478,-0.86389 0.54627,-0.38828 1.0811,-0.44597 0.72092,-0.0778 1.1274,0.4195 l 1.8769,1.9149 q -0.83308,1.2191 -1.9363,2.1144 -1.1058,0.87208 -2.3579,1.4776 -1.2314,0.5798 -2.5601,0.91133 -1.3055,0.32901 -2.5613,0.46445 -2.4883,0.26838 -4.7156,-0.3148 -2.2298,-0.60644 -3.9842,-2.0405 -1.757,-1.4573 -2.9197,-3.7316 -1.1653,-2.2975 -1.5039,-5.437 -0.26336,-2.4418 0.29656,-4.6666 0.55742,-2.248 1.852,-3.9874 1.3153,-1.7652 3.3312,-2.9236 2.0392,-1.161 4.7135,-1.4494 2.2558,-0.2433 4.2405,0.27195 1.9847,0.51524 3.5072,1.7626 1.5201,1.2241 2.5057,3.1645 1.0064,1.9147 1.2848,4.496 0.14046,1.3023 -0.0884,1.7975 -0.2314,0.47195 -1.0221,0.55723 z"
       style="color:#000000;fill:#000000;fill-opacity:1"
       id="path59"
       inkscape:connector-curvature="0" />
    <path
       d="m 549.06,-121.84 q -0.2339,0.37425 -0.4912,0.53798 -0.25729,0.14034 -0.65492,0.14034 -0.42103,0 -0.91222,-0.2339 -0.46781,-0.2339 -1.0993,-0.51459 -0.63154,-0.30407 -1.4502,-0.53797 -0.79527,-0.2339 -1.8946,-0.2339 -1.7075,0 -2.6899,0.72509 -0.959,0.7251 -0.959,1.8946 0,0.77188 0.4912,1.3098 0.51458,0.51459 1.3332,0.91222 0.84205,0.39764 1.8946,0.7251 1.0526,0.30407 2.1285,0.67831 1.0993,0.37425 2.1519,0.86545 1.0526,0.4678 1.8712,1.2163 0.84204,0.7251 1.3332,1.7543 0.51459,1.0292 0.51459,2.4794 0,1.7309 -0.63154,3.2045 -0.60815,1.4502 -1.8244,2.5262 -1.2163,1.0526 -3.0173,1.6607 -1.7777,0.58476 -4.1167,0.58476 -1.2397,0 -2.4326,-0.23391 -1.1695,-0.21051 -2.2689,-0.60814 -1.076,-0.39764 -2.0116,-0.93561 -0.91222,-0.53798 -1.6139,-1.1695 l 1.3332,-2.1987 q 0.25729,-0.39763 0.60815,-0.60815 0.35085,-0.21051 0.88882,-0.21051 0.53798,0 1.0058,0.30407 0.49119,0.30408 1.1227,0.65493 0.63153,0.35085 1.4736,0.65493 0.86544,0.30407 2.1753,0.30407 1.0292,0 1.7543,-0.2339 0.74848,-0.25729 1.2163,-0.65493 0.49119,-0.39763 0.70171,-0.91222 0.2339,-0.53797 0.2339,-1.0993 0,-0.84205 -0.51459,-1.38 -0.49119,-0.53798 -1.3332,-0.93562 -0.81866,-0.39763 -1.8946,-0.7017 -1.0526,-0.32747 -2.1753,-0.70171 -1.0994,-0.37425 -2.1753,-0.86544 -1.0526,-0.51459 -1.8946,-1.2865 -0.81866,-0.77187 -1.3332,-1.8946 -0.4912,-1.1227 -0.4912,-2.7133 0,-1.4736 0.58476,-2.8068 0.58475,-1.3332 1.7075,-2.3156 1.1461,-1.0058 2.8302,-1.5905 1.7075,-0.60815 3.9296,-0.60815 2.4794,0 4.5143,0.81866 2.0349,0.81866 3.3916,2.1519 z"
       style="color:#000000;fill:#000000;fill-opacity:1"
       id="path61"
       inkscape:connector-curvature="0" />
    <path
       d="m 613.7,-123.58 -8.859,32.642 -6.0949,-1.6542 3.872,-14.267 -15.328,-4.1599 -3.872,14.267 -6.0949,-1.6542 8.859,-32.642 6.0949,1.6542 -3.8107,14.041 15.328,4.1599 3.8107,-14.041 z"
       style="color:#000000;fill:#000000;fill-opacity:1"
       id="path63"
       inkscape:connector-curvature="0" />
    <path
       d="m 626.13,-106.45 -10.492,21.583 -5.2171,-2.536 10.492,-21.583 z m 3.7728,-5.9422 q -0.32723,0.67317 -0.88706,1.1292 -0.55982,0.45608 -1.2373,0.67291 -0.65651,0.22703 -1.3996,0.20392 -0.73276,-0.0441 -1.427,-0.38157 -0.67309,-0.32718 -1.1605,-0.87622 -0.45607,-0.55978 -0.68309,-1.2163 -0.22704,-0.6565 -0.21421,-1.3785 0.034,-0.7117 0.36119,-1.3849 0.33745,-0.6942 0.88637,-1.1816 0.57005,-0.47712 1.2266,-0.70413 0.65652,-0.22703 1.3682,-0.19315 0.74308,0.0231 1.4162,0.35029 0.69422,0.33746 1.1713,0.90749 0.48742,0.54902 0.71445,1.2055 0.24798,0.66669 0.22493,1.4097 -0.023,0.74301 -0.3605,1.4372 z"
       style="color:#000000;fill:#000000;fill-opacity:1"
       id="path65"
       inkscape:connector-curvature="0" />
    <path
       d="m 643.52,-109.81 -17.261,30.169 -5.0146,-2.8691 17.261,-30.169 z"
       style="color:#000000;fill:#000000;fill-opacity:1"
       id="path67"
       inkscape:connector-curvature="0" />
    <path
       d="m 634.99,-74.593 10.908,-16.342 -1.5496,-1.4281 q -0.48626,-0.49332 -0.65463,-0.99943 -0.13593,-0.51257 0.21469,-1.0378 l 1.3116,-1.9649 2.9765,1.9868 0.98694,-1.4785 q 1.1428,-1.712 2.5576,-2.7361 1.4343,-1.0112 3.0238,-1.3281 1.609,-0.30396 3.3279,0.11222 1.7189,0.41619 3.4503,1.5719 1.3813,0.922 2.3212,2.0838 l -1.7075,2.3474 q -0.20126,0.25937 -0.45431,0.34357 -0.24006,0.06473 -0.53845,0.0062 -0.26596,-0.06499 -0.58372,-0.22091 -0.30481,-0.17533 -0.63553,-0.39609 -0.85599,-0.57138 -1.6668,-0.83134 -0.77832,-0.26644 -1.5569,-0.11119 -0.76558,0.13578 -1.5249,0.72568 -0.72692,0.58343 -1.4671,1.6923 l -0.88304,1.3229 5.1943,3.4672 -2.2855,3.424 -5.0387,-3.3633 -10.921,16.361 z"
       style="color:#000000;fill:#000000;fill-opacity:1"
       id="path69"
       inkscape:connector-curvature="0" />
    <path
       d="m 671.18,-72.134 q -0.41708,0.14428 -0.72013,0.11006 -0.28835,-0.05242 -0.59775,-0.30219 -0.32759,-0.26446 -0.56287,-0.755 -0.21707,-0.47584 -0.53216,-1.0909 -0.3004,-0.6333 -0.79046,-1.3295 -0.47188,-0.68154 -1.3273,-1.3721 -1.3286,-1.0726 -2.5484,-1.1254 -1.2017,-0.03819 -1.9363,0.87181 -0.48485,0.6006 -0.44058,1.3277 0.0772,0.72364 0.46439,1.5473 0.40542,0.83833 1.0187,1.7543 0.62799,0.89776 1.2301,1.8648 0.62031,0.98175 1.1308,2.0251 0.52514,1.0252 0.69198,2.1218 0.19973,1.0931 -0.0645,2.2025 -0.24608,1.124 -1.157,2.2524 -1.0872,1.3468 -2.5043,2.0967 -1.3841,0.7464 -3.0064,0.81958 -1.6076,0.05498 -3.391,-0.60314 -1.7505,-0.66163 -3.5705,-2.1309 -0.96459,-0.7787 -1.7459,-1.71 -0.77776,-0.89842 -1.3834,-1.8984 -0.58742,-0.98525 -0.97749,-1.9915 -0.37187,-0.99161 -0.52117,-1.9238 l 2.4185,-0.87333 q 0.44997,-0.14777 0.85521,-0.09119 0.40523,0.05659 0.82382,0.39452 0.4186,0.33793 0.5916,0.86837 0.19119,0.54515 0.4622,1.2148 0.27102,0.66969 0.73521,1.4352 0.48239,0.78022 1.5016,1.603 0.8008,0.64647 1.5119,0.91994 0.74401,0.26996 1.3578,0.25441 0.63197,-8.5e-4 1.119,-0.26902 0.51992,-0.27167 0.87255,-0.70847 0.52892,-0.6552 0.46645,-1.397 -0.0443,-0.72714 -0.44969,-1.5655 -0.38722,-0.82362 -1.0334,-1.7361 -0.6133,-0.91596 -1.2518,-1.9124 -0.62031,-0.98175 -1.149,-2.0398 -0.49576,-1.0616 -0.6661,-2.1911 -0.15215,-1.1148 0.15269,-2.3117 0.32304,-1.1821 1.3221,-2.4197 0.92562,-1.1466 2.2181,-1.8167 1.2925,-0.67008 2.7832,-0.72924 1.5236,-0.06267 3.2013,0.5402 1.7106,0.59935 3.4396,1.9951 1.9292,1.5574 2.9983,3.4726 1.0691,1.9152 1.2873,3.8048 z"
       style="color:#000000;fill:#000000;fill-opacity:1"
       id="path71"
       inkscape:connector-curvature="0" />
    <path
       d="m 704.11,-45.5 -22.395,11.512 -3.2652,-3.2844 q -0.56069,-0.56398 -0.0452,-1.5052 l 6.8022,-12.831 q 0.34922,-0.64402 0.69834,-1.255 0.3822,-0.61084 0.79737,-1.1885 -0.59658,0.39519 -1.2427,0.77371 -0.61307,0.37862 -1.2591,0.72406 l -12.887,6.6442 q -0.92775,0.52655 -1.6039,-0.15355 l -3.1333,-3.1517 11.66,-22.311 3.2487,3.2678 q 0.44526,0.44787 0.54294,0.97742 0.0977,0.52955 -0.13513,0.9589 l -6.6659,11.475 q -0.56504,0.92456 -1.1464,1.7664 -0.56487,0.8584 -1.1792,1.667 0.89468,-0.52664 1.8058,-1.0367 0.92766,-0.49347 1.905,-1.0033 l 11.927,-6.2501 q 0.4307,-0.2303 0.92668,-0.16269 0.51249,0.0842 0.92476,0.49889 l 1.7975,1.8081 q 0.42877,0.43128 0.50996,0.94425 0.0977,0.52955 -0.13512,0.9589 l -6.4023,11.807 q -0.53207,0.95773 -1.0805,1.8658 -0.51538,0.90817 -1.0473,1.7997 1.6243,-1.1861 3.513,-2.2722 l 11.58,-6.5323 q 0.44719,-0.21371 0.95966,-0.12951 0.51249,0.0842 0.92476,0.49889 z"
       style="color:#000000;fill:#000000;fill-opacity:1"
       id="path73"
       inkscape:connector-curvature="0" />
    <path
       d="m 706.6,-22.267 q 0.9361,-0.61987 1.5744,-1.4353 0.67071,-0.80883 0.9461,-1.7486 0.27539,-0.9398 0.084,-1.9913 -0.15893,-1.045 -0.86921,-2.1176 -1.3818,-2.0867 -3.3721,-2.5081 -1.9774,-0.40186 -4.3812,0.71297 z m -8.9883,-7.2613 q -1.4632,1.1372 -2.3102,2.3153 -0.82751,1.1651 -1.1037,2.358 -0.25667,1.1799 0.006,2.3809 0.29466,1.2076 1.0695,2.3777 0.77484,1.1701 1.6032,1.8279 0.84124,0.6773 1.586,1.0818 0.7577,0.42403 1.3407,0.71129 0.59588,0.30675 0.89291,0.7553 0.40033,0.60457 0.14549,1.1941 l -0.83829,2.5469 q -1.4656,-0.17971 -2.7678,-0.74815 -1.2827,-0.58137 -2.3959,-1.4152 -1.0808,-0.82725 -1.9858,-1.8551 -0.89211,-1.0083 -1.5895,-2.0614 -1.3818,-2.0867 -1.8873,-4.3329 -0.48601,-2.2591 -0.0185,-4.4763 0.487,-2.2301 1.9726,-4.3079 1.5051,-2.0907 4.1379,-3.8341 2.0477,-1.356 4.281,-1.881 2.2528,-0.53794 4.3925,-0.18746 2.1722,0.35707 4.1274,1.6152 1.9682,1.2776 3.4533,3.5204 1.2527,1.8917 1.707,3.8912 0.45438,1.9995 0.0462,3.925 -0.3887,1.9126 -1.6592,3.6796 -1.2381,1.7737 -3.4028,3.2071 -1.0921,0.72319 -1.6371,0.74744 -0.52551,0.01135 -0.96459,-0.65173 z"
       style="color:#000000;fill:#000000;fill-opacity:1"
       id="path75"
       inkscape:connector-curvature="0" />
    <path
       d="m 719.37,-9.8027 q 2.4254,0.091655 4.1862,0.96481 1.7818,0.86314 2.6844,2.7649 0.71205,1.5003 0.48822,2.7199 l -4.0697,1.5172 q -0.43051,0.074866 -0.69984,-0.056214 -0.23818,-0.11998 -0.39864,-0.45808 -0.15043,-0.31696 -0.34564,-1.001 -0.18518,-0.66294 -0.46599,-1.2546 -0.41118,-0.86638 -0.98568,-1.4222 -0.57449,-0.55586 -1.3213,-0.8746 -0.7156,-0.30765 -1.5924,-0.40935 -0.86675,-0.080575 -1.9036,-0.02862 l -13.355,6.3382 -2.4771,-5.2194 21.681,-10.29 1.4542,3.064 q 0.3811,0.80299 0.23569,1.2604 -0.12427,0.44735 -0.81372,0.90401 z"
       style="color:#000000;fill:#000000;fill-opacity:1"
       id="path77"
       inkscape:connector-curvature="0" />
    <path
       d="m 740.93,3.8909 -18.735,6.7234 0.36342,1.0127 q 0.19752,0.55039 0.44023,0.8112 0.27262,0.27494 0.83143,0.44716 l 8.9496,3.1253 q 0.58874,0.18633 0.98102,0.51772 0.40019,0.35341 0.64511,1.0359 l 1.7855,4.9755 -10.908,-4.0128 q -1.2593,-0.39299 -2.1037,-1.084 -0.16432,0.58083 -0.47822,1.0911 -0.306,0.53228 -0.69385,1.0442 l -8.2617,11.464 -1.7618,-4.9095 q -0.22911,-0.63844 -0.19689,-1.1719 0.0542,-0.54134 0.49402,-1.0471 l 6.4941,-8.8414 q 0.39575,-0.48994 0.43135,-0.87547 0.0356,-0.38554 -0.20142,-1.046 l -0.44244,-1.2329 -10.347,3.7133 -1.9515,-5.4378 32.715,-11.74 z"
       style="color:#000000;fill:#000000;fill-opacity:1"
       id="path79"
       inkscape:connector-curvature="0" />
  </g>
  <g
     style="fill:#ffffff;fill-rule:evenodd;stroke-width:0;stroke-miterlimit:10"
     id="g91"
     transform="matrix(0.17636595,-4.0118947e-4,0.00209903,0.20008684,45.730173,148.41768)">
    <path
       inkscape:connector-curvature="0"
       id="path85"
       d="M 619.1,-305.35 H 401.78 v 57.224 h 53.317 v -11.639 h 28.545 v 106.78 h -11.425 v 45.837 h 76.174 v -45.837 h -11.404 v -106.53 h 28.774 v 11.387 h 53.338 v -57.224"
       style="fill:#ffffff" />
    <path
       inkscape:connector-curvature="0"
       id="path87"
       d="m 392.09,-217.65 v 45.83 h 11.655 V 11.03 L 392.09,10.77087 v 45.837 h 76.425 v -45.837 h -11.432 v -45.578 h 106.68 v 45.578 h -11.404 v 45.837 h 76.153 v -45.837 h -11.404 v -182.82 l 11.404,0.22314 v -45.83 h -76.153 v 45.83 h 11.404 v 91.185 h -106.68 v -91.185 h 11.432 v -45.83 H 392.09"
       style="fill:#ffffff" />
    <path
       inkscape:connector-curvature="0"
       id="path89"
       d="m 510.43,99.736 83.848,139.46 109.9,-182.82 h 27.29 V 10.769 h -91.3 v 45.607 h 10.672 l -56.566,94.143 -84.099,-139.75 -83.856,139.75 -56.308,-94.143 h 10.672 V 10.769 h -91.558 v 45.607 h 27.541 l 109.9,182.82 83.856,-139.46"
       style="fill:#ffffff" />
  </g>
  <g
     transform="matrix(0.53705426,-0.09720314,-0.09720314,-0.53705426,-147.27572,229.66958)"
     id="g129"
     style="fill:#000000;fill-opacity:1;stroke-width:1.18850005">
    <path
       d="m 369.42,-27.886 q -3.3938,-1.6634 -6.8512,-1.955 -3.4255,-0.30244 -6.543,0.71098 -3.1174,1.0134 -5.725,3.309 -2.5863,2.3062 -4.3125,5.8281 -1.7157,3.5005 -1.9541,6.9575 -0.21696,3.4673 0.88139,6.5735 1.1088,3.0848 3.4359,5.6284 2.3484,2.554 5.7427,4.2168 3.3939,1.6634 6.8298,1.9445 3.4574,0.2915 6.5748,-0.72188 3.128,-1.0348 5.7142,-3.3409 2.6076,-2.2957 4.3233,-5.7962 1.1507,-2.3478 1.6106,-4.6904 0.48112,-2.3319 0.3253,-4.5526 -0.13446,-2.2102 -0.89505,-4.2771 -0.72874,-2.0779 -2.0083,-3.8962 -1.2795,-1.8184 -3.088,-3.3136 -1.798,-1.5166 -4.0606,-2.6255 z m -2.8769,5.8697 q 2.54,1.245 4.2116,2.9114 1.693,1.6769 2.4846,3.6266 0.79154,1.9498 0.64933,4.1303 -0.13166,2.1591 -1.2406,4.4216 -1.1089,2.2625 -2.7453,3.7106 -1.6258,1.4268 -3.6623,2.017 -2.026,0.56882 -4.3885,0.258 -2.3412,-0.30036 -4.8812,-1.5453 -2.54,-1.2449 -4.233,-2.9218 -1.6717,-1.6664 -2.4632,-3.6162 -0.75975,-1.9607 -0.628,-4.1198 0.14212,-2.1804 1.251,-4.443 1.1089,-2.2625 2.7348,-3.6893 1.6363,-1.4482 3.641,-2.0275 2.026,-0.56882 4.3672,-0.26848 2.3625,0.31082 4.9026,1.5558 z"
       style="color:#000000;fill:#000000;fill-opacity:1"
       id="path95"
       inkscape:connector-curvature="0" />
    <path
       d="m 406.6,-48.838 -35.713,-9.9366 -3.5196,4.5801 18.796,31.951 3.1286,-4.0712 q 0.50694,-0.65968 0.50518,-1.3206 -0.002,-0.66089 -0.35136,-1.2593 l -11.685,-19.202 q -0.56425,-0.94323 -1.3271,-1.9791 -0.72951,-1.0403 -1.5822,-2.1153 1.2293,0.58493 2.3934,1.0597 1.1829,0.48928 2.2396,0.79169 l 21.534,6.3854 q 0.54938,0.18235 1.2406,0.02403 0.70573,-0.17716 1.1982,-0.81801 z"
       style="color:#000000;fill:#000000;fill-opacity:1"
       id="path97"
       inkscape:connector-curvature="0" />
    <path
       d="m 428.65,-73.02 -5.7073,-8.4223 10.666,-7.2275 -2.867,-4.2308 -10.666,7.2275 -7.8542,-11.59 -5.3131,3.6004 19.282,28.455 17.947,-12.161 -2.8537,-4.2111 z"
       style="color:#000000;fill:#000000;fill-opacity:1"
       id="path99"
       inkscape:connector-curvature="0" />
    <path
       d="m 443.87,-93.952 q 2.0419,1.3839 4.0094,1.7278 1.9788,0.36483 3.8621,-0.65006 1.4857,-0.80063 2.036,-1.9342 l -2.421,-3.6909 q -0.3076,-0.32029 -0.60708,-0.37493 -0.26727,-0.04499 -0.60209,0.13543 -0.31388,0.16914 -0.88528,0.61206 -0.55047,0.43165 -1.1364,0.7474 -0.85796,0.46232 -1.6629,0.5721 -0.80496,0.10974 -1.6084,-0.07836 -0.77123,-0.17846 -1.5506,-0.62256 -0.75843,-0.45537 -1.5765,-1.1216 l -7.1267,-13.225 -5.1687,2.7853 11.57,21.47 3.0342,-1.6351 q 0.79518,-0.4285 0.95119,-0.89061 0.16731,-0.44118 -0.12275,-1.23 z"
       style="color:#000000;fill:#000000;fill-opacity:1"
       id="path101"
       inkscape:connector-curvature="0" />
    <path
       d="m 464.28,-99.281 -10.018,-22.236 -5.3748,2.4216 10.018,22.236 z m 3.6565,6.1481 q -0.31247,-0.69353 -0.86762,-1.1734 -0.55515,-0.47987 -1.237,-0.7202 -0.66019,-0.25006 -1.4156,-0.24864 -0.74569,0.02311 -1.4609,0.34534 -0.69352,0.31247 -1.2048,0.85571 -0.47989,0.55515 -0.72996,1.2153 -0.25007,0.66015 -0.2584,1.394 0.0133,0.724 0.32578,1.4175 0.32223,0.71519 0.86548,1.2265 0.56491,0.50156 1.2251,0.75163 0.66019,0.25007 1.3842,0.23673 0.75545,-0.0014 1.449,-0.31393 0.7152,-0.32222 1.2168,-0.88714 0.51133,-0.54324 0.76141,-1.2034 0.27174,-0.66995 0.2703,-1.4254 -10e-4,-0.75545 -0.32365,-1.4707 z"
       style="color:#000000;fill:#000000;fill-opacity:1"
       id="path103"
       inkscape:connector-curvature="0" />
    <path
       d="m 481.81,-115.76 q 0.36191,1.0821 0.36302,2.1344 0.0311,1.0674 -0.33625,1.9923 -0.36739,0.92496 -1.1785,1.6474 -0.78102,0.73746 -2.0209,1.1522 -2.4121,0.80675 -4.2697,-0.10093 -1.8351,-0.91521 -3.0628,-3.3119 z m -11.741,0.1923 q -0.46038,-1.8262 -0.40177,-3.2996 0.0662,-1.4508 0.59122,-2.5789 0.53259,-1.1055 1.494,-1.9033 0.99145,-0.78278 2.3441,-1.2352 1.3526,-0.45239 2.4275,-0.461 1.0975,-0.0161 1.947,0.12582 0.8721,0.13443 1.5187,0.26908 0.66914,0.1271 1.1876,-0.0463 0.69884,-0.23373 0.86356,-0.86532 l 0.922,-2.5642 q -1.2862,-0.77295 -2.6847,-1.1324 -1.391,-0.33685 -2.8042,-0.3655 -1.3831,-0.0136 -2.751,0.24334 -1.3453,0.24943 -2.5626,0.65657 -2.4121,0.80676 -4.2222,2.2894 -1.8025,1.5052 -2.8152,3.5734 -1.0052,2.0907 -1.1153,4.6842 -0.10259,2.616 0.91532,5.6594 0.79168,2.367 2.2518,4.1847 1.4677,1.8402 3.4006,2.8981 1.963,1.0729 4.316,1.2886 2.3756,0.20807 4.968,-0.65898 2.1867,-0.73136 3.8015,-2.0485 1.6148,-1.3171 2.4925,-3.1146 0.8852,-1.7749 0.97316,-3.985 0.11805,-2.1951 -0.71883,-4.6974 -0.42222,-1.2624 -0.84354,-1.6228 -0.41377,-0.33784 -1.1802,-0.0815 z"
       style="color:#000000;fill:#000000;fill-opacity:1"
       id="path105"
       inkscape:connector-curvature="0" />
    <path
       d="m 507.24,-118.6 q -0.74314,1.3836 -1.8117,2.1047 -1.0452,0.71649 -2.3742,0.98039 -1.3057,0.25926 -2.4521,-0.0216 -1.1464,-0.28128 -2.0916,-1.1357 -0.94056,-0.83111 -1.6425,-2.2912 -0.69731,-1.4368 -1.1094,-3.5119 -0.41668,-2.0984 -0.38194,-3.6321 0.0627,-1.515 0.50701,-2.5726 0.44895,-1.0343 1.2749,-1.6346 0.83061,-0.57692 1.9498,-0.79917 1.7953,-0.35649 3.2025,0.13964 1.4072,0.4961 2.7995,1.6495 z m 9.1016,15.69 -6.8799,-34.647 -3.5206,0.69909 q -1.1424,0.22686 -1.2372,1.3363 l -0.031,2.4055 q -1.7743,-1.3684 -3.8666,-2.0192 -2.0689,-0.65549 -4.5637,-0.1601 -1.9585,0.38889 -3.4285,1.529 -1.4701,1.1401 -2.3536,2.9151 -0.85558,1.7936 -1.0547,4.2082 -0.17581,2.4099 0.40755,5.3477 0.5278,2.658 1.7043,4.7994 1.1765,2.1414 2.8622,3.5516 1.6856,1.4102 3.7594,1.9678 2.0784,0.58092 4.4332,0.11328 2.0051,-0.39816 3.3024,-1.3101 1.2972,-0.91194 2.2034,-2.2067 l 2.5047,12.614 z"
       style="color:#000000;fill:#000000;fill-opacity:1"
       id="path107"
       inkscape:connector-curvature="0" />
    <path
       d="m 525.91,-118.74 q 1.3002,2.0962 2.9566,3.2123 1.6581,1.1399 3.7915,0.98102 1.6831,-0.12531 2.6477,-0.93606 l -0.70581,-4.3572 q -0.1503,-0.41786 -0.40147,-0.58985 -0.2257,-0.15005 -0.60497,-0.12182 -0.35559,0.0265 -1.0579,0.19795 -0.67863,0.16971 -1.3424,0.21913 -0.97191,0.0724 -1.7517,-0.15558 -0.77979,-0.22798 -1.4367,-0.72731 -0.63146,-0.47739 -1.162,-1.2006 -0.50689,-0.72503 -0.98224,-1.6669 l -1.1155,-14.982 -5.8552,0.43597 1.8109,24.321 3.4372,-0.25592 q 0.9008,-0.0671 1.2316,-0.42543 0.33264,-0.33464 0.38939,-1.1731 z"
       style="color:#000000;fill:#000000;fill-opacity:1"
       id="path109"
       inkscape:connector-curvature="0" />
    <path
       d="m 547.85,-114.96 0.60934,-24.381 -5.8933,-0.14729 -0.60934,24.381 z m 0.63037,7.1254 q 0.019,-0.76044 -0.2733,-1.4335 -0.29229,-0.67309 -0.8026,-1.1852 -0.48657,-0.51149 -1.168,-0.83764 -0.68202,-0.30239 -1.4662,-0.32198 -0.76042,-0.019 -1.4567,0.24893 -0.67309,0.29229 -1.1846,0.77885 -0.51151,0.48655 -0.83706,1.1442 -0.30178,0.65825 -0.32082,1.4187 -0.0196,0.78419 0.24833,1.4805 0.2917,0.69685 0.77827,1.2084 0.48655,0.51151 1.1448,0.8133 0.68141,0.32614 1.4418,0.34512 0.7842,0.0196 1.4811,-0.2721 0.69625,-0.26794 1.2078,-0.75449 0.53526,-0.48597 0.8614,-1.1674 0.32616,-0.68142 0.34575,-1.4656 z"
       style="color:#000000;fill:#000000;fill-opacity:1"
       id="path111"
       inkscape:connector-curvature="0" />
    <path
       d="m 573.36,-117.68 q -0.21969,-0.36174 -0.45649,-0.58188 -0.2132,-0.21729 -0.68518,-0.27427 -0.44838,-0.0542 -0.90453,0.15414 -0.45898,0.2319 -1.0889,0.49104 -0.63274,0.28274 -1.4901,0.44258 -0.83656,0.18629 -2.0401,0.0409 -1.534,-0.18525 -2.6219,-0.89123 -1.0908,-0.68244 -1.7442,-1.8149 -0.62978,-1.1296 -0.82781,-2.6619 -0.20091,-1.5088 0.0242,-3.3731 0.23369,-1.9351 0.81728,-3.397 0.60717,-1.4591 1.5114,-2.4034 0.90133,-0.92073 2.076,-1.3296 1.1719,-0.38524 2.5642,-0.21709 1.3924,0.16815 2.202,0.60116 0.83043,0.45943 1.372,0.93186 0.53868,0.49605 0.92357,0.87773 0.40564,0.40814 0.94843,0.47369 0.70797,0.0855 1.1275,-0.41454 l 1.932,-1.9216 q -0.83077,-1.2496 -1.8695,-2.1652 -1.0416,-0.89198 -2.2118,-1.5122 -1.1494,-0.59373 -2.4246,-0.93926 -1.2516,-0.34269 -2.5259,-0.49659 -2.2419,-0.27074 -4.324,0.31583 -2.0849,0.61018 -3.7655,2.0354 -1.6806,1.4252 -2.833,3.6325 -1.1317,2.2337 -1.4908,5.2072 -0.32204,2.6667 0.15954,5.0234 0.50233,2.3832 1.7896,4.2147 1.2844,1.8551 3.3652,3.0641 2.0807,1.209 4.9362,1.5538 2.7139,0.32775 4.8489,-0.30033 2.1586,-0.62523 3.9836,-2.0569 z"
       style="color:#000000;fill:#000000;fill-opacity:1"
       id="path113"
       inkscape:connector-curvature="0" />
    <path
       d="m 583.04,-112.83 q 1.0687,1.6322 2.5332,2.8474 1.4645,1.2152 3.7041,1.7636 1.9394,0.4749 3.6042,0.17283 1.6591,-0.27899 2.9459,-1.2365 1.3042,-0.92876 2.2192,-2.4668 0.93246,-1.5092 1.4187,-3.4949 l 3.6919,-15.077 -5.7029,-1.3965 -3.6919,15.077 q -0.53146,2.1703 -1.8126,3.1048 -1.2868,0.95749 -3.3186,0.45996 -1.4777,-0.36183 -2.6067,-1.348 -1.129,-0.98618 -2.0007,-2.4233 l 4.1951,-17.132 -5.7029,-1.3965 -8.4014,34.31 5.7029,1.3965 z"
       style="color:#000000;fill:#000000;fill-opacity:1"
       id="path115"
       inkscape:connector-curvature="0" />
    <path
       d="m 617.2,-104.43 q -0.0882,-0.43974 -0.2742,-0.6877 -0.19432,-0.22573 -0.57245,-0.36829 -0.40035,-0.15096 -0.95131,-0.10466 -0.5287,0.0547 -1.2299,0.0951 -0.70957,0.0627 -1.5719,-0.008 -0.8401,-0.0627 -1.8855,-0.45692 -1.6237,-0.61225 -2.2978,-1.654 -0.65193,-1.0334 -0.23258,-2.1455 0.27677,-0.73399 0.93676,-1.0694 0.67383,-0.30482 1.5949,-0.38939 0.94329,-0.0762 2.0616,-0.0102 1.1099,0.0883 2.2672,0.11819 1.1796,0.0383 2.3566,-0.0513 1.1686,-0.0674 2.2155,-0.48563 1.0607,-0.38757 1.8968,-1.1901 0.85835,-0.79414 1.3783,-2.1732 0.62064,-1.6459 0.54848,-3.2736 -0.0583,-1.5971 -0.82909,-3.0563 -0.77916,-1.437 -2.2737,-2.6611 -1.4807,-1.1934 -3.7049,-2.0322 -1.1788,-0.4445 -2.397,-0.64982 -1.1876,-0.21917 -2.3755,-0.23524 -1.1657,-0.008 -2.2483,0.1684 -1.0603,0.18448 -1.954,0.5334 l 0.47942,2.5688 q 0.10209,0.47037 0.36024,0.79635 0.25814,0.32599 0.76973,0.51885 0.51158,0.19288 1.0654,0.0715 0.57611,-0.11303 1.3024,-0.2202 0.72633,-0.10719 1.6361,-0.0944 0.93199,0.0212 2.1775,0.49084 0.97865,0.36902 1.5843,0.85145 0.61949,0.51304 0.92175,1.0589 0.32451,0.55424 0.34017,1.1191 0.0295,0.59543 -0.17177,1.1292 -0.30193,0.80072 -0.98414,1.1278 -0.66,0.33545 -1.6033,0.41163 -0.92105,0.0846 -2.0532,-0.0121 -1.1183,-0.066 -2.3201,-0.11273 -1.1796,-0.0383 -2.3788,0.043 -1.1854,0.1119 -2.2629,0.54396 -1.0552,0.44045 -1.9471,1.3236 -0.86966,0.89149 -1.44,2.404 -0.52838,1.4012 -0.45039,2.8787 0.078,1.4775 0.79336,2.8142 0.72922,1.3674 2.121,2.5273 1.4056,1.1905 3.5186,1.9873 2.3577,0.88901 4.5862,0.84021 2.2286,-0.0488 3.9967,-0.83016 z"
       style="color:#000000;fill:#000000;fill-opacity:1"
       id="path117"
       inkscape:connector-curvature="0" />
    <path
       d="m 627.45,-97.307 q 0.6394,1.8432 1.7642,3.3782 1.1248,1.535 3.1636,2.6119 1.7656,0.9326 3.4538,1.0447 1.6771,0.13313 3.1582,-0.48244 1.491,-0.58346 2.7528,-1.8526 1.2717,-1.237 2.2265,-3.0446 l 7.2498,-13.725 -5.1916,-2.7423 -7.2498,13.725 q -1.0436,1.9758 -2.5136,2.5703 -1.4811,0.61558 -3.3308,-0.36143 -1.3452,-0.71055 -2.2003,-1.9418 -0.85508,-1.2313 -1.3509,-2.8373 l 8.2379,-15.596 -5.1916,-2.7423 -16.498,31.234 5.1916,2.7423 z"
       style="color:#000000;fill:#000000;fill-opacity:1"
       id="path119"
       inkscape:connector-curvature="0" />
    <path
       d="m 662.94,-89.007 q -2.0136,-1.5584 -3.2428,-2.8276 -1.2429,-1.2498 -1.8122,-2.2592 -0.56936,-1.0094 -0.55669,-1.8137 0.0127,-0.80425 0.46328,-1.4463 0.8876,-1.2647 2.0093,-1.2906 1.1412,-0.01224 2.3475,0.83439 1.4787,1.0378 2.1802,2.3142 0.70726,1.3095 0.97378,3.1228 z m -17.089,0.9295 q 1.2318,5.5691 6.0766,8.9692 1.7512,1.229 3.5423,1.6148 1.7775,0.40528 3.4546,0.04316 1.6635,-0.34265 3.1468,-1.4216 1.5027,-1.0653 2.6908,-2.7581 l 8.8487,-12.608 -2.1792,-1.5294 q -0.681,-0.47794 -1.1872,-0.54282 -0.51989,-0.04542 -1.1709,0.427 l -1.4385,1.1394 q -0.2809,-1.2136 -0.63212,-2.2442 -0.36488,-1.0111 -0.89736,-1.9076 -0.53249,-0.89644 -1.3046,-1.6997 -0.73902,-0.80908 -1.8092,-1.5601 -1.2647,-0.88759 -2.567,-1.3079 -1.3159,-0.40082 -2.5722,-0.26603 -1.2562,0.13479 -2.3944,0.84614 -1.1381,0.71135 -2.0801,2.0541 -0.53254,0.75883 -0.79851,1.6757 -0.27961,0.93635 -0.19329,2.0134 0.10577,1.0907 0.59694,2.3356 0.49117,1.245 1.5002,2.621 1.0285,1.3897 2.6079,2.9048 1.5658,1.5345 3.8013,3.1905 l -0.81933,1.1674 q -1.4065,2.0041 -2.9317,2.3567 -1.5389,0.37201 -3.1538,-0.76138 -1.1674,-0.81931 -1.7545,-1.6379 -0.56766,-0.80495 -0.90559,-1.5649 -0.35157,-0.74043 -0.64682,-1.3542 -0.2758,-0.60013 -0.85955,-1.0098 -0.50588,-0.35504 -1.0336,-0.3479 -0.54141,0.02661 -1.0012,0.22662 z"
       style="color:#000000;fill:#000000;fill-opacity:1"
       id="path121"
       inkscape:connector-curvature="0" />
    <path
       d="m 680.63,-88.038 -13.209,14.974 -1.8067,-1.1499 q -0.61132,-0.34906 -1.1523,-0.38252 -0.53892,6.4e-5 -0.96349,0.48138 l -1.5882,1.8005 2.7275,2.4059 -1.1951,1.3548 q -1.3838,1.5687 -2.021,3.2254 -0.61942,1.6724 -0.51644,3.3164 0.1208,1.6597 0.97763,3.2397 0.85684,1.5799 2.4434,2.9795 1.2657,1.1165 2.6519,1.737 l 1.8607,-2.2891 q 0.2023,-0.26533 0.21906,-0.53581 10e-4,-0.25268 -0.13428,-0.53051 -0.13318,-0.24428 -0.36911,-0.51582 -0.25166,-0.2537 -0.55472,-0.52102 -0.78436,-0.6919 -1.251,-1.4205 -0.46457,-0.69511 -0.51503,-1.5003 -0.0661,-0.78739 0.31537,-1.687 0.38362,-0.8661 1.2799,-1.8822 l 1.0693,-1.2122 4.7596,4.1985 2.7676,-3.1374 -4.617,-4.0727 13.225,-14.992 z"
       style="color:#000000;fill:#000000;fill-opacity:1"
       id="path123"
       inkscape:connector-curvature="0" />
    <path
       d="m 692.81,-54.66 q -0.84272,0.76923 -1.8044,1.1966 -0.96327,0.46086 -1.9578,0.49966 -0.9945,0.0388 -1.9836,-0.41012 -0.99062,-0.41533 -1.872,-1.3809 -1.7148,-1.8785 -1.6374,-3.9446 0.0934,-2.0485 1.7873,-4.1418 z m -4.9322,-10.657 q 1.4831,-1.1607 2.8539,-1.704 1.3533,-0.52721 2.5974,-0.50416 1.2265,0.03908 2.3453,0.59486 1.1173,0.58936 2.0788,1.6427 0.96154,1.0534 1.4048,2.0327 0.45933,0.99683 0.6737,1.8311 0.23038,0.85181 0.3692,1.4975 0.15485,0.66327 0.52344,1.0671 0.4968,0.54425 1.141,0.43901 l 2.7179,-0.1958 q 0.18566,-1.489 -0.0523,-2.9133 -0.2555,-1.4082 -0.8018,-2.7119 -0.54784,-1.2701 -1.3369,-2.4166 -0.77301,-1.1289 -1.6384,-2.077 -1.7148,-1.8785 -3.8036,-2.9328 -2.1064,-1.0383 -4.4075,-1.1263 -2.3187,-0.07205 -4.7344,0.87786 -2.4333,0.96594 -4.8034,3.1294 -1.8434,1.6827 -2.9138,3.754 -1.0879,2.0873 -1.2721,4.2831 -0.18576,2.2294 0.57031,4.468 0.77211,2.2562 2.615,4.2752 1.5545,1.703 3.4128,2.6458 1.8583,0.94283 3.8572,1.0171 1.9814,0.09032 4.0376,-0.72455 2.0547,-0.78128 4.0035,-2.5601 0.98316,-0.89743 1.142,-1.4286 0.14126,-0.51517 -0.40361,-1.1121 z"
       style="color:#000000;fill:#000000;fill-opacity:1"
       id="path125"
       inkscape:connector-curvature="0" />
    <path
       d="m 697.34,-39.354 q -0.17637,1.0271 -0.21452,2.0438 -0.0438,1.0498 0.12818,2.0344 0.16633,1.0177 0.57596,2.009 0.39023,1.005 1.1037,2.0144 1.1526,1.6305 2.6074,2.4943 1.4354,0.87749 3.0348,0.99865 1.5937,0.15428 3.2931,-0.40662 1.6938,-0.52778 3.3631,-1.7078 l 12.675,-8.96 -3.3892,-4.7944 -12.675,8.96 q -1.8246,1.2898 -3.4046,1.1549 -1.5994,-0.12116 -2.8068,-1.8293 -0.87817,-1.2423 -1.0836,-2.7272 -0.20548,-1.4849 0.079,-3.1415 l 14.403,-10.181 -3.3892,-4.7944 -19.915,14.078 2.0719,2.931 q 0.65862,0.9317 1.7379,0.60541 z"
       style="color:#000000;fill:#000000;fill-opacity:1"
       id="path127"
       inkscape:connector-curvature="0" />
  </g>
  <text
     x="179.82451"
     y="258.04684"
     font-size="8.4191px"
     letter-spacing="0px"
     word-spacing="0px"
     style="font-size:7.80136251px;line-height:1.25;font-family:Lato;letter-spacing:0px;word-spacing:0px;fill:#b3b3b3;stroke-width:0.19503638"
     xml:space="preserve"
     id="text133"><tspan
       x="179.82451"
       y="258.04684"
       id="tspan131"
       style="fill:#b3b3b3;stroke-width:0.19503638">Lizenz: CC-BY: L. Roller</tspan></text>
  <metadata
     id="metadata135">
    <rdf:RDF>
      <cc:Work
         rdf:about="">
        <cc:license
           rdf:resource="http://creativecommons.org/licenses/by/4.0/" />
        <dc:title>THW OV FN Patch</dc:title>
        <dc:creator>
          <cc:Agent>
            <dc:title>L3D &lt;l3d@c3woc.de&gt;</dc:title>
          </cc:Agent>
        </dc:creator>
        <dc:format>image/svg+xml</dc:format>
        <dc:type
           rdf:resource="http://purl.org/dc/dcmitype/StillImage" />
      </cc:Work>
      <cc:License
         rdf:about="http://creativecommons.org/licenses/by/4.0/">
        <cc:permits
           rdf:resource="http://creativecommons.org/ns#Reproduction" />
        <cc:permits
           rdf:resource="http://creativecommons.org/ns#Distribution" />
        <cc:requires
           rdf:resource="http://creativecommons.org/ns#Notice" />
        <cc:requires
           rdf:resource="http://creativecommons.org/ns#Attribution" />
        <cc:permits
           rdf:resource="http://creativecommons.org/ns#DerivativeWorks" />
      </cc:License>
    </rdf:RDF>
  </metadata>
  <g
     id="g958"
     transform="matrix(0.92662664,0,0,0.92662664,9.9450253,9.920079)">
    <text
       id="text1504"
       y="156.22342"
       x="2.3265581"
       style="font-style:normal;font-weight:normal;font-size:27.64373398px;line-height:1.25;font-family:sans-serif;letter-spacing:0px;word-spacing:0px;opacity:1;vector-effect:none;fill:#000080;fill-opacity:1;stroke:none;stroke-width:1.7992543;stroke-linecap:butt;stroke-linejoin:miter;stroke-miterlimit:4;stroke-dasharray:none;stroke-dashoffset:0;stroke-opacity:1"
       xml:space="preserve"><tspan
         style="font-style:normal;font-variant:normal;font-weight:bold;font-stretch:normal;font-family:Lato;-inkscape-font-specification:'Lato Bold';vector-effect:none;fill:#000080;fill-opacity:1;stroke-width:1.7992543;stroke-linecap:butt;stroke-linejoin:miter;stroke-miterlimit:4;stroke-dasharray:none;stroke-dashoffset:0;stroke-opacity:1"
         y="156.22342"
         x="2.3265581"
         id="tspan1502"
         sodipodi:role="line">19</tspan></text>
    <text
       xml:space="preserve"
       style="font-style:normal;font-weight:normal;font-size:27.64373398px;line-height:1.25;font-family:sans-serif;letter-spacing:0px;word-spacing:0px;opacity:1;vector-effect:none;fill:#000080;fill-opacity:1;stroke:none;stroke-width:1.7992543;stroke-linecap:butt;stroke-linejoin:miter;stroke-miterlimit:4;stroke-dasharray:none;stroke-dashoffset:0;stroke-opacity:1"
       x="235.15692"
       y="156.22342"
       id="text1562"><tspan
         sodipodi:role="line"
         id="tspan1560"
         x="235.15692"
         y="156.22342"
         style="font-style:normal;font-variant:normal;font-weight:bold;font-stretch:normal;font-family:Lato;-inkscape-font-specification:'Lato Bold';vector-effect:none;fill:#000080;fill-opacity:1;stroke-width:1.7992543;stroke-linecap:butt;stroke-linejoin:miter;stroke-miterlimit:4;stroke-dasharray:none;stroke-dashoffset:0;stroke-opacity:1">53</tspan></text>
  </g>
</svg>
