<?xml version="1.0" encoding="UTF-8" standalone="no"?>
<svg
   xmlns:dc="http://purl.org/dc/elements/1.1/"
   xmlns:cc="http://creativecommons.org/ns#"
   xmlns:rdf="http://www.w3.org/1999/02/22-rdf-syntax-ns#"
   xmlns:svg="http://www.w3.org/2000/svg"
   xmlns="http://www.w3.org/2000/svg"
   xmlns:sodipodi="http://sodipodi.sourceforge.net/DTD/sodipodi-0.dtd"
   xmlns:inkscape="http://www.inkscape.org/namespaces/inkscape"
   width="1024"
   height="1024"
   version="1.1"
   viewBox="0 0 270.93 270.93"
   id="svg137"
   sodipodi:docname="thw_ov_fn_patch_entwurf4.4.svg"
   inkscape:version="0.92.5 (2060ec1f9f, 2020-04-08)"
   inkscape:export-filename="/home/lilian/git/do1jlr/thw__ov_fn__patch/thw_ov_fn_patch_entwurf4.4.png"
   inkscape:export-xdpi="96"
   inkscape:export-ydpi="96">
  <sodipodi:namedview
     pagecolor="#ffffff"
     bordercolor="#666666"
     borderopacity="1"
     objecttolerance="10"
     gridtolerance="10"
     guidetolerance="10"
     inkscape:pageopacity="0"
     inkscape:pageshadow="2"
     inkscape:window-width="1916"
     inkscape:window-height="1032"
     id="namedview139"
     showgrid="false"
     inkscape:zoom="0.5"
     inkscape:cx="372.38202"
     inkscape:cy="467.03436"
     inkscape:window-x="0"
     inkscape:window-y="46"
     inkscape:window-maximized="0"
     inkscape:current-layer="svg137" />
  <title
     id="title2">THW OV FN Patch</title>
  <defs
     id="defs11">
    <linearGradient
       id="l3d_a"
       x1="18.599"
       x2="24.324"
       y1="426.45"
       y2="426.49"
       gradientTransform="matrix(1.1385,0,0,1.1385,-5.4402,-45.814)"
       gradientUnits="userSpaceOnUse">
      <stop
         stop-color="#505050"
         offset="0"
         id="stop4" />
      <stop
         stop-color="#505050"
         stop-opacity="0"
         offset="1"
         id="stop6" />
    </linearGradient>
    <style
       type="text/css"
       id="style9"><![CDATA[
    .fil0 {fill:#0061A5}
    .fil3 {fill:#1F1A17}
    .fil2 {fill:#F6BB00}
    .fil1 {fill:white}
   ]]></style>
    <style
       id="style1194"
       type="text/css" />
    <style
       id="style1196"
       type="text/css" />
    <style
       id="style1198"
       type="text/css" />
    <style
       id="style1200"
       type="text/css" />
    <style
       id="style1202"
       type="text/css" />
    <style
       id="style1204"
       type="text/css" />
    <style
       id="style1206"
       type="text/css" />
    <style
       id="style1208"
       type="text/css" />
    <style
       id="style1210"
       type="text/css" />
    <style
       id="style1212"
       type="text/css" />
    <style
       id="style1214"
       type="text/css" />
    <style
       id="style1216"
       type="text/css" />
    <style
       id="style1218"
       type="text/css" />
    <style
       id="style1220"
       type="text/css" />
    <style
       id="style1222"
       type="text/css" />
    <style
       id="style1224"
       type="text/css" />
    <style
       id="style1226"
       type="text/css" />
    <style
       id="style1228"
       type="text/css" />
    <style
       id="style1230"
       type="text/css" />
    <style
       id="style1232"
       type="text/css" />
    <style
       id="style1234"
       type="text/css" />
    <style
       id="style1236"
       type="text/css" />
    <style
       id="style1238"
       type="text/css" />
    <style
       id="style1240"
       type="text/css" />
    <style
       id="style1242"
       type="text/css" />
    <style
       id="style1244"
       type="text/css" />
    <style
       id="style1246"
       type="text/css" />
    <style
       id="style1248"
       type="text/css" />
    <style
       id="style1250"
       type="text/css" />
    <style
       id="style1252"
       type="text/css" />
    <style
       id="style1254"
       type="text/css" />
    <style
       id="style1256"
       type="text/css" />
    <style
       id="style1258"
       type="text/css" />
    <style
       id="style1260"
       type="text/css" />
  </defs>
  <circle
     cx="135.54"
     cy="135.2"
     r="116.33"
     fill="#0061a5"
     fill-rule="evenodd"
     stop-color="#000000"
     stroke="#000080"
     stroke-linecap="round"
     stroke-linejoin="round"
     stroke-width="37.401"
     style="paint-order:markers fill stroke;fill:none"
     id="circle13" />
  <g
     transform="matrix(0.016662,0,0,0.016662,-527.54081,-143.37962)"
     id="g29"
     style="clip-rule:evenodd;fill-rule:evenodd;image-rendering:optimizeQuality;shape-rendering:geometricPrecision;text-rendering:geometricPrecision">
    <g
       transform="matrix(0.58899,0,0,0.58899,11720,14781)"
       id="g21">
      <path
         class="fil1"
         d="m 8990.2,18204 h -17.547 c -500.76,-10.823 -829.34,452.47 -1487.2,478.42 h -19.513 c -786.39,-15.679 -1052.8,-490.33 -1582.8,-477.32 -23.504,-1.091 -46.704,0 -72.637,0 -383.6,6.429 -264.02,19.435 -811.78,319.66 l -149.28,-267.86 c 475.36,-269.41 530.21,-366.03 961.07,-358.51 23.504,0 52.347,-1.642 81.572,0 716.72,29.698 956.76,492.99 1573.9,477.32 h 4.0697 25.628 c 467.37,5.407 807.01,-460.55 1489.5,-478.97 0,1.642 1.337,1.642 5.6427,1.642 h 1.8776 v -1.642 h 4.6301 c 2.4281,0 5.1708,0 9.1619,1.642 657.96,28.606 1042.1,512.43 1521.3,495.66 h 2.428 c 515.41,16.77 879.56,-448.17 1521.8,-473.56 h 16.456 c 574.26,-6.429 754.66,207.9 1082.1,399.58 l -154.39,264.08 c -391.5,-226.24 -426.54,-348.25 -905.27,-356.95 l -0.472,1.101 h -24.605 c -462.75,-20.536 -843.12,455.14 -1535.6,472.46 h -2.664 c -668.46,-21.077 -1055.3,-512.43 -1537.3,-496.75 z"
         id="path15"
         inkscape:connector-curvature="0"
         style="fill:#ffffff" />
      <path
         class="fil1"
         d="m 4230.9,17192 c -195.44,-31.349 -421.13,-129.61 -670.87,-223.02 -284.63,-111.2 -587.5,-215.97 -755.13,-213.23 -43.726,0 -74.76,7.52 -92.307,15.591 l -120.45,-283.44 c 68.882,-28.135 140.43,-37.306 212.76,-38.869 265.34,3.755 572.07,123.11 865.78,232.74 285.09,113.86 569.95,218.64 658.5,212.68 0,1.091 2.664,1.091 5.9572,1.091 419.8,10.273 998.05,-442.76 1569.3,-456.79 h 3.7552 8.6213 c 716.8,29.707 957.38,492.99 1574,477.32 h 4.3057 c 4.6301,-1.101 13.015,-1.101 25.942,0 467.05,5.407 806.68,-461.64 1488.6,-478.97 0,1.642 1.101,1.642 5.7213,1.642 0.7864,-1.642 1.3369,-1.642 1.8776,-1.642 h 4.866 8.926 c 657.88,30.248 1042.0997,514.07 1521.2997,497.3 l 2.428,-1.091 c 517.76,17.861 843.91,-442.76 1496.7,-463.3 h 0.08 c 698.63,11.364 1261.5,494.08 1597.4,474.66 v -1.101 c 305.08,12.455 1068.6,-430.85 1585.6,-442.76 56.967,0 115.27,6.507 173.34,23.268 l -88.001,294.81 c -20.3,-6.508 -49.133,-10.263 -85.338,-10.263 -372,-11.364 -1118.7,428.65 -1585.6,441.66 v 1.101 c -535.07,-20.535 -1039.1,-485.47 -1597.5,-475.21 h 0.08 c -461.17,-17.783 -803.23,447.16 -1496.8,463.3 l -2.428,1.642 c -668.4597,-21.076 -1056.0997,-512.42 -1536.9997,-496.75 h -17.862 c -501.62,-10.263 -829.58,451.38 -1487.3,478.97 v -0.08 h -11.836 l -7.5989,-1.573 v 1.573 c -786.16,-17.242 -1053.5,-490.8 -1578,-477.86 h -9.1717 c -407.42,-14.578 -990.84,442.76 -1573.2,456.86 l -99.601,-10.263 z"
         id="path17"
         inkscape:connector-curvature="0"
         style="fill:#ffffff" />
      <path
         class="fil1"
         d="m 1905.4,15645 m 10219,-278.03 h -23.347 c -489.47,-14.578 -885.45,438.44 -1544.6,457.88 h -22.728 l -3.922,-1.642 c -673.55,-24.291 -1020.2,-470.82 -1504.7,-457.89 l -5.7999,-1.012 c -309.23,1.012 -503.34,96.623 -720.72,208.36 -213.54,109.64 -454.2,241.92 -791.96,241.92 -11.443,0 -23.898,0 -38.083,-1.642 -556.39,-29.707 -1119.1,-488.61 -1541,-475.68 h -16.063 c -123.66,4.866 -409.69,109.64 -684.52,221.93 -296.84,115.52 -582.32,239.72 -815.07,244.58 h -22.02 l -1.8776,-1.101 c -601.77,-20.526 -1181.9,-472.46 -1541,-455.14 -550.67,8.621 -522.14,55.09 -941.48,297.47 l -155.71,-264 c 371.84,-226.79 522.62,-348.25 1096.5,-340.18 540.88,16.771 1105.5,469.24 1559.8,455.22 h 2.5854 1.8776 c 113.94,5.407 414.16,-104.77 701.92,-222.47 297,-115.6 581.55,-239.17 814.53,-242.94 h 0.5406 c 586.95,15.05 1159.3,481.08 1548.8,475.67 h 30.248 c 256.34,0 428.97,-92.936 650.9,-206.8 218.72,-113.94 482.57,-243.56 861.78,-241.91 10.263,0 21.312,0 19.985,1.091 658.73,24.842 997.0299,475.12 1508.8999,458.36 0,1.091 1.17,1.091 5.486,1.091 h 11.511 c 480.22,6.508 874.32,-434.61 1523.8,-458.43 h 15.591 c 690.32,17.322 1062.3,482.72 1524.7,463.84 h 0.619 c 555.14,10.263 1094.6,-428.73 1620.4,-445.42 3.923,0 12.927,0 26.719,1.573 471.52,15.119 804.11,293.78 973.38,374.73 l -139.73,274.36 c -223.65,-118.8 -491.97,-336.42 -849.16,-342.37 h -11.6 l -3.912,-1.651 c -341.36,-12.927 -932.24,436.34 -1616.1,445.5 l -0.619,1.022 c -641.88,-19.435 -996.26,-468.62 -1504.8,-464.31 z"
         id="path19"
         inkscape:connector-curvature="0"
         style="fill:#ffffff" />
    </g>
    <g
       id="g27"
       style="stroke-width:0.58898997">
      <path
         id="l3d_b"
         class="fil2"
         d="m 17285,19976 c 247.72,-55.017 247.72,-65.173 394.82,-160.57 329,517.87 1083.3,1646.8 1477.2,2211.3 425.33,-275.74 756.09,-711.13 1041.3,-1017.4 -1086,-775.1 -1307.7,-879.41 -2197.4,-1491.1 84.1,-180.47 111.61,-177.01 165.06,-404.56 1281,219.93 1578.8,287.69 2619.1,496.14 57.095,-769.93 56.91,-735.27 0,-1458.8 -1334,245.5 -1411.6,282.06 -2640.4,502 -18.279,-217.54 -28.939,-231.7 -155.82,-404.7 997.16,-664.18 1091.9,-719.35 2221.7,-1484.7 -276.7,-350.28 -505.36,-666.5 -1059.7,-1020.9 -473.24,679.1 -1003.7,1505 -1477.4,2183.7 -152.64,-103.21 -203.69,-126.29 -385.13,-150.42 152.69,-836.72 337.91,-1822.2 522.86,-2616.9 -609.68,-83.081 -889.85,-88.437 -1510.1,-17.584 230.87,964.76 245.5,1326.4 511.83,2610.9 -172.21,44.033 -211.17,47.079 -376.04,180.15 -591.36,-835.62 -903.18,-1338.3 -1509.4,-2189.8 -333.44,263 -728.12,590.34 -1045.7,1045.1 804.92,503.42 1135.5,771.36 2242.9,1427 -144.84,187.49 -128.82,181.12 -169.67,432.21 -933.1,-205.44 -1511.9,-318.16 -2582.5,-505.32 -184.12,475.08 -232.77,1160.8 -18.279,1468.1 1349.2,-281.14 1393,-285.43 2591.8,-514.41 64.066,226.76 65.496,259.03 146.78,404.69 -521.75,360.02 -1001.5,659.44 -2192.5,1509.3 374.14,496.14 391.31,527.62 1027.2,1026.6 510.26,-717.18 1112.1,-1624.9 1467.7,-2220.5 217.72,122.59 187.95,114.79 413.15,169.62 -228.98,1197.3 -298.31,1403.7 -499.97,2595 638.3,79.155 769.93,78.559 1481.5,9.831 -184.12,-962.64 -312.62,-1627 -505,-2613.9 z"
         inkscape:connector-curvature="0"
         style="fill:#f6bb00" />
      <path
         id="l3d_c"
         class="fil3"
         d="m 17041,22560 c 174.11,0 361.27,-14.632 654.36,-42.002 -175.39,-916.25 -301.82,-1569.8 -488.2,-2527.1 l 78.883,-15.279 17.167,77.777 -17.167,-77.777 -78.883,15.279 -14.95,-77.129 76.342,-16.71 c 250.3,-58.202 214.35,-51.833 368.42,-149.31 l 67.894,-43.385 43.251,67.708 c 315.34,496.92 1027.1,1562.2 1430.2,2143.9 351.57,-246.8 642.4,-608.39 900.32,-894.6 -1020.9,-725.67 -1250.5,-837.78 -2122.7,-1437.6 l -55.665,-38.451 28.48,-61.248 c 91.113,-193.99 107.5,-168.84 159.66,-389.1 l 16.849,-73.945 74.727,13.062 c 1244.5,213.84 1564.1,284.14 2532.6,478.96 v -0.05 c 23.536,-323.74 35.817,-491.15 35.632,-650.02 0.185,-158.55 -11.448,-314.83 -35.632,-617.75 -1249,231.01 -1350.3,270.94 -2553.3,486.25 l -86.492,15.605 -7.62,-88.113 c -22.893,-220.07 -12.876,-182.73 -140.59,-363.66 l -49.893,-68.08 70.111,-45.926 c 976.16,-650.06 1087.5,-716.85 2149.7,-1436.2 -243.29,-310.08 -457.96,-584.75 -921.65,-892.98 h 0.05 c -461.01,664.83 -973.2,1460.5 -1432.7,2120 l -45.331,64.853 -65.497,-44.682 c -153.93,-101.59 -172.72,-111.28 -351.43,-137.5 l -82.988,-11.493 15.095,-82.202 c 147.23,-807.46 325.17,-1753 503.75,-2535 -280.63,-36.187 -488.34,-54.374 -702.96,-54.374 -181.63,0 -369.11,12.877 -610.33,38.769 212.6,905.03 234.38,1283.7 491.52,2525.1 l 15.598,74.732 -74.263,19.061 c -178.72,48.323 -181.3,36.095 -345.71,164.92 l -66.609,54.189 -49.151,-69.608 c -576.12,-815.26 -886.99,-1312.8 -1460.4,-2121.3 -298.77,238.53 -634.46,526.6 -914.44,907.76 757.06,476.24 1098,745.93 2169.1,1380.2 l 78.05,46.113 -55.156,71.726 c -142.95,192.38 -107.31,131.82 -154.26,395.79 l -13.659,83.956 -82.85,-18.274 c -912.88,-200.69 -1484.8,-312.8 -2513.2,-493.28 -82.392,236.13 -131.55,519.49 -131.55,773.26 -0.781,206.87 33.883,393.25 99.42,514.92 1296.3,-269.87 1357,-277.82 2538.5,-503.29 l 72.051,-14.307 20.167,71.402 c 66.324,232.44 62.173,246.79 139.94,387.02 l 34.989,63.285 -59.498,41.815 c -513.9,354.43 -983.31,648.64 -2124.5,1460.3 315.76,418.54 352.5,464.98 896.95,894.6 497.89,-704.11 1073.4,-1572.2 1415.4,-2146.1 l 40.385,-67.436 67.901,38.498 c 225.15,125.45 163.49,103.66 392.93,161.36 l 73.759,17.816 -13.989,74.586 c -224.5,1171.4 -295.45,1394 -485.75,2511.2 278.41,33.374 453.35,49.621 638.89,49.621 z m -741.82,99.513 -83.128,-10.48 14.128,-82.989 c 197.36,-1167.5 268.26,-1391.7 485.47,-2522 -130.07,-31.799 -166.62,-49.291 -291.48,-120.24 -361.27,598.19 -938.5,1465.6 -1430.9,2158.2 l -48.648,68.356 -66.324,-51.508 c -633.96,-497.1 -669.78,-547 -1041.7,-1041.6 l -49.615,-66.464 67.113,-47.357 c 1147.3,-817.75 1636.3,-1128 2134.4,-1469.2 -46.112,-91.621 -62.359,-152.5 -99.698,-286.86 -1128.7,215.46 -1196.1,224.83 -2517.8,500.06 l -51.832,10.984 -30.236,-42.922 c -113.82,-165.38 -154.99,-398.47 -155.82,-650.85 0,-298.31 61.849,-624.45 165.38,-892.66 l 23.218,-61.068 65.219,11.123 c 1038.7,181.77 1616.3,293.69 2501.9,487.83 21.279,-140.55 38.492,-203.69 117.65,-312.43 -1048.2,-624.63 -1384.2,-892.85 -2166.5,-1382.2 l -71.542,-44.491 48.329,-69.051 c 324.7,-465.9 727,-798.64 1061.5,-1062.3 l 66.324,-52.249 48.648,68.635 c 591.04,829.47 902.4,1328 1461,2121.2 99.05,-73.157 167.59,-98.588 265.03,-124.34 -251.69,-1227.1 -269.97,-1592.6 -495.95,-2533.3 l -21.001,-87.604 90.324,-10.34 c 288.48,-33.049 506.01,-49.939 718.15,-49.939 246.29,0 483.21,22.523 811.89,67.523 l 87.007,11.771 -19.894,85.756 c -178.26,767.03 -357.3,1713.9 -506.93,2531.9 106.2,19.385 178.58,49.621 270.34,107.5 460.78,-664.51 972.97,-1460.1 1432.4,-2119.3 l 43.9,-63.279 65.173,41.126 c 564.67,360.16 804.64,691.24 1079.1,1038.7 l 53.725,67.754 -71.217,48.972 c -1103.1,746.9 -1220.9,817.93 -2152.3,1438 69.978,98.725 99.241,166.95 113.55,290.37 v -0.05 c 1145.2,-205.76 1250.3,-246.61 2553.8,-486.53 l 87.279,-16.386 7.294,88.575 c 27.834,361.73 42.651,535.87 42.651,719.21 0,182.55 -14.633,367.96 -42.651,752.44 l -7.294,90.469 -88.756,-17.955 c -1020.8,-204.66 -1324.6,-273.2 -2543.4,-483.26 -38.492,142.16 -71.541,186.38 -122.59,286.22 840.04,575.98 1077,692.67 2141.7,1452.5 l 73.806,52.475 -61.711,67.066 c -281.92,301.82 -615.73,743.9 -1056.5,1030.4 l -65.358,42.603 -44.079,-63.927 c -378.76,-542.57 -1086.8,-1600.6 -1435.1,-2145.3 -79.989,50.217 -135.61,76.296 -277.31,109.72 183.98,945.7 310.58,1600.5 489.9,2537.8 l 16.571,86.174 -87.603,8.261 c -345.25,33.745 -556.09,51.19 -757.24,51.19 -214.02,0 -412.64,-19.709 -741.82,-60.419 z"
         inkscape:connector-curvature="0"
         style="fill:#1f1a17" />
      <path
         id="l3d_d"
         class="fil0"
         d="m 17021,18263 c 327.57,0 595.09,267.34 595.09,595.37 0,327.71 -267.52,595.18 -595.09,595.18 -328.03,0 -595.7,-267.48 -595.7,-595.18 0,-328.03 267.66,-595.37 595.7,-595.37 z"
         inkscape:connector-curvature="0"
         style="fill:#0061a5" />
      <path
         id="l3d_e"
         class="fil3"
         d="m 16337,18859 c 0.324,-377.19 306.66,-682.97 683.21,-683.44 v 175.86 c -278.97,0.509 -506.84,228.34 -507.26,507.58 h 0.05 c 0.37,278.88 228.24,506.8 507.21,507.07 279.29,-0.278 507.21,-228.2 507.9,-507.07 -0.689,-279.25 -228.61,-507.07 -507.9,-507.58 v -175.86 c 376.82,0.464 683.11,306.25 683.67,683.44 -0.557,376.36 -306.9,682.79 -683.67,682.79 -376.54,0 -682.88,-306.38 -683.21,-682.79 z"
         inkscape:connector-curvature="0"
         style="fill:#1f1a17" />
    </g>
  </g>
  <circle
     cx="135.54"
     cy="135.2"
     r="116.33"
     stop-color="#000000"
     style="paint-order:markers fill stroke;fill:#000080;fill-opacity:1;stroke:#f2f2f2"
     id="circle31"
     stroke-linejoin="round"
     stroke-linecap="round"
     stroke-width="37.401"
     stroke="#000080"
     fill="none" />
  <path
     style="fill:#ffffff;stroke-width:0;stroke-miterlimit:10"
     inkscape:connector-curvature="0"
     id="path83"
     d="m 160.92961,189.12551 c -2.86969,5.53361 -5.7392,11.06723 -8.60889,16.60106 -1.84489,-3.40241 -3.68985,-6.80459 -5.53469,-10.207 -6.91448,1.74503 -14.15465,1.76411 -21.10582,0.048 -1.77571,3.41063 -3.55149,6.82106 -5.32713,10.23169 -3.15447,-5.55467 -5.93475,-11.52911 -9.32004,-16.82501 -15.146131,-9.8854 -24.681117,-29.60044 -23.96324,-49.34722 0.195937,-19.28975 10.260251,-37.62851 25.20583,-46.479154 l -0.12847,-12.24606 45.75752,-0.104087 0.12847,12.24606 c 15.27143,8.820991 25.65473,27.337381 26.24092,46.746491 0.85762,24.27137 -9.44988,39.63487 -23.34483,49.33607 z m 50.52405,-56.2992 c -3.2265,-0.59229 -9.63243,-1.22652 -15.72801,-2.46778 -0.67417,-4.49381 -1.82489,-8.89282 -3.25172,-13.15603 4.05134,-3.84207 8.10268,-7.68436 12.15402,-11.52643 -2.00301,-5.01789 -4.56445,-9.725935 -7.36913,-14.21598 -4.95261,2.116313 -9.9054,4.232627 -14.85801,6.349049 -2.59876,-3.530465 -5.50095,-6.773261 -8.64956,-9.665249 1.79828,-5.640008 3.59664,-11.280016 5.39477,-16.920024 -3.98104,-3.154616 -8.2076,-5.927331 -12.64315,-8.156276 -3.33583,4.644156 -6.67167,9.288096 -10.0075,13.932252 -3.77766,-1.58486 -7.68243,-2.767445 -11.651,-3.500156 -0.9437,-5.937808 -1.88738,-11.875832 -2.83102,-17.81364 -4.82726,-0.486557 -9.68146,-0.474586 -14.49829,0.03298 -0.81951,5.941818 -1.63904,11.883853 -2.45847,17.825672 -3.95179,0.758674 -7.83223,1.950051 -11.57702,3.552994 -3.43272,-4.628759 -6.86526,-9.257303 -10.2978,-13.886062 -4.398071,2.232845 -8.541488,5.063468 -12.471423,8.213405 1.916526,5.631558 3.832939,11.263116 5.749503,16.894674 -3.060246,2.91842 -5.941325,6.114773 -8.398593,9.704029 -5.011424,-2.093648 -10.022849,-4.187295 -15.034084,-6.281051 -2.721266,4.496137 -5.168658,9.226373 -7.076047,14.248843 4.132138,3.82345 8.264469,7.64712 12.396607,11.47058 -1.363239,4.26394 -2.358373,8.67993 -2.977062,13.1702 -5.230873,1.00976 -10.461745,2.01954 -15.692808,3.02921 -0.354982,5.46247 -0.297689,10.962 0.172279,16.42237 5.25183,0.98799 10.50366,1.976 15.75568,2.96394 0.710983,4.48531 1.793987,8.89721 3.253173,13.14977 -4.051699,3.84423 -8.103589,7.68846 -12.155289,11.53269 2.028134,4.99969 4.538197,9.74521 7.374577,14.2082 4.967286,-2.11378 9.934573,-4.22752 14.901668,-6.34138 2.541865,3.56774 5.477064,6.76403 8.601772,9.66385 -1.798297,5.63849 -3.59648,11.27699 -5.394816,16.91549 3.996396,3.13082 8.196583,5.94743 12.643153,8.15627 3.33526,-4.64458 6.6707,-9.28917 10.00596,-13.93376 3.77306,1.60064 7.68187,2.78667 11.65108,3.50793 0.94412,5.93587 1.88825,11.87173 2.83229,17.80759 4.82768,0.49014 9.68131,0.47876 14.49829,-0.033 0.81909,-5.93987 1.63817,-11.87975 2.4572,-17.81962 3.95436,-0.73106 7.838,-1.94413 11.57694,-3.56077 3.43311,4.62919 6.86622,9.25838 10.29933,13.88757 4.39053,-2.24492 8.55581,-5.04212 12.47143,-8.2134 -1.91651,-5.63005 -3.83291,-11.2601 -5.74945,-16.89014 3.09125,-2.90165 5.91276,-6.17042 8.44638,-9.70263 4.99674,2.09111 9.99367,4.18218 14.99041,6.27338 2.73189,-4.48191 5.15703,-9.22808 7.07061,-14.24105 -4.13178,-3.82562 -8.26356,-7.65124 -12.39534,-11.47685 1.34443,-4.26476 2.39769,-8.6703 2.97561,-13.16394 5.23142,-1.01183 10.46265,-2.02369 15.69407,-3.03548 0.18394,-4.89524 0.0273,-13.6826 -0.20117,-16.91247 z" />
  <g
     transform="matrix(2.0461476,-0.23056897,0.23056897,2.0461476,-87.215323,-764.32008)"
     id="g39"
     style="fill-rule:evenodd">
    <path
       d="m 27.637,430.02 c 2.2771,-0.78274 9.0727,-1.9924 11.136,-1.8857 2.0636,0.10668 8.7169,0.53369 10.638,0.81833 1.9213,0.28463 13.307,2.6329 16.011,3.5223 2.704,0.88948 12.204,4.1628 14.837,5.7638 2.6329,1.6011 4.5541,2.7396 4.5541,2.7396 0,0 1.5299,-3.7714 2.0636,-3.9849 0.53369,-0.21348 4.056,0.71158 4.056,0.71158 0,0 2.0992,0.1779 2.4194,0.92506 0.32021,0.74717 0.60485,7.9698 0.49811,8.29 -0.10674,0.32021 -0.1779,0.64043 -0.1779,0.64043 0,0 2.4194,2.455 2.8819,3.0954 0.46253,0.64043 1.1385,1.8501 1.1385,1.8501 0,0 4.8388,0.0355 5.3725,0.0712 0.53369,0.0355 5.5504,1.0674 5.4792,1.2809 -0.0712,0.21347 -8.8948,1.2097 -9.0727,1.1385 -0.1779,-0.0712 -0.39137,-0.49811 -0.71158,-0.46253 -0.32021,0.0355 0.32021,1.1385 0.03558,2.3126 -0.28463,1.1741 -1.2097,2.2771 -2.2415,3.0242 -1.0318,0.74716 -3.3444,1.779 -3.8426,1.9924 -0.49811,0.21347 -0.8539,0.28463 -0.81832,0.53369 0.03558,0.24905 0.96064,-0.42695 1.2809,-0.46253 0.32021,-0.0355 0.67601,0.39137 0.71158,0.88948 0.03558,0.49811 -0.10674,6.6177 -0.10674,6.6177 0,0 -5.5859,0.88948 -5.835,0.81832 -0.24906,-0.0712 -0.56927,-0.17789 -0.8539,-0.53369 -0.28463,-0.35579 -2.455,-5.5504 -2.455,-5.5504 0,0 -6.938,1.2453 -8.4679,1.352 -1.5299,0.10668 -11.457,0.64043 -12.951,0.49811 -1.494,-0.14232 -15.797,-2.3126 -18.679,-3.2377 -2.8819,-0.92506 -12.915,-4.6253 -16.651,-7.1158 -5.641,-4.3819 -12.257,-8.3102 -11.913,-17.024 2.0124,-4.9024 7.289,-7.0885 11.664,-8.6282 z"
       id="path33"
       inkscape:connector-curvature="0"
       style="fill:#cccccc;stroke:#000000;stroke-width:0.542;fill-opacity:1" />
    <path
       d="m 68.518,464.35 c 0,0 -1.4943,6.5466 -1.9924,6.5466 -0.49811,0 -14.659,0.71158 -15.726,-0.42695 -1.0674,-1.1385 -1.1385,-7.614 -1.1385,-7.614 0,0 0.42695,-0.99622 1.9213,-1.0674 1.4943,-0.0712 16.936,2.5617 16.936,2.5617 z"
       id="path35"
       inkscape:connector-curvature="0"
       style="fill:#686868;stroke:#000000;stroke-width:0.22770999" />
    <path
       d="m 17.303,436.26 c 0.9057,-0.95602 1.7108,-1.2076 2.3146,-0.9057 0.6038,0.3019 1.6604,1.107 1.8114,2.5158 0.15095,1.4089 0.10064,3.1448 -0.57864,4.4027 -0.67928,1.2579 -1.4089,1.8617 -2.2391,1.912 -0.83022,0.0503 -1.912,-1.0315 -2.1888,-1.7108 -0.90421,-4.1682 -1.1906,-2.9691 0.88054,-6.2141 z"
       id="path37"
       style="fill:url(#l3d_a)"
       inkscape:connector-curvature="0" />
  </g>
  <g
     transform="matrix(0.58786385,0.03651134,-0.03651134,0.58786385,-179.69579,69.417922)"
     id="g81"
     inkscape:transform-center-x="2.2309265"
     inkscape:transform-center-y="-81.431405"
     style="fill:#000080;stroke-width:1.16949999;fill-opacity:1">
    <path
       d="m 337.56,8.9167 -2.5728,9.8683 27.726,7.2286 -1.5874,6.0884 -27.726,-7.2286 -2.5728,9.8683 -5.002,-1.3041 6.733,-25.825 z"
       style="color:#000000;fill:#000080;fill-opacity:1"
       id="path41"
       inkscape:connector-curvature="0" />
    <path
       d="m 359.56,-4.9745 q -1.0325,-0.44095 -2.0646,-0.52563 -1.0444,-0.11538 -1.9808,0.17144 -0.93638,0.28681 -1.7094,1.0249 -0.78536,0.70739 -1.2906,1.8905 -0.98295,2.3016 -0.24036,4.1957 0.75178,1.8725 3.0048,3.2671 z m -1.1217,11.5 q 1.7545,0.59667 3.2042,0.65625 1.4282,0.050403 2.5763,-0.3749 1.1266,-0.43449 1.9854,-1.314 0.84652,-0.91018 1.3977,-2.2008 0.55118,-1.2906 0.64505,-2.3442 0.10306,-1.0751 0.0313,-1.9196 -0.0625,-0.86603 -0.1432,-1.5109 -0.0715,-0.66638 0.13979,-1.1611 0.28479,-0.66683 0.91733,-0.7782 l 2.5882,-0.70048 q 0.65588,1.3229 0.89722,2.7231 0.21982,1.391 0.1356,2.7793 -0.0966,1.3576 -0.45729,2.6788 -0.35154,1.2996 -0.84762,2.4612 -0.98295,2.3016 -2.581,3.9591 -1.6196,1.6483 -3.7285,2.4771 -2.1304,0.81967 -4.6828,0.72156 -2.5739,-0.10729 -5.4778,-1.3475 -2.2586,-0.96459 -3.9253,-2.5411 -1.6882,-1.5857 -2.5721,-3.5656 -0.89631,-2.0106 -0.92076,-4.3355 -0.0153,-2.3464 1.0412,-4.8202 0.8911,-2.0865 2.3112,-3.5656 1.4201,-1.4791 3.2528,-2.197 1.8111,-0.72712 3.9857,-0.63775 2.1623,0.05867 4.55,1.0784 1.2046,0.51445 1.5246,0.9563 0.29847,0.43267 -0.0139,1.164 z"
       style="color:#000000;fill:#000080;fill-opacity:1"
       id="path43"
       inkscape:connector-curvature="0" />
    <path
       d="m 369.78,-32.045 q 0.14887,0.38894 0.17731,0.70581 0.0404,0.29679 -0.19978,0.6982 -0.22822,0.38135 -0.6652,0.61049 -0.45706,0.21714 -1.0383,0.55074 -0.60135,0.32159 -1.2425,0.89194 -0.64924,0.53827 -1.2618,1.5619 -0.78074,1.3046 -0.88761,2.5763 -0.12693,1.2597 0.35979,2.4506 0.49875,1.1708 1.571,2.2486 1.0522,1.0658 2.6378,2.0147 1.6458,0.98494 3.1345,1.4125 1.5007,0.40747 2.7802,0.27364 1.2594,-0.14584 2.2856,-0.8129 1.0061,-0.67906 1.7148,-1.8632 0.70867,-1.1842 0.86009,-2.0749 0.14336,-0.92278 0.10246,-1.6287 -0.061,-0.71797 -0.12577,-1.2474 -0.0728,-0.56151 0.20341,-1.0231 0.36034,-0.60212 1.0021,-0.62691 l 2.6592,-0.34399 q 0.47092,1.3994 0.55671,2.7592 0.0657,1.3478 -0.15748,2.6317 -0.23124,1.2518 -0.7313,2.4518 -0.48805,1.1799 -1.1367,2.2637 -1.1411,1.9067 -2.8525,3.1722 -1.7315,1.2535 -3.853,1.7012 -2.1215,0.44767 -4.5329,0.01317 -2.4194,-0.46659 -4.9483,-1.98 -2.268,-1.3573 -3.8104,-3.1527 -1.5505,-1.8274 -2.1987,-3.9327 -0.6683,-2.1173 -0.35406,-4.4643 0.31424,-2.347 1.7676,-4.7756 1.3813,-2.3081 3.1569,-3.5898 1.7876,-1.3017 4.0013,-1.8578 z"
       style="color:#000000;fill:#000080;fill-opacity:1"
       id="path45"
       inkscape:connector-curvature="0" />
    <path
       d="m 378.45,-47.077 q -0.12594,-1.9156 0.30607,-3.7376 0.43201,-1.822 1.8679,-3.5787 1.2435,-1.5212 2.7309,-2.269 1.4693,-0.76263 3.0476,-0.77157 1.5749,-0.04185 3.2045,0.62558 1.6263,0.63452 3.1837,1.9076 l 11.826,9.6667 -3.6565,4.4731 -11.826,-9.6667 q -1.7023,-1.3915 -3.2625,-1.3678 -1.5782,0.0089 -2.881,1.6026 -0.94742,1.159 -1.2512,2.6025 -0.30381,1.4434 -0.1385,3.0891 l 13.437,10.984 -3.6564,4.4731 -26.911,-21.998 3.6564,-4.4731 z"
       style="color:#000000;fill:#000080;fill-opacity:1"
       id="path47"
       inkscape:connector-curvature="0" />
    <path
       d="m 399.82,-70.184 q 0.0581,-1.0238 0.24643,-2.0071 0.19021,-1.0163 0.57294,-1.9223 0.38462,-0.939 0.99665,-1.7988 0.59647,-0.87728 1.5039,-1.6872 1.4658,-1.3084 3.0517,-1.8147 1.5704,-0.52382 3.1306,-0.28618 1.5622,0.20462 3.0675,1.1184 1.5072,0.8807 2.8467,2.3814 l 10.171,11.395 -4.3101,3.8472 -10.171,-11.395 q -1.4641,-1.6403 -3.0088,-1.8605 -1.5603,-0.23764 -3.0959,1.133 -1.1168,0.99684 -1.6423,2.3751 -0.52549,1.3783 -0.61921,3.0296 l 11.557,12.948 -4.3101,3.8472 -15.981,-17.904 2.6349,-2.3519 q 0.8376,-0.74764 1.8003,-0.19602 z"
       style="color:#000000;fill:#000080;fill-opacity:1"
       id="path49"
       inkscape:connector-curvature="0" />
    <path
       d="m 421.76,-91.09 13.263,20.001 -4.8345,3.2058 -13.263,-20.001 z m -3.2022,-6.2682 q 0.41364,0.6238 0.52217,1.3377 0.10852,0.71388 -0.0489,1.4076 -0.13791,0.68083 -0.53518,1.3091 -0.4102,0.6088 -1.0535,1.0354 -0.62381,0.41365 -1.3442,0.55458 -0.71387,0.10853 -1.3947,-0.02939 -0.68082,-0.13791 -1.2962,-0.51569 -0.59586,-0.39071 -1.0095,-1.0145 -0.42657,-0.64329 -0.56752,-1.3637 -0.12145,-0.73337 0.0165,-1.4142 0.13791,-0.68083 0.52862,-1.2767 0.39727,-0.62829 1.0211,-1.0419 0.6433,-0.42658 1.3767,-0.54802 0.72044,-0.14094 1.4013,-0.003 0.70031,0.12499 1.3286,0.52226 0.62828,0.39728 1.0549,1.0406 z"
       style="color:#000000;fill:#000080;fill-opacity:1"
       id="path51"
       inkscape:connector-curvature="0" />
    <path
       d="m 446.56,-100.24 q -0.0232,0.44072 -0.16893,0.70863 -0.15704,0.24745 -0.50486,0.44017 -0.36827,0.20404 -0.91128,0.2375 -0.52255,0.02213 -1.211,0.08268 -0.69978,0.0401 -1.5292,0.23226 -0.80898,0.18083 -1.7706,0.71362 -1.4936,0.82753 -2.0014,1.9379 -0.48743,1.099 0.0794,2.122 0.37409,0.67517 1.0645,0.90769 0.69951,0.20072 1.6083,0.15177 0.92927,-0.06028 2.0086,-0.28396 1.0681,-0.24414 2.1906,-0.43825 1.143,-0.20543 2.3017,-0.28589 1.1474,-0.10093 2.2262,0.15702 1.088,0.22616 2.0164,0.88832 0.9489,0.65084 1.6517,1.9193 0.83886,1.514 1.0006,3.109 0.17088,1.5632 -0.37157,3.0939 -0.55379,1.5102 -1.8344,2.915 -1.2715,1.373 -3.3175,2.5066 -1.0844,0.6008 -2.2412,0.97434 -1.125,0.38267 -2.2793,0.56765 -1.1339,0.17363 -2.213,0.15651 -1.0587,-0.02847 -1.9785,-0.2408 l 0.10062,-2.5694 q 0.0324,-0.4725 0.23721,-0.82669 0.20488,-0.35418 0.67545,-0.6149 0.47058,-0.26073 1.0271,-0.22147 0.57703,0.02792 1.2995,0.02874 0.72245,8.24e-4 1.6064,-0.14129 0.90437,-0.15346 2.0501,-0.78827 0.90024,-0.49879 1.4211,-1.0548 0.53002,-0.58781 0.7465,-1.1623 0.23694,-0.58586 0.17169,-1.138 -0.0561,-0.58393 -0.32819,-1.075 -0.4081,-0.73655 -1.1189,-0.95772 -0.69038,-0.23252 -1.6196,-0.17225 -0.9088,0.04895 -1.9973,0.30443 -1.0794,0.22368 -2.2428,0.44046 -1.143,0.20543 -2.3222,0.29724 -1.1701,0.06 -2.2807,-0.20707 -1.0902,-0.2784 -2.0844,-1.0111 -0.97378,-0.74401 -1.7446,-2.1353 -0.71416,-1.289 -0.84882,-2.7386 -0.13467,-1.4496 0.37128,-2.853 0.51509,-1.4352 1.7048,-2.7629 1.1988,-1.3595 3.1425,-2.4364 2.1687,-1.2016 4.3455,-1.4718 2.1768,-0.27014 4.0096,0.23857 z"
       style="color:#000000;fill:#000080;fill-opacity:1"
       id="path53"
       inkscape:connector-curvature="0" />
    <path
       d="m 472.54,-111.02 q -0.11864,0.39921 -0.28895,0.66792 -0.14856,0.2601 -0.5835,0.43236 -0.41319,0.16364 -0.89938,0.0795 -0.49479,-0.10594 -1.159,-0.19508 -0.67286,-0.11089 -1.5287,-0.0487 -0.84275,0.0319 -1.9518,0.47112 -1.4136,0.55983 -2.2724,1.5038 -0.86749,0.92221 -1.2062,2.1633 -0.31693,1.2325 -0.12228,2.7403 0.18604,1.4861 0.86645,3.2041 0.70624,1.7832 1.6272,3.0286 0.94266,1.2368 2.0393,1.9094 1.088,0.65089 2.3082,0.74626 1.2116,0.07363 2.4946,-0.43452 1.2831,-0.50815 1.9454,-1.1227 0.67545,-0.64487 1.0727,-1.2299 0.38863,-0.60676 0.6595,-1.0662 0.28399,-0.48985 0.78417,-0.68794 0.6524,-0.25838 1.1767,0.11261 l 2.3192,1.3457 q -0.47821,1.397 -1.2378,2.528 -0.76824,1.1093 -1.7268,1.9921 -0.94544,0.85244 -2.0726,1.5001 -1.1054,0.63906 -2.2798,1.1042 -2.066,0.81821 -4.1941,0.78054 -2.1368,-0.05942 -4.0925,-0.9956 -1.9557,-0.93618 -3.6044,-2.7487 -1.6356,-1.8429 -2.7208,-4.583 -0.97325,-2.4574 -1.1042,-4.8207 -0.11779,-2.3937 0.64936,-4.4585 0.75854,-2.0866 2.4365,-3.7575 1.6779,-1.6709 4.3093,-2.713 2.5009,-0.99047 4.6898,-0.92653 2.2107,0.0553 4.3055,0.96157 z"
       style="color:#000000;fill:#000080;fill-opacity:1"
       id="path55"
       inkscape:connector-curvature="0" />
    <path
       d="m 487.26,-117.75 q 1.058,-1.6018 2.5039,-2.7918 1.4458,-1.1899 3.6517,-1.7207 1.9102,-0.45966 3.5471,-0.15585 1.6314,0.28106 2.8938,1.2283 1.2797,0.91902 2.174,2.436 0.91157,1.4888 1.3822,3.4445 l 3.5733,14.85 -5.6171,1.3516 -3.5733,-14.85 q -0.51439,-2.1377 -1.7713,-3.0622 -1.2624,-0.94723 -3.2636,-0.46568 -1.4554,0.35022 -2.5702,1.3162 -1.1148,0.96594 -1.9783,2.3766 l 4.0604,16.874 -5.6171,1.3516 -8.1316,-33.793 5.6171,-1.3516 z"
       style="color:#000000;fill:#000080;fill-opacity:1"
       id="path57"
       inkscape:connector-curvature="0" />
    <path
       d="m 524.7,-117.03 q -0.1204,-1.1163 -0.55132,-2.0579 -0.41018,-0.96737 -1.1183,-1.6438 -0.70816,-0.67646 -1.73,-0.9897 -1.0011,-0.33902 -2.2802,-0.20107 -2.4883,0.26838 -3.7772,1.8425 -1.2656,1.5716 -1.38,4.2188 z m -10.58,4.6464 q 0.33768,1.8221 0.99478,3.1158 0.65458,1.2704 1.5871,2.0638 0.92999,0.77015 2.1172,1.0891 1.2079,0.29319 2.6032,0.14269 1.3953,-0.15049 2.3602,-0.58392 0.98812,-0.43594 1.6896,-0.91154 0.72479,-0.47812 1.2478,-0.86389 0.54627,-0.38828 1.0811,-0.44597 0.72092,-0.0778 1.1274,0.4195 l 1.8769,1.9149 q -0.83308,1.2191 -1.9363,2.1144 -1.1058,0.87208 -2.3579,1.4776 -1.2314,0.5798 -2.5601,0.91133 -1.3055,0.32901 -2.5613,0.46445 -2.4883,0.26838 -4.7156,-0.3148 -2.2298,-0.60644 -3.9842,-2.0405 -1.757,-1.4573 -2.9197,-3.7316 -1.1653,-2.2975 -1.5039,-5.437 -0.26336,-2.4418 0.29656,-4.6666 0.55742,-2.248 1.852,-3.9874 1.3153,-1.7652 3.3312,-2.9236 2.0392,-1.161 4.7135,-1.4494 2.2558,-0.2433 4.2405,0.27195 1.9847,0.51524 3.5072,1.7626 1.5201,1.2241 2.5057,3.1645 1.0064,1.9147 1.2848,4.496 0.14046,1.3023 -0.0884,1.7975 -0.2314,0.47195 -1.0221,0.55723 z"
       style="color:#000000;fill:#000080;fill-opacity:1"
       id="path59"
       inkscape:connector-curvature="0" />
    <path
       d="m 549.06,-121.84 q -0.2339,0.37425 -0.4912,0.53798 -0.25729,0.14034 -0.65492,0.14034 -0.42103,0 -0.91222,-0.2339 -0.46781,-0.2339 -1.0993,-0.51459 -0.63154,-0.30407 -1.4502,-0.53797 -0.79527,-0.2339 -1.8946,-0.2339 -1.7075,0 -2.6899,0.72509 -0.959,0.7251 -0.959,1.8946 0,0.77188 0.4912,1.3098 0.51458,0.51459 1.3332,0.91222 0.84205,0.39764 1.8946,0.7251 1.0526,0.30407 2.1285,0.67831 1.0993,0.37425 2.1519,0.86545 1.0526,0.4678 1.8712,1.2163 0.84204,0.7251 1.3332,1.7543 0.51459,1.0292 0.51459,2.4794 0,1.7309 -0.63154,3.2045 -0.60815,1.4502 -1.8244,2.5262 -1.2163,1.0526 -3.0173,1.6607 -1.7777,0.58476 -4.1167,0.58476 -1.2397,0 -2.4326,-0.23391 -1.1695,-0.21051 -2.2689,-0.60814 -1.076,-0.39764 -2.0116,-0.93561 -0.91222,-0.53798 -1.6139,-1.1695 l 1.3332,-2.1987 q 0.25729,-0.39763 0.60815,-0.60815 0.35085,-0.21051 0.88882,-0.21051 0.53798,0 1.0058,0.30407 0.49119,0.30408 1.1227,0.65493 0.63153,0.35085 1.4736,0.65493 0.86544,0.30407 2.1753,0.30407 1.0292,0 1.7543,-0.2339 0.74848,-0.25729 1.2163,-0.65493 0.49119,-0.39763 0.70171,-0.91222 0.2339,-0.53797 0.2339,-1.0993 0,-0.84205 -0.51459,-1.38 -0.49119,-0.53798 -1.3332,-0.93562 -0.81866,-0.39763 -1.8946,-0.7017 -1.0526,-0.32747 -2.1753,-0.70171 -1.0994,-0.37425 -2.1753,-0.86544 -1.0526,-0.51459 -1.8946,-1.2865 -0.81866,-0.77187 -1.3332,-1.8946 -0.4912,-1.1227 -0.4912,-2.7133 0,-1.4736 0.58476,-2.8068 0.58475,-1.3332 1.7075,-2.3156 1.1461,-1.0058 2.8302,-1.5905 1.7075,-0.60815 3.9296,-0.60815 2.4794,0 4.5143,0.81866 2.0349,0.81866 3.3916,2.1519 z"
       style="color:#000000;fill:#000080;fill-opacity:1"
       id="path61"
       inkscape:connector-curvature="0" />
    <path
       d="m 613.7,-123.58 -8.859,32.642 -6.0949,-1.6542 3.872,-14.267 -15.328,-4.1599 -3.872,14.267 -6.0949,-1.6542 8.859,-32.642 6.0949,1.6542 -3.8107,14.041 15.328,4.1599 3.8107,-14.041 z"
       style="color:#000000;fill:#000080;fill-opacity:1"
       id="path63"
       inkscape:connector-curvature="0" />
    <path
       d="m 626.13,-106.45 -10.492,21.583 -5.2171,-2.536 10.492,-21.583 z m 3.7728,-5.9422 q -0.32723,0.67317 -0.88706,1.1292 -0.55982,0.45608 -1.2373,0.67291 -0.65651,0.22703 -1.3996,0.20392 -0.73276,-0.0441 -1.427,-0.38157 -0.67309,-0.32718 -1.1605,-0.87622 -0.45607,-0.55978 -0.68309,-1.2163 -0.22704,-0.6565 -0.21421,-1.3785 0.034,-0.7117 0.36119,-1.3849 0.33745,-0.6942 0.88637,-1.1816 0.57005,-0.47712 1.2266,-0.70413 0.65652,-0.22703 1.3682,-0.19315 0.74308,0.0231 1.4162,0.35029 0.69422,0.33746 1.1713,0.90749 0.48742,0.54902 0.71445,1.2055 0.24798,0.66669 0.22493,1.4097 -0.023,0.74301 -0.3605,1.4372 z"
       style="color:#000000;fill:#000080;fill-opacity:1"
       id="path65"
       inkscape:connector-curvature="0" />
    <path
       d="m 643.52,-109.81 -17.261,30.169 -5.0146,-2.8691 17.261,-30.169 z"
       style="color:#000000;fill:#000080;fill-opacity:1"
       id="path67"
       inkscape:connector-curvature="0" />
    <path
       d="m 634.99,-74.593 10.908,-16.342 -1.5496,-1.4281 q -0.48626,-0.49332 -0.65463,-0.99943 -0.13593,-0.51257 0.21469,-1.0378 l 1.3116,-1.9649 2.9765,1.9868 0.98694,-1.4785 q 1.1428,-1.712 2.5576,-2.7361 1.4343,-1.0112 3.0238,-1.3281 1.609,-0.30396 3.3279,0.11222 1.7189,0.41619 3.4503,1.5719 1.3813,0.922 2.3212,2.0838 l -1.7075,2.3474 q -0.20126,0.25937 -0.45431,0.34357 -0.24006,0.06473 -0.53845,0.0062 -0.26596,-0.06499 -0.58372,-0.22091 -0.30481,-0.17533 -0.63553,-0.39609 -0.85599,-0.57138 -1.6668,-0.83134 -0.77832,-0.26644 -1.5569,-0.11119 -0.76558,0.13578 -1.5249,0.72568 -0.72692,0.58343 -1.4671,1.6923 l -0.88304,1.3229 5.1943,3.4672 -2.2855,3.424 -5.0387,-3.3633 -10.921,16.361 z"
       style="color:#000000;fill:#000080;fill-opacity:1"
       id="path69"
       inkscape:connector-curvature="0" />
    <path
       d="m 671.18,-72.134 q -0.41708,0.14428 -0.72013,0.11006 -0.28835,-0.05242 -0.59775,-0.30219 -0.32759,-0.26446 -0.56287,-0.755 -0.21707,-0.47584 -0.53216,-1.0909 -0.3004,-0.6333 -0.79046,-1.3295 -0.47188,-0.68154 -1.3273,-1.3721 -1.3286,-1.0726 -2.5484,-1.1254 -1.2017,-0.03819 -1.9363,0.87181 -0.48485,0.6006 -0.44058,1.3277 0.0772,0.72364 0.46439,1.5473 0.40542,0.83833 1.0187,1.7543 0.62799,0.89776 1.2301,1.8648 0.62031,0.98175 1.1308,2.0251 0.52514,1.0252 0.69198,2.1218 0.19973,1.0931 -0.0645,2.2025 -0.24608,1.124 -1.157,2.2524 -1.0872,1.3468 -2.5043,2.0967 -1.3841,0.7464 -3.0064,0.81958 -1.6076,0.05498 -3.391,-0.60314 -1.7505,-0.66163 -3.5705,-2.1309 -0.96459,-0.7787 -1.7459,-1.71 -0.77776,-0.89842 -1.3834,-1.8984 -0.58742,-0.98525 -0.97749,-1.9915 -0.37187,-0.99161 -0.52117,-1.9238 l 2.4185,-0.87333 q 0.44997,-0.14777 0.85521,-0.09119 0.40523,0.05659 0.82382,0.39452 0.4186,0.33793 0.5916,0.86837 0.19119,0.54515 0.4622,1.2148 0.27102,0.66969 0.73521,1.4352 0.48239,0.78022 1.5016,1.603 0.8008,0.64647 1.5119,0.91994 0.74401,0.26996 1.3578,0.25441 0.63197,-8.5e-4 1.119,-0.26902 0.51992,-0.27167 0.87255,-0.70847 0.52892,-0.6552 0.46645,-1.397 -0.0443,-0.72714 -0.44969,-1.5655 -0.38722,-0.82362 -1.0334,-1.7361 -0.6133,-0.91596 -1.2518,-1.9124 -0.62031,-0.98175 -1.149,-2.0398 -0.49576,-1.0616 -0.6661,-2.1911 -0.15215,-1.1148 0.15269,-2.3117 0.32304,-1.1821 1.3221,-2.4197 0.92562,-1.1466 2.2181,-1.8167 1.2925,-0.67008 2.7832,-0.72924 1.5236,-0.06267 3.2013,0.5402 1.7106,0.59935 3.4396,1.9951 1.9292,1.5574 2.9983,3.4726 1.0691,1.9152 1.2873,3.8048 z"
       style="color:#000000;fill:#000080;fill-opacity:1"
       id="path71"
       inkscape:connector-curvature="0" />
    <path
       d="m 704.11,-45.5 -22.395,11.512 -3.2652,-3.2844 q -0.56069,-0.56398 -0.0452,-1.5052 l 6.8022,-12.831 q 0.34922,-0.64402 0.69834,-1.255 0.3822,-0.61084 0.79737,-1.1885 -0.59658,0.39519 -1.2427,0.77371 -0.61307,0.37862 -1.2591,0.72406 l -12.887,6.6442 q -0.92775,0.52655 -1.6039,-0.15355 l -3.1333,-3.1517 11.66,-22.311 3.2487,3.2678 q 0.44526,0.44787 0.54294,0.97742 0.0977,0.52955 -0.13513,0.9589 l -6.6659,11.475 q -0.56504,0.92456 -1.1464,1.7664 -0.56487,0.8584 -1.1792,1.667 0.89468,-0.52664 1.8058,-1.0367 0.92766,-0.49347 1.905,-1.0033 l 11.927,-6.2501 q 0.4307,-0.2303 0.92668,-0.16269 0.51249,0.0842 0.92476,0.49889 l 1.7975,1.8081 q 0.42877,0.43128 0.50996,0.94425 0.0977,0.52955 -0.13512,0.9589 l -6.4023,11.807 q -0.53207,0.95773 -1.0805,1.8658 -0.51538,0.90817 -1.0473,1.7997 1.6243,-1.1861 3.513,-2.2722 l 11.58,-6.5323 q 0.44719,-0.21371 0.95966,-0.12951 0.51249,0.0842 0.92476,0.49889 z"
       style="color:#000000;fill:#000080;fill-opacity:1"
       id="path73"
       inkscape:connector-curvature="0" />
    <path
       d="m 706.6,-22.267 q 0.9361,-0.61987 1.5744,-1.4353 0.67071,-0.80883 0.9461,-1.7486 0.27539,-0.9398 0.084,-1.9913 -0.15893,-1.045 -0.86921,-2.1176 -1.3818,-2.0867 -3.3721,-2.5081 -1.9774,-0.40186 -4.3812,0.71297 z m -8.9883,-7.2613 q -1.4632,1.1372 -2.3102,2.3153 -0.82751,1.1651 -1.1037,2.358 -0.25667,1.1799 0.006,2.3809 0.29466,1.2076 1.0695,2.3777 0.77484,1.1701 1.6032,1.8279 0.84124,0.6773 1.586,1.0818 0.7577,0.42403 1.3407,0.71129 0.59588,0.30675 0.89291,0.7553 0.40033,0.60457 0.14549,1.1941 l -0.83829,2.5469 q -1.4656,-0.17971 -2.7678,-0.74815 -1.2827,-0.58137 -2.3959,-1.4152 -1.0808,-0.82725 -1.9858,-1.8551 -0.89211,-1.0083 -1.5895,-2.0614 -1.3818,-2.0867 -1.8873,-4.3329 -0.48601,-2.2591 -0.0185,-4.4763 0.487,-2.2301 1.9726,-4.3079 1.5051,-2.0907 4.1379,-3.8341 2.0477,-1.356 4.281,-1.881 2.2528,-0.53794 4.3925,-0.18746 2.1722,0.35707 4.1274,1.6152 1.9682,1.2776 3.4533,3.5204 1.2527,1.8917 1.707,3.8912 0.45438,1.9995 0.0462,3.925 -0.3887,1.9126 -1.6592,3.6796 -1.2381,1.7737 -3.4028,3.2071 -1.0921,0.72319 -1.6371,0.74744 -0.52551,0.01135 -0.96459,-0.65173 z"
       style="color:#000000;fill:#000080;fill-opacity:1"
       id="path75"
       inkscape:connector-curvature="0" />
    <path
       d="m 719.37,-9.8027 q 2.4254,0.091655 4.1862,0.96481 1.7818,0.86314 2.6844,2.7649 0.71205,1.5003 0.48822,2.7199 l -4.0697,1.5172 q -0.43051,0.074866 -0.69984,-0.056214 -0.23818,-0.11998 -0.39864,-0.45808 -0.15043,-0.31696 -0.34564,-1.001 -0.18518,-0.66294 -0.46599,-1.2546 -0.41118,-0.86638 -0.98568,-1.4222 -0.57449,-0.55586 -1.3213,-0.8746 -0.7156,-0.30765 -1.5924,-0.40935 -0.86675,-0.080575 -1.9036,-0.02862 l -13.355,6.3382 -2.4771,-5.2194 21.681,-10.29 1.4542,3.064 q 0.3811,0.80299 0.23569,1.2604 -0.12427,0.44735 -0.81372,0.90401 z"
       style="color:#000000;fill:#000080;fill-opacity:1"
       id="path77"
       inkscape:connector-curvature="0" />
    <path
       d="m 740.93,3.8909 -18.735,6.7234 0.36342,1.0127 q 0.19752,0.55039 0.44023,0.8112 0.27262,0.27494 0.83143,0.44716 l 8.9496,3.1253 q 0.58874,0.18633 0.98102,0.51772 0.40019,0.35341 0.64511,1.0359 l 1.7855,4.9755 -10.908,-4.0128 q -1.2593,-0.39299 -2.1037,-1.084 -0.16432,0.58083 -0.47822,1.0911 -0.306,0.53228 -0.69385,1.0442 l -8.2617,11.464 -1.7618,-4.9095 q -0.22911,-0.63844 -0.19689,-1.1719 0.0542,-0.54134 0.49402,-1.0471 l 6.4941,-8.8414 q 0.39575,-0.48994 0.43135,-0.87547 0.0356,-0.38554 -0.20142,-1.046 l -0.44244,-1.2329 -10.347,3.7133 -1.9515,-5.4378 32.715,-11.74 z"
       style="color:#000000;fill:#000080;fill-opacity:1"
       id="path79"
       inkscape:connector-curvature="0" />
  </g>
  <g
     style="fill:#ffffff;fill-rule:evenodd;stroke-width:0;stroke-miterlimit:10"
     id="g91"
     transform="matrix(0.19033119,-4.3295697e-4,0.00226523,0.21593038,38.618734,149.4643)">
    <path
       inkscape:connector-curvature="0"
       id="path85"
       d="M 619.1,-305.35 H 401.78 v 57.224 h 53.317 v -11.639 h 28.545 v 106.78 h -11.425 v 45.837 h 76.174 v -45.837 h -11.404 v -106.53 h 28.774 v 11.387 h 53.338 v -57.224"
       style="fill:#ffffff" />
    <path
       inkscape:connector-curvature="0"
       id="path87"
       d="m 392.09,-217.65 v 45.83 h 11.655 V 11.03 L 392.09,10.77087 v 45.837 h 76.425 v -45.837 h -11.432 v -45.578 h 106.68 v 45.578 h -11.404 v 45.837 h 76.153 v -45.837 h -11.404 v -182.82 l 11.404,0.22314 v -45.83 h -76.153 v 45.83 h 11.404 v 91.185 h -106.68 v -91.185 h 11.432 v -45.83 H 392.09"
       style="fill:#ffffff" />
    <path
       inkscape:connector-curvature="0"
       id="path89"
       d="m 510.43,99.736 83.848,139.46 109.9,-182.82 h 27.29 V 10.769 h -91.3 v 45.607 h 10.672 l -56.566,94.143 -84.099,-139.75 -83.856,139.75 -56.308,-94.143 h 10.672 V 10.769 h -91.558 v 45.607 h 27.541 l 109.9,182.82 83.856,-139.46"
       style="fill:#ffffff" />
  </g>
  <g
     transform="matrix(.57958 -.1049 -.1049 -.57958 -169.67 237.15)"
     fill="#abffff"
     stroke-width="1.1885"
     id="g129"
     style="fill:#000080;fill-opacity:1">
    <path
       d="m369.42-27.886q-3.3938-1.6634-6.8512-1.955-3.4255-0.30244-6.543 0.71098-3.1174 1.0134-5.725 3.309-2.5863 2.3062-4.3125 5.8281-1.7157 3.5005-1.9541 6.9575-0.21696 3.4673 0.88139 6.5735 1.1088 3.0848 3.4359 5.6284 2.3484 2.554 5.7427 4.2168 3.3939 1.6634 6.8298 1.9445 3.4574 0.2915 6.5748-0.72188 3.128-1.0348 5.7142-3.3409 2.6076-2.2957 4.3233-5.7962 1.1507-2.3478 1.6106-4.6904 0.48112-2.3319 0.3253-4.5526-0.13446-2.2102-0.89505-4.2771-0.72874-2.0779-2.0083-3.8962-1.2795-1.8184-3.088-3.3136-1.798-1.5166-4.0606-2.6255zm-2.8769 5.8697q2.54 1.245 4.2116 2.9114 1.693 1.6769 2.4846 3.6266 0.79154 1.9498 0.64933 4.1303-0.13166 2.1591-1.2406 4.4216-1.1089 2.2625-2.7453 3.7106-1.6258 1.4268-3.6623 2.017-2.026 0.56882-4.3885 0.258-2.3412-0.30036-4.8812-1.5453-2.54-1.2449-4.233-2.9218-1.6717-1.6664-2.4632-3.6162-0.75975-1.9607-0.628-4.1198 0.14212-2.1804 1.251-4.443 1.1089-2.2625 2.7348-3.6893 1.6363-1.4482 3.641-2.0275 2.026-0.56882 4.3672-0.26848 2.3625 0.31082 4.9026 1.5558z"
       color="#000000"
       style="-inkscape-stroke:none;fill:#000080;fill-opacity:1"
       id="path95" />
    <path
       d="m406.6-48.838-35.713-9.9366-3.5196 4.5801 18.796 31.951 3.1286-4.0712q0.50694-0.65968 0.50518-1.3206-2e-3 -0.66089-0.35136-1.2593l-11.685-19.202q-0.56425-0.94323-1.3271-1.9791-0.72951-1.0403-1.5822-2.1153 1.2293 0.58493 2.3934 1.0597 1.1829 0.48928 2.2396 0.79169l21.534 6.3854q0.54938 0.18235 1.2406 0.02403 0.70573-0.17716 1.1982-0.81801z"
       color="#000000"
       style="-inkscape-stroke:none;fill:#000080;fill-opacity:1"
       id="path97" />
    <path
       d="m428.65-73.02-5.7073-8.4223 10.666-7.2275-2.867-4.2308-10.666 7.2275-7.8542-11.59-5.3131 3.6004 19.282 28.455 17.947-12.161-2.8537-4.2111z"
       color="#000000"
       style="-inkscape-stroke:none;fill:#000080;fill-opacity:1"
       id="path99" />
    <path
       d="m443.87-93.952q2.0419 1.3839 4.0094 1.7278 1.9788 0.36483 3.8621-0.65006 1.4857-0.80063 2.036-1.9342l-2.421-3.6909q-0.3076-0.32029-0.60708-0.37493-0.26727-0.04499-0.60209 0.13543-0.31388 0.16914-0.88528 0.61206-0.55047 0.43165-1.1364 0.7474-0.85796 0.46232-1.6629 0.5721-0.80496 0.10974-1.6084-0.07836-0.77123-0.17846-1.5506-0.62256-0.75843-0.45537-1.5765-1.1216l-7.1267-13.225-5.1687 2.7853 11.57 21.47 3.0342-1.6351q0.79518-0.4285 0.95119-0.89061 0.16731-0.44118-0.12275-1.23z"
       color="#000000"
       style="-inkscape-stroke:none;fill:#000080;fill-opacity:1"
       id="path101" />
    <path
       d="m464.28-99.281-10.018-22.236-5.3748 2.4216 10.018 22.236zm3.6565 6.1481q-0.31247-0.69353-0.86762-1.1734t-1.237-0.7202q-0.66019-0.25006-1.4156-0.24864-0.74569 0.02311-1.4609 0.34534-0.69352 0.31247-1.2048 0.85571-0.47989 0.55515-0.72996 1.2153t-0.2584 1.394q0.0133 0.724 0.32578 1.4175 0.32223 0.71519 0.86548 1.2265 0.56491 0.50156 1.2251 0.75163t1.3842 0.23673q0.75545-0.0014 1.449-0.31393 0.7152-0.32222 1.2168-0.88714 0.51133-0.54324 0.76141-1.2034 0.27174-0.66995 0.2703-1.4254-1e-3 -0.75545-0.32365-1.4707z"
       color="#000000"
       style="-inkscape-stroke:none;fill:#000080;fill-opacity:1"
       id="path103" />
    <path
       d="m481.81-115.76q0.36191 1.0821 0.36302 2.1344 0.0311 1.0674-0.33625 1.9923-0.36739 0.92496-1.1785 1.6474-0.78102 0.73746-2.0209 1.1522-2.4121 0.80675-4.2697-0.10093-1.8351-0.91521-3.0628-3.3119zm-11.741 0.1923q-0.46038-1.8262-0.40177-3.2996 0.0662-1.4508 0.59122-2.5789 0.53259-1.1055 1.494-1.9033 0.99145-0.78278 2.3441-1.2352 1.3526-0.45239 2.4275-0.461 1.0975-0.0161 1.947 0.12582 0.8721 0.13443 1.5187 0.26908 0.66914 0.1271 1.1876-0.0463 0.69884-0.23373 0.86356-0.86532l0.922-2.5642q-1.2862-0.77295-2.6847-1.1324-1.391-0.33685-2.8042-0.3655-1.3831-0.0136-2.751 0.24334-1.3453 0.24943-2.5626 0.65657-2.4121 0.80676-4.2222 2.2894-1.8025 1.5052-2.8152 3.5734-1.0052 2.0907-1.1153 4.6842-0.10259 2.616 0.91532 5.6594 0.79168 2.367 2.2518 4.1847 1.4677 1.8402 3.4006 2.8981 1.963 1.0729 4.316 1.2886 2.3756 0.20807 4.968-0.65898 2.1867-0.73136 3.8015-2.0485 1.6148-1.3171 2.4925-3.1146 0.8852-1.7749 0.97316-3.985 0.11805-2.1951-0.71883-4.6974-0.42222-1.2624-0.84354-1.6228-0.41377-0.33784-1.1802-0.0815z"
       color="#000000"
       style="-inkscape-stroke:none;fill:#000080;fill-opacity:1"
       id="path105" />
    <path
       d="m507.24-118.6q-0.74314 1.3836-1.8117 2.1047-1.0452 0.71649-2.3742 0.98039-1.3057 0.25926-2.4521-0.0216-1.1464-0.28128-2.0916-1.1357-0.94056-0.83111-1.6425-2.2912-0.69731-1.4368-1.1094-3.5119-0.41668-2.0984-0.38194-3.6321 0.0627-1.515 0.50701-2.5726 0.44895-1.0343 1.2749-1.6346 0.83061-0.57692 1.9498-0.79917 1.7953-0.35649 3.2025 0.13964 1.4072 0.4961 2.7995 1.6495zm9.1016 15.69-6.8799-34.647-3.5206 0.69909q-1.1424 0.22686-1.2372 1.3363l-0.031 2.4055q-1.7743-1.3684-3.8666-2.0192-2.0689-0.65549-4.5637-0.1601-1.9585 0.38889-3.4285 1.529-1.4701 1.1401-2.3536 2.9151-0.85558 1.7936-1.0547 4.2082-0.17581 2.4099 0.40755 5.3477 0.5278 2.658 1.7043 4.7994 1.1765 2.1414 2.8622 3.5516 1.6856 1.4102 3.7594 1.9678 2.0784 0.58092 4.4332 0.11328 2.0051-0.39816 3.3024-1.3101 1.2972-0.91194 2.2034-2.2067l2.5047 12.614z"
       color="#000000"
       style="-inkscape-stroke:none;fill:#000080;fill-opacity:1"
       id="path107" />
    <path
       d="m525.91-118.74q1.3002 2.0962 2.9566 3.2123 1.6581 1.1399 3.7915 0.98102 1.6831-0.12531 2.6477-0.93606l-0.70581-4.3572q-0.1503-0.41786-0.40147-0.58985-0.2257-0.15005-0.60497-0.12182-0.35559 0.0265-1.0579 0.19795-0.67863 0.16971-1.3424 0.21913-0.97191 0.0724-1.7517-0.15558t-1.4367-0.72731q-0.63146-0.47739-1.162-1.2006-0.50689-0.72503-0.98224-1.6669l-1.1155-14.982-5.8552 0.43597 1.8109 24.321 3.4372-0.25592q0.9008-0.0671 1.2316-0.42543 0.33264-0.33464 0.38939-1.1731z"
       color="#000000"
       style="-inkscape-stroke:none;fill:#000080;fill-opacity:1"
       id="path109" />
    <path
       d="m547.85-114.96 0.60934-24.381-5.8933-0.14729-0.60934 24.381zm0.63037 7.1254q0.019-0.76044-0.2733-1.4335-0.29229-0.67309-0.8026-1.1852-0.48657-0.51149-1.168-0.83764-0.68202-0.30239-1.4662-0.32198-0.76042-0.019-1.4567 0.24893-0.67309 0.29229-1.1846 0.77885-0.51151 0.48655-0.83706 1.1442-0.30178 0.65825-0.32082 1.4187-0.0196 0.78419 0.24833 1.4805 0.2917 0.69685 0.77827 1.2084 0.48655 0.51151 1.1448 0.8133 0.68141 0.32614 1.4418 0.34512 0.7842 0.0196 1.4811-0.2721 0.69625-0.26794 1.2078-0.75449 0.53526-0.48597 0.8614-1.1674 0.32616-0.68142 0.34575-1.4656z"
       color="#000000"
       style="-inkscape-stroke:none;fill:#000080;fill-opacity:1"
       id="path111" />
    <path
       d="m573.36-117.68q-0.21969-0.36174-0.45649-0.58188-0.2132-0.21729-0.68518-0.27427-0.44838-0.0542-0.90453 0.15414-0.45898 0.2319-1.0889 0.49104-0.63274 0.28274-1.4901 0.44258-0.83656 0.18629-2.0401 0.0409-1.534-0.18525-2.6219-0.89123-1.0908-0.68244-1.7442-1.8149-0.62978-1.1296-0.82781-2.6619-0.20091-1.5088 0.0242-3.3731 0.23369-1.9351 0.81728-3.397 0.60717-1.4591 1.5114-2.4034 0.90133-0.92073 2.076-1.3296 1.1719-0.38524 2.5642-0.21709 1.3924 0.16815 2.202 0.60116 0.83043 0.45943 1.372 0.93186 0.53868 0.49605 0.92357 0.87773 0.40564 0.40814 0.94843 0.47369 0.70797 0.0855 1.1275-0.41454l1.932-1.9216q-0.83077-1.2496-1.8695-2.1652-1.0416-0.89198-2.2118-1.5122-1.1494-0.59373-2.4246-0.93926-1.2516-0.34269-2.5259-0.49659-2.2419-0.27074-4.324 0.31583-2.0849 0.61018-3.7655 2.0354-1.6806 1.4252-2.833 3.6325-1.1317 2.2337-1.4908 5.2072-0.32204 2.6667 0.15954 5.0234 0.50233 2.3832 1.7896 4.2147 1.2844 1.8551 3.3652 3.0641 2.0807 1.209 4.9362 1.5538 2.7139 0.32775 4.8489-0.30033 2.1586-0.62523 3.9836-2.0569z"
       color="#000000"
       style="-inkscape-stroke:none;fill:#000080;fill-opacity:1"
       id="path113" />
    <path
       d="m583.04-112.83q1.0687 1.6322 2.5332 2.8474t3.7041 1.7636q1.9394 0.4749 3.6042 0.17283 1.6591-0.27899 2.9459-1.2365 1.3042-0.92876 2.2192-2.4668 0.93246-1.5092 1.4187-3.4949l3.6919-15.077-5.7029-1.3965-3.6919 15.077q-0.53146 2.1703-1.8126 3.1048-1.2868 0.95749-3.3186 0.45996-1.4777-0.36183-2.6067-1.348-1.129-0.98618-2.0007-2.4233l4.1951-17.132-5.7029-1.3965-8.4014 34.31 5.7029 1.3965z"
       color="#000000"
       style="-inkscape-stroke:none;fill:#000080;fill-opacity:1"
       id="path115" />
    <path
       d="m617.2-104.43q-0.0882-0.43974-0.2742-0.6877-0.19432-0.22573-0.57245-0.36829-0.40035-0.15096-0.95131-0.10466-0.5287 0.0547-1.2299 0.0951-0.70957 0.0627-1.5719-8e-3 -0.8401-0.0627-1.8855-0.45692-1.6237-0.61225-2.2978-1.654-0.65193-1.0334-0.23258-2.1455 0.27677-0.73399 0.93676-1.0694 0.67383-0.30482 1.5949-0.38939 0.94329-0.0762 2.0616-0.0102 1.1099 0.0883 2.2672 0.11819 1.1796 0.0383 2.3566-0.0513 1.1686-0.0674 2.2155-0.48563 1.0607-0.38757 1.8968-1.1901 0.85835-0.79414 1.3783-2.1732 0.62064-1.6459 0.54848-3.2736-0.0583-1.5971-0.82909-3.0563-0.77916-1.437-2.2737-2.6611-1.4807-1.1934-3.7049-2.0322-1.1788-0.4445-2.397-0.64982-1.1876-0.21917-2.3755-0.23524-1.1657-8e-3 -2.2483 0.1684-1.0603 0.18448-1.954 0.5334l0.47942 2.5688q0.10209 0.47037 0.36024 0.79635 0.25814 0.32599 0.76973 0.51885 0.51158 0.19288 1.0654 0.0715 0.57611-0.11303 1.3024-0.2202 0.72633-0.10719 1.6361-0.0944 0.93199 0.0212 2.1775 0.49084 0.97865 0.36902 1.5843 0.85145 0.61949 0.51304 0.92175 1.0589 0.32451 0.55424 0.34017 1.1191 0.0295 0.59543-0.17177 1.1292-0.30193 0.80072-0.98414 1.1278-0.66 0.33545-1.6033 0.41163-0.92105 0.0846-2.0532-0.0121-1.1183-0.066-2.3201-0.11273-1.1796-0.0383-2.3788 0.043-1.1854 0.1119-2.2629 0.54396-1.0552 0.44045-1.9471 1.3236-0.86966 0.89149-1.44 2.404-0.52838 1.4012-0.45039 2.8787 0.078 1.4775 0.79336 2.8142 0.72922 1.3674 2.121 2.5273 1.4056 1.1905 3.5186 1.9873 2.3577 0.88901 4.5862 0.84021 2.2286-0.0488 3.9967-0.83016z"
       color="#000000"
       style="-inkscape-stroke:none;fill:#000080;fill-opacity:1"
       id="path117" />
    <path
       d="m627.45-97.307q0.6394 1.8432 1.7642 3.3782 1.1248 1.535 3.1636 2.6119 1.7656 0.9326 3.4538 1.0447 1.6771 0.13313 3.1582-0.48244 1.491-0.58346 2.7528-1.8526 1.2717-1.237 2.2265-3.0446l7.2498-13.725-5.1916-2.7423-7.2498 13.725q-1.0436 1.9758-2.5136 2.5703-1.4811 0.61558-3.3308-0.36143-1.3452-0.71055-2.2003-1.9418-0.85508-1.2313-1.3509-2.8373l8.2379-15.596-5.1916-2.7423-16.498 31.234 5.1916 2.7423z"
       color="#000000"
       style="-inkscape-stroke:none;fill:#000080;fill-opacity:1"
       id="path119" />
    <path
       d="m662.94-89.007q-2.0136-1.5584-3.2428-2.8276-1.2429-1.2498-1.8122-2.2592-0.56936-1.0094-0.55669-1.8137 0.0127-0.80425 0.46328-1.4463 0.8876-1.2647 2.0093-1.2906 1.1412-0.01224 2.3475 0.83439 1.4787 1.0378 2.1802 2.3142 0.70726 1.3095 0.97378 3.1228zm-17.089 0.9295q1.2318 5.5691 6.0766 8.9692 1.7512 1.229 3.5423 1.6148 1.7775 0.40528 3.4546 0.04316 1.6635-0.34265 3.1468-1.4216 1.5027-1.0653 2.6908-2.7581l8.8487-12.608-2.1792-1.5294q-0.681-0.47794-1.1872-0.54282-0.51989-0.04542-1.1709 0.427l-1.4385 1.1394q-0.2809-1.2136-0.63212-2.2442-0.36488-1.0111-0.89736-1.9076-0.53249-0.89644-1.3046-1.6997-0.73902-0.80908-1.8092-1.5601-1.2647-0.88759-2.567-1.3079-1.3159-0.40082-2.5722-0.26603-1.2562 0.13479-2.3944 0.84614-1.1381 0.71135-2.0801 2.0541-0.53254 0.75883-0.79851 1.6757-0.27961 0.93635-0.19329 2.0134 0.10577 1.0907 0.59694 2.3356 0.49117 1.245 1.5002 2.621 1.0285 1.3897 2.6079 2.9048 1.5658 1.5345 3.8013 3.1905l-0.81933 1.1674q-1.4065 2.0041-2.9317 2.3567-1.5389 0.37201-3.1538-0.76138-1.1674-0.81931-1.7545-1.6379-0.56766-0.80495-0.90559-1.5649-0.35157-0.74043-0.64682-1.3542-0.2758-0.60013-0.85955-1.0098-0.50588-0.35504-1.0336-0.3479-0.54141 0.02661-1.0012 0.22662z"
       color="#000000"
       style="-inkscape-stroke:none;fill:#000080;fill-opacity:1"
       id="path121" />
    <path
       d="m680.63-88.038-13.209 14.974-1.8067-1.1499q-0.61132-0.34906-1.1523-0.38252-0.53892 6.4e-5 -0.96349 0.48138l-1.5882 1.8005 2.7275 2.4059-1.1951 1.3548q-1.3838 1.5687-2.021 3.2254-0.61942 1.6724-0.51644 3.3164 0.1208 1.6597 0.97763 3.2397 0.85684 1.5799 2.4434 2.9795 1.2657 1.1165 2.6519 1.737l1.8607-2.2891q0.2023-0.26533 0.21906-0.53581 1e-3 -0.25268-0.13428-0.53051-0.13318-0.24428-0.36911-0.51582-0.25166-0.2537-0.55472-0.52102-0.78436-0.6919-1.251-1.4205-0.46457-0.69511-0.51503-1.5003-0.0661-0.78739 0.31537-1.687 0.38362-0.8661 1.2799-1.8822l1.0693-1.2122 4.7596 4.1985 2.7676-3.1374-4.617-4.0727 13.225-14.992z"
       color="#000000"
       style="-inkscape-stroke:none;fill:#000080;fill-opacity:1"
       id="path123" />
    <path
       d="m692.81-54.66q-0.84272 0.76923-1.8044 1.1966-0.96327 0.46086-1.9578 0.49966-0.9945 0.0388-1.9836-0.41012-0.99062-0.41533-1.872-1.3809-1.7148-1.8785-1.6374-3.9446 0.0934-2.0485 1.7873-4.1418zm-4.9322-10.657q1.4831-1.1607 2.8539-1.704 1.3533-0.52721 2.5974-0.50416 1.2265 0.03908 2.3453 0.59486 1.1173 0.58936 2.0788 1.6427 0.96154 1.0534 1.4048 2.0327 0.45933 0.99683 0.6737 1.8311 0.23038 0.85181 0.3692 1.4975 0.15485 0.66327 0.52344 1.0671 0.4968 0.54425 1.141 0.43901l2.7179-0.1958q0.18566-1.489-0.0523-2.9133-0.2555-1.4082-0.8018-2.7119-0.54784-1.2701-1.3369-2.4166-0.77301-1.1289-1.6384-2.077-1.7148-1.8785-3.8036-2.9328-2.1064-1.0383-4.4075-1.1263-2.3187-0.07205-4.7344 0.87786-2.4333 0.96594-4.8034 3.1294-1.8434 1.6827-2.9138 3.754-1.0879 2.0873-1.2721 4.2831-0.18576 2.2294 0.57031 4.468 0.77211 2.2562 2.615 4.2752 1.5545 1.703 3.4128 2.6458 1.8583 0.94283 3.8572 1.0171 1.9814 0.09032 4.0376-0.72455 2.0547-0.78128 4.0035-2.5601 0.98316-0.89743 1.142-1.4286 0.14126-0.51517-0.40361-1.1121z"
       color="#000000"
       style="-inkscape-stroke:none;fill:#000080;fill-opacity:1"
       id="path125" />
    <path
       d="m697.34-39.354q-0.17637 1.0271-0.21452 2.0438-0.0438 1.0498 0.12818 2.0344 0.16633 1.0177 0.57596 2.009 0.39023 1.005 1.1037 2.0144 1.1526 1.6305 2.6074 2.4943 1.4354 0.87749 3.0348 0.99865 1.5937 0.15428 3.2931-0.40662 1.6938-0.52778 3.3631-1.7078l12.675-8.96-3.3892-4.7944-12.675 8.96q-1.8246 1.2898-3.4046 1.1549-1.5994-0.12116-2.8068-1.8293-0.87817-1.2423-1.0836-2.7272-0.20548-1.4849 0.079-3.1415l14.403-10.181-3.3892-4.7944-19.915 14.078 2.0719 2.931q0.65862 0.9317 1.7379 0.60541z"
       color="#000000"
       style="-inkscape-stroke:none;fill:#000080;fill-opacity:1"
       id="path127" />
  </g>
  <text
     x="183.3311"
     y="267.77429"
     fill="#b3b3b3"
     font-family="Lato"
     font-size="8.4191px"
     letter-spacing="0px"
     stroke-width=".21048"
     word-spacing="0px"
     style="line-height:1.25"
     xml:space="preserve"
     id="text133"><tspan
       x="183.3311"
       y="267.77429"
       fill="#b3b3b3"
       stroke-width=".21048"
       id="tspan131">Lizenz: CC-BY: L. Roller</tspan></text>
  <metadata
     id="metadata135">
    <rdf:RDF>
      <cc:Work
         rdf:about="">
        <cc:license
           rdf:resource="http://creativecommons.org/licenses/by/4.0/" />
        <dc:title>THW OV FN Patch</dc:title>
        <dc:creator>
          <cc:Agent>
            <dc:title>L3D &lt;l3d@c3woc.de&gt;</dc:title>
          </cc:Agent>
        </dc:creator>
        <dc:format>image/svg+xml</dc:format>
        <dc:type
           rdf:resource="http://purl.org/dc/dcmitype/StillImage" />
      </cc:Work>
      <cc:License
         rdf:about="http://creativecommons.org/licenses/by/4.0/">
        <cc:permits
           rdf:resource="http://creativecommons.org/ns#Reproduction" />
        <cc:permits
           rdf:resource="http://creativecommons.org/ns#Distribution" />
        <cc:requires
           rdf:resource="http://creativecommons.org/ns#Notice" />
        <cc:requires
           rdf:resource="http://creativecommons.org/ns#Attribution" />
        <cc:permits
           rdf:resource="http://creativecommons.org/ns#DerivativeWorks" />
      </cc:License>
    </rdf:RDF>
  </metadata>
  <g
     id="g958">
    <text
       id="text1504"
       y="156.22342"
       x="2.3265581"
       style="font-style:normal;font-weight:normal;font-size:27.64373398px;line-height:1.25;font-family:sans-serif;letter-spacing:0px;word-spacing:0px;opacity:1;vector-effect:none;fill:#000080;fill-opacity:1;stroke:none;stroke-width:1.7992543;stroke-linecap:butt;stroke-linejoin:miter;stroke-miterlimit:4;stroke-dasharray:none;stroke-dashoffset:0;stroke-opacity:1;"
       xml:space="preserve"><tspan
         style="font-style:normal;font-variant:normal;font-weight:bold;font-stretch:normal;font-family:Lato;-inkscape-font-specification:'Lato Bold';vector-effect:none;fill:#000080;fill-opacity:1;stroke-width:1.7992543;stroke-linecap:butt;stroke-linejoin:miter;stroke-miterlimit:4;stroke-dasharray:none;stroke-dashoffset:0;stroke-opacity:1;"
         y="156.22342"
         x="2.3265581"
         id="tspan1502"
         sodipodi:role="line">19</tspan></text>
    <text
       xml:space="preserve"
       style="font-style:normal;font-weight:normal;font-size:27.64373398px;line-height:1.25;font-family:sans-serif;letter-spacing:0px;word-spacing:0px;opacity:1;vector-effect:none;fill:#000080;fill-opacity:1;stroke:none;stroke-width:1.7992543;stroke-linecap:butt;stroke-linejoin:miter;stroke-miterlimit:4;stroke-dasharray:none;stroke-dashoffset:0;stroke-opacity:1;"
       x="235.15692"
       y="156.22342"
       id="text1562"><tspan
         sodipodi:role="line"
         id="tspan1560"
         x="235.15692"
         y="156.22342"
         style="font-style:normal;font-variant:normal;font-weight:bold;font-stretch:normal;font-family:Lato;-inkscape-font-specification:'Lato Bold';vector-effect:none;fill:#000080;fill-opacity:1;stroke-width:1.7992543;stroke-linecap:butt;stroke-linejoin:miter;stroke-miterlimit:4;stroke-dasharray:none;stroke-dashoffset:0;stroke-opacity:1;">53</tspan></text>
  </g>
</svg>
